<svg width="25" height="24" viewBox="0 0 25 24" fill="none" xmlns="http://www.w3.org/2000/svg">
<g clip-path="url(#clip0_697_3554)">
<path d="M12.5 1.9707C10.5662 1.9707 8.7115 2.6974 7.34405 3.99094C5.9766 5.28448 5.20837 7.03889 5.20837 8.86823V12.3446C5.20852 12.4974 5.17108 12.6482 5.099 12.785L3.31046 16.1678C3.22309 16.333 3.18183 16.5167 3.19061 16.7013C3.19939 16.8859 3.25791 17.0653 3.36061 17.2224C3.46331 17.3796 3.60678 17.5094 3.7774 17.5993C3.94802 17.6893 4.14012 17.7365 4.33546 17.7365H20.6646C20.86 17.7365 21.0521 17.6893 21.2227 17.5993C21.3933 17.5094 21.5368 17.3796 21.6395 17.2224C21.7422 17.0653 21.8007 16.8859 21.8095 16.7013C21.8182 16.5167 21.777 16.333 21.6896 16.1678L19.9021 12.785C19.8297 12.6483 19.7919 12.4975 19.7917 12.3446V8.86823C19.7917 7.03889 19.0235 5.28448 17.656 3.99094C16.2886 2.6974 14.4339 1.9707 12.5 1.9707ZM12.5 20.6926C11.8536 20.6927 11.2229 20.5033 10.695 20.1504C10.167 19.7974 9.76776 19.2983 9.55212 18.7218H15.448C15.2323 19.2983 14.833 19.7974 14.3051 20.1504C13.7771 20.5033 13.1465 20.6927 12.5 20.6926Z" fill="#A8A8AA"/>
</g>
<defs>
<clipPath id="clip0_697_3554">
<rect width="25" height="23.6486" fill="white"/>
</clipPath>
</defs>
</svg>
