<svg width="20" height="20" viewBox="0 0 20 20" fill="none" xmlns="http://www.w3.org/2000/svg">
<path d="M10.0001 18.3332C8.86119 18.3332 7.7848 18.1143 6.77091 17.6765C5.75703 17.2387 4.87175 16.6415 4.11508 15.8848C3.35786 15.1282 2.76064 14.2429 2.32341 13.229C1.88619 12.2151 1.6673 11.1387 1.66675 9.99984C1.66675 8.84706 1.88564 7.76734 2.32341 6.76067C2.76119 5.754 3.35841 4.87206 4.11508 4.11484C4.87175 3.35762 5.75675 2.76039 6.77008 2.32317C7.78341 1.88595 8.86008 1.66706 10.0001 1.6665C11.1529 1.6665 12.2329 1.88539 13.2401 2.32317C14.2473 2.76095 15.129 3.35817 15.8851 4.11484C16.6423 4.8715 17.2395 5.75345 17.6767 6.76067C18.114 7.76789 18.3329 8.84761 18.3334 9.99984C18.3334 11.1387 18.1145 12.2151 17.6767 13.229C17.239 14.2429 16.6417 15.1284 15.8851 15.8857C15.1284 16.6423 14.2465 17.2396 13.2392 17.6773C12.232 18.1151 11.1523 18.3337 10.0001 18.3332ZM10.0001 16.6248C10.3612 16.1248 10.6737 15.604 10.9376 15.0623C11.2015 14.5207 11.4167 13.9443 11.5834 13.3332H8.41675C8.58342 13.9443 8.79869 14.5207 9.06258 15.0623C9.32647 15.604 9.63897 16.1248 10.0001 16.6248ZM7.83341 16.2915C7.58341 15.8332 7.3648 15.3573 7.17758 14.864C6.99036 14.3707 6.83397 13.8604 6.70841 13.3332H4.25008C4.65286 14.0276 5.15647 14.6318 5.76091 15.1457C6.36536 15.6596 7.05619 16.0415 7.83341 16.2915ZM12.1667 16.2915C12.9445 16.0415 13.6356 15.6596 14.2401 15.1457C14.8445 14.6318 15.3479 14.0276 15.7501 13.3332H13.2917C13.1667 13.8609 13.0106 14.3715 12.8234 14.8648C12.6362 15.3582 12.4173 15.8337 12.1667 16.2915ZM3.54175 11.6665H6.37508C6.33341 11.3887 6.3023 11.1146 6.28175 10.844C6.26119 10.5734 6.25064 10.2921 6.25008 9.99984C6.25008 9.70817 6.26064 9.42706 6.28175 9.1565C6.30286 8.88595 6.33397 8.6115 6.37508 8.33317H3.54175C3.4723 8.61095 3.42036 8.88539 3.38591 9.1565C3.35147 9.42761 3.33397 9.70873 3.33341 9.99984C3.33341 10.2915 3.35091 10.5729 3.38591 10.844C3.42091 11.1151 3.47286 11.3893 3.54175 11.6665ZM8.04175 11.6665H11.9584C12.0001 11.3887 12.0315 11.1146 12.0526 10.844C12.0737 10.5734 12.084 10.2921 12.0834 9.99984C12.0834 9.70817 12.0729 9.42706 12.0517 9.1565C12.0306 8.88595 11.9995 8.6115 11.9584 8.33317H8.04175C8.00008 8.61095 7.96897 8.88539 7.94841 9.1565C7.92786 9.42761 7.9173 9.70873 7.91675 9.99984C7.91675 10.2915 7.9273 10.5729 7.94841 10.844C7.96953 11.1151 8.00064 11.3893 8.04175 11.6665ZM13.6251 11.6665H16.4584C16.5279 11.3887 16.5801 11.1146 16.6151 10.844C16.6501 10.5734 16.6673 10.2921 16.6667 9.99984C16.6667 9.70817 16.6495 9.42706 16.6151 9.1565C16.5806 8.88595 16.5284 8.6115 16.4584 8.33317H13.6251C13.6667 8.61095 13.6981 8.88539 13.7192 9.1565C13.7404 9.42761 13.7506 9.70873 13.7501 9.99984C13.7501 10.2915 13.7395 10.5729 13.7184 10.844C13.6973 11.1151 13.6662 11.3893 13.6251 11.6665ZM13.2917 6.6665H15.7501C15.3473 5.97206 14.844 5.36789 14.2401 4.854C13.6362 4.34011 12.9451 3.95817 12.1667 3.70817C12.4167 4.1665 12.6356 4.64234 12.8234 5.13567C13.0112 5.629 13.1673 6.13928 13.2917 6.6665ZM8.41675 6.6665H11.5834C11.4167 6.05539 11.2015 5.479 10.9376 4.93734C10.6737 4.39567 10.3612 3.87484 10.0001 3.37484C9.63897 3.87484 9.32647 4.39567 9.06258 4.93734C8.79869 5.479 8.58342 6.05539 8.41675 6.6665ZM4.25008 6.6665H6.70841C6.83341 6.13873 6.9898 5.62817 7.17758 5.13484C7.36536 4.6415 7.58397 4.16595 7.83341 3.70817C7.05564 3.95817 6.36453 4.34011 5.76008 4.854C5.15564 5.36789 4.6523 5.97206 4.25008 6.6665Z" fill="#007BFF"/>
</svg>
