<svg width="20" height="20" viewBox="0 0 20 20" fill="none" xmlns="http://www.w3.org/2000/svg">
<g clip-path="url(#clip0_696_3310)">
<path fill-rule="evenodd" clip-rule="evenodd" d="M4.16665 7.49984C4.16665 5.95274 4.78123 4.46901 5.87519 3.37505C6.96916 2.28109 8.45289 1.6665 9.99998 1.6665C11.5471 1.6665 13.0308 2.28109 14.1248 3.37505C15.2187 4.46901 15.8333 5.95274 15.8333 7.49984V10.6365L17.3517 13.6732C17.4215 13.8129 17.4545 13.9683 17.4475 14.1244C17.4405 14.2805 17.3937 14.4322 17.3115 14.5651C17.2294 14.698 17.1146 14.8078 16.9781 14.8838C16.8416 14.9599 16.6879 14.9999 16.5316 14.9998H13.2283C13.043 15.715 12.6253 16.3484 12.041 16.8006C11.4567 17.2528 10.7388 17.4981 9.99998 17.4981C9.26115 17.4981 8.54324 17.2528 7.95893 16.8006C7.37463 16.3484 6.95701 15.715 6.77165 14.9998H3.46832C3.31205 14.9999 3.15837 14.9599 3.02187 14.8838C2.88538 14.8078 2.7706 14.698 2.68844 14.5651C2.60628 14.4322 2.55946 14.2805 2.55244 14.1244C2.54542 13.9683 2.57842 13.8129 2.64832 13.6732L4.16665 10.6365V7.49984ZM8.55665 14.9998C8.70294 15.2532 8.91333 15.4636 9.16669 15.6098C9.42004 15.7561 9.70744 15.8331 9.99998 15.8331C10.2925 15.8331 10.5799 15.7561 10.8333 15.6098C11.0866 15.4636 11.297 15.2532 11.4433 14.9998H8.55665ZM9.99998 3.33317C8.89491 3.33317 7.83511 3.77216 7.0537 4.55356C6.2723 5.33496 5.83332 6.39477 5.83332 7.49984V10.6365C5.8333 10.8951 5.7731 11.1502 5.65748 11.3815L4.68248 13.3332H15.3183L14.3433 11.3815C14.2274 11.1502 14.167 10.8952 14.1666 10.6365V7.49984C14.1666 6.39477 13.7277 5.33496 12.9463 4.55356C12.1649 3.77216 11.1051 3.33317 9.99998 3.33317Z" fill="#007BFF"/>
</g>
<defs>
<clipPath id="clip0_696_3310">
<rect width="20" height="20" fill="white"/>
</clipPath>
</defs>
</svg>
