<svg width="20" height="20" viewBox="0 0 20 20" fill="none" xmlns="http://www.w3.org/2000/svg">
<path d="M3.33325 15.0003C3.33325 14.1163 3.68444 13.2684 4.30956 12.6433C4.93468 12.0182 5.78253 11.667 6.66659 11.667H13.3333C14.2173 11.667 15.0652 12.0182 15.6903 12.6433C16.3154 13.2684 16.6666 14.1163 16.6666 15.0003C16.6666 15.4424 16.491 15.8663 16.1784 16.1788C15.8659 16.4914 15.4419 16.667 14.9999 16.667H4.99992C4.55789 16.667 4.13397 16.4914 3.82141 16.1788C3.50885 15.8663 3.33325 15.4424 3.33325 15.0003Z" stroke="#007BFF" stroke-width="1.66667" stroke-linejoin="round"/>
<path d="M10 8.3335C11.3807 8.3335 12.5 7.21421 12.5 5.8335C12.5 4.45278 11.3807 3.3335 10 3.3335C8.61929 3.3335 7.5 4.45278 7.5 5.8335C7.5 7.21421 8.61929 8.3335 10 8.3335Z" stroke="#007BFF" stroke-width="1.66667"/>
</svg>
