<svg width="20" height="20" viewBox="0 0 20 20" fill="none" xmlns="http://www.w3.org/2000/svg">
<path d="M9.99992 14.1668C9.55789 14.1668 9.13397 13.9912 8.82141 13.6787C8.50885 13.3661 8.33325 12.9422 8.33325 12.5002C8.33325 11.5752 9.07492 10.8335 9.99992 10.8335C10.4419 10.8335 10.8659 11.0091 11.1784 11.3217C11.491 11.6342 11.6666 12.0581 11.6666 12.5002C11.6666 12.9422 11.491 13.3661 11.1784 13.6787C10.8659 13.9912 10.4419 14.1668 9.99992 14.1668ZM14.9999 16.6668V8.3335H4.99992V16.6668H14.9999ZM14.9999 6.66683C15.4419 6.66683 15.8659 6.84242 16.1784 7.15498C16.491 7.46755 16.6666 7.89147 16.6666 8.3335V16.6668C16.6666 17.1089 16.491 17.5328 16.1784 17.8453C15.8659 18.1579 15.4419 18.3335 14.9999 18.3335H4.99992C4.55789 18.3335 4.13397 18.1579 3.82141 17.8453C3.50885 17.5328 3.33325 17.1089 3.33325 16.6668V8.3335C3.33325 7.4085 4.07492 6.66683 4.99992 6.66683H5.83325V5.00016C5.83325 3.89509 6.27224 2.83529 7.05364 2.05388C7.83504 1.27248 8.89485 0.833496 9.99992 0.833496C10.5471 0.833496 11.0889 0.94127 11.5944 1.15066C12.1 1.36006 12.5593 1.66697 12.9462 2.05388C13.3331 2.4408 13.64 2.90013 13.8494 3.40565C14.0588 3.91117 14.1666 4.45299 14.1666 5.00016V6.66683H14.9999ZM9.99992 2.50016C9.33688 2.50016 8.70099 2.76355 8.23215 3.2324C7.76331 3.70124 7.49992 4.33712 7.49992 5.00016V6.66683H12.4999V5.00016C12.4999 4.33712 12.2365 3.70124 11.7677 3.2324C11.2988 2.76355 10.663 2.50016 9.99992 2.50016Z" fill="#007BFF"/>
</svg>
