<svg width="20" height="20" viewBox="0 0 20 20" fill="none" xmlns="http://www.w3.org/2000/svg">
<path d="M10 13.3332C10.8841 13.3332 11.7319 12.982 12.357 12.3569C12.9821 11.7317 13.3333 10.8839 13.3333 9.99984C13.3333 9.11578 12.9821 8.26794 12.357 7.64281C11.7319 7.01769 10.8841 6.6665 10 6.6665V13.3332Z" fill="#007BFF"/>
<path fill-rule="evenodd" clip-rule="evenodd" d="M10.0001 1.6665C5.39758 1.6665 1.66675 5.39734 1.66675 9.99984C1.66675 14.6023 5.39758 18.3332 10.0001 18.3332C14.6026 18.3332 18.3334 14.6023 18.3334 9.99984C18.3334 5.39734 14.6026 1.6665 10.0001 1.6665ZM10.0001 3.33317V6.6665C9.11603 6.6665 8.26818 7.01769 7.64306 7.64281C7.01794 8.26794 6.66675 9.11578 6.66675 9.99984C6.66675 10.8839 7.01794 11.7317 7.64306 12.3569C8.26818 12.982 9.11603 13.3332 10.0001 13.3332V16.6665C11.7682 16.6665 13.4639 15.9641 14.7141 14.7139C15.9644 13.4636 16.6667 11.7679 16.6667 9.99984C16.6667 8.23173 15.9644 6.53603 14.7141 5.28579C13.4639 4.03555 11.7682 3.33317 10.0001 3.33317Z" fill="#007BFF"/>
</svg>
