<svg width="20" height="20" viewBox="0 0 20 20" fill="none" xmlns="http://www.w3.org/2000/svg">
<path d="M8.66667 4.66667H7.91667H8.66667ZM6 2V1.25V2ZM6 7.33333V6.58333V7.33333ZM16.6667 15.3333H15.9167H16.6667ZM14 12.6667V11.9167V12.6667ZM14 18V17.25V18ZM20 3.91667L8.66667 3.91667V5.41667L20 5.41667V3.91667ZM9.41667 4.66667C9.41667 2.77969 7.88697 1.25 6 1.25V2.75C7.05855 2.75 7.91667 3.60812 7.91667 4.66667H9.41667ZM6 8.08333C7.88697 8.08333 9.41667 6.55364 9.41667 4.66667H7.91667C7.91667 5.72521 7.05855 6.58333 6 6.58333V8.08333ZM2.58333 4.66667C2.58333 6.55364 4.11303 8.08333 6 8.08333V6.58333C4.94145 6.58333 4.08333 5.72521 4.08333 4.66667H2.58333ZM4.08333 4.66667C4.08333 3.60812 4.94145 2.75 6 2.75V1.25C4.11303 1.25 2.58333 2.77969 2.58333 4.66667H4.08333ZM3.33333 3.91667L3.57628e-08 3.91667L-3.57628e-08 5.41667H3.33333V3.91667ZM20 14.5833L16.6667 14.5833L16.6667 16.0833L20 16.0833L20 14.5833ZM17.4167 15.3333C17.4167 13.4464 15.887 11.9167 14 11.9167V13.4167C15.0585 13.4167 15.9167 14.2748 15.9167 15.3333H17.4167ZM14 18.75C15.887 18.75 17.4167 17.2203 17.4167 15.3333H15.9167C15.9167 16.3919 15.0585 17.25 14 17.25V18.75ZM10.5833 15.3333C10.5833 17.2203 12.113 18.75 14 18.75V17.25C12.9415 17.25 12.0833 16.3919 12.0833 15.3333H10.5833ZM12.0833 15.3333C12.0833 14.2748 12.9415 13.4167 14 13.4167V11.9167C12.113 11.9167 10.5833 13.4464 10.5833 15.3333H12.0833ZM11.3333 14.5833H1.69528e-07V16.0833H11.3333V14.5833Z" fill="white"/>
</svg>
