<svg width="26" height="21" viewBox="0 0 26 21" fill="none" xmlns="http://www.w3.org/2000/svg">
<path d="M17.2518 9.94081L8.19616 3.05212C8.04507 2.93712 7.84445 2.87314 7.63593 2.87344C7.42742 2.87375 7.227 2.93832 7.07624 3.05377L7.06651 3.06158C6.99317 3.11755 6.93481 3.18487 6.89497 3.25945C6.85513 3.33403 6.83464 3.41431 6.83476 3.49541C6.83488 3.57651 6.8556 3.65674 6.89567 3.7312C6.93573 3.80566 6.99429 3.87281 7.06779 3.92856L15.5953 10.4151L7.08696 16.9242C7.01363 16.9801 6.95526 17.0474 6.91542 17.122C6.87558 17.1966 6.8551 17.2769 6.85522 17.358C6.85534 17.4391 6.87606 17.5193 6.91612 17.5938C6.95618 17.6682 7.01474 17.7354 7.08824 17.7911L7.09799 17.7989C7.24909 17.9139 7.4497 17.9779 7.65822 17.9776C7.86674 17.9773 8.06716 17.9127 8.21792 17.7973L17.2532 10.8819C17.3326 10.8211 17.3958 10.748 17.439 10.667C17.4822 10.5861 17.5043 10.499 17.5042 10.411C17.5041 10.323 17.4816 10.2359 17.4382 10.1551C17.3949 10.0743 17.3314 10.0014 17.2518 9.94081Z" fill="#007BFF"/>
</svg>
