<svg width="7" height="6" viewBox="0 0 7 6" fill="none" xmlns="http://www.w3.org/2000/svg">
<path fill-rule="evenodd" clip-rule="evenodd" d="M5.00625 1.30339L1.99033 4.13464C1.8517 4.26462 1.626 4.26462 1.48738 4.13464C1.34875 4.00466 1.34875 3.79302 1.48738 3.66304L4.5033 0.831796C4.64192 0.701816 4.86763 0.701816 5.00625 0.831796C5.07556 0.896787 5.1111 0.981774 5.1111 1.06676C5.1111 1.15342 5.07556 1.2384 5.00625 1.30339ZM6.13793 0.950275L5.38262 0.243714C5.03607 -0.0812379 4.47269 -0.0812379 4.12613 0.243714L0.888059 3.28493C0.786758 3.37825 0.712116 3.49489 0.667685 3.62321L0.0172269 5.56625C-0.0698564 5.82288 0.187839 6.06451 0.461529 5.98452L2.53731 5.37295C2.67238 5.33295 2.79678 5.26296 2.89808 5.16798L6.13793 2.12677C6.48449 1.80181 6.48449 1.27523 6.13793 0.950275Z" fill="white"/>
</svg>
