<svg width="20" height="20" viewBox="0 0 20 20" fill="none" xmlns="http://www.w3.org/2000/svg">
<path d="M18.3333 1.6665H1.66659C1.44557 1.6665 1.23361 1.7543 1.07733 1.91058C0.921049 2.06686 0.833252 2.27882 0.833252 2.49984V9.1665C0.833252 9.38752 0.921049 9.59948 1.07733 9.75576C1.23361 9.91204 1.44557 9.99984 1.66659 9.99984H4.16658V17.4998C4.16658 17.7208 4.25438 17.9328 4.41066 18.0891C4.56694 18.2454 4.7789 18.3332 4.99992 18.3332H14.9999C15.2209 18.3332 15.4329 18.2454 15.5892 18.0891C15.7455 17.9328 15.8333 17.7208 15.8333 17.4998V9.99984H18.3333C18.5543 9.99984 18.7662 9.91204 18.9225 9.75576C19.0788 9.59948 19.1666 9.38752 19.1666 9.1665V2.49984C19.1666 2.27882 19.0788 2.06686 18.9225 1.91058C18.7662 1.7543 18.5543 1.6665 18.3333 1.6665ZM5.83325 16.6665V14.9998C6.27528 14.9998 6.6992 15.1754 7.01176 15.488C7.32432 15.8006 7.49992 16.2245 7.49992 16.6665H5.83325ZM14.1666 16.6665H12.4999C12.4999 16.2245 12.6755 15.8006 12.9881 15.488C13.3006 15.1754 13.7246 14.9998 14.1666 14.9998V16.6665ZM14.1666 13.3332C13.2825 13.3332 12.4347 13.6844 11.8096 14.3095C11.1844 14.9346 10.8333 15.7824 10.8333 16.6665H9.16658C9.16658 15.7824 8.8154 14.9346 8.19027 14.3095C7.56515 13.6844 6.71731 13.3332 5.83325 13.3332V6.6665H14.1666V13.3332ZM17.4999 8.33317H15.8333V5.83317C15.8333 5.61216 15.7455 5.4002 15.5892 5.24392C15.4329 5.08763 15.2209 4.99984 14.9999 4.99984H4.99992C4.7789 4.99984 4.56694 5.08763 4.41066 5.24392C4.25438 5.4002 4.16658 5.61216 4.16658 5.83317V8.33317H2.49992V3.33317H17.4999V8.33317ZM9.99992 12.4998C10.4944 12.4998 10.9777 12.3532 11.3888 12.0785C11.8 11.8038 12.1204 11.4134 12.3096 10.9565C12.4988 10.4997 12.5483 9.99706 12.4519 9.51211C12.3554 9.02716 12.1173 8.5817 11.7677 8.23207C11.4181 7.88244 10.9726 7.64434 10.4876 7.54787C10.0027 7.45141 9.50002 7.50092 9.04321 7.69014C8.58639 7.87936 8.19595 8.19979 7.92124 8.61091C7.64654 9.02203 7.49992 9.50538 7.49992 9.99984C7.49992 10.6629 7.76331 11.2988 8.23215 11.7676C8.70099 12.2364 9.33688 12.4998 9.99992 12.4998ZM9.99992 9.1665C10.1647 9.1665 10.3259 9.21538 10.4629 9.30695C10.5999 9.39851 10.7067 9.52866 10.7698 9.68093C10.8329 9.83321 10.8494 10.0008 10.8172 10.1624C10.7851 10.3241 10.7057 10.4725 10.5892 10.5891C10.4726 10.7056 10.3241 10.785 10.1625 10.8172C10.0008 10.8493 9.83329 10.8328 9.68102 10.7697C9.52874 10.7067 9.39859 10.5999 9.30703 10.4628C9.21546 10.3258 9.16658 10.1647 9.16658 9.99984C9.16658 9.77882 9.25438 9.56686 9.41066 9.41058C9.56694 9.2543 9.7789 9.1665 9.99992 9.1665Z" fill="#007BFF"/>
</svg>
