<svg width="20" height="19" viewBox="0 0 20 19" fill="none" xmlns="http://www.w3.org/2000/svg">
<path d="M10 3.61299C9.63185 3.61299 9.33337 3.3434 9.33337 3.01084C9.33337 2.67828 9.63185 2.40869 10 2.40869C10.3682 2.40869 10.6667 2.67828 10.6667 3.01084C10.6667 3.3434 10.3682 3.61299 10 3.61299Z" stroke="#1A1D1E" stroke-width="1.5"/>
<path d="M10 9.6345C9.63185 9.6345 9.33337 9.36491 9.33337 9.03235C9.33337 8.69979 9.63185 8.4302 10 8.4302C10.3682 8.4302 10.6667 8.69979 10.6667 9.03235C10.6667 9.36491 10.3682 9.6345 10 9.6345Z" stroke="#1A1D1E" stroke-width="1.5"/>
<path d="M10 15.656C9.63185 15.656 9.33337 15.3864 9.33337 15.0539C9.33337 14.7213 9.63185 14.4517 10 14.4517C10.3682 14.4517 10.6667 14.7213 10.6667 15.0539C10.6667 15.3864 10.3682 15.656 10 15.656Z" stroke="#1A1D1E" stroke-width="1.5"/>
</svg>
