<svg width="40" height="40" viewBox="0 0 40 40" fill="none" xmlns="http://www.w3.org/2000/svg">
<path d="M19.2338 22.9298C19.3221 22.8095 19.4379 22.7121 19.5716 22.6457C19.7052 22.5793 19.8528 22.5458 20.002 22.548C20.1513 22.5502 20.2978 22.588 20.4294 22.6584C20.5611 22.7287 20.674 22.8295 20.7588 22.9523L22.2375 21.9248C22.5125 21.7373 22.9 21.9373 22.9 22.2748V24.6873C22.9 25.0248 22.5125 25.2373 22.2375 25.0373L20.76 24.0198C20.6752 24.1431 20.562 24.2443 20.43 24.3149C20.2981 24.3856 20.1511 24.4236 20.0014 24.4258C19.8518 24.428 19.7037 24.3943 19.5697 24.3276C19.4358 24.2609 19.3197 24.163 19.2313 24.0423L17.7875 25.0373C17.5125 25.2373 17.125 25.0248 17.125 24.6873V22.2748C17.125 21.9373 17.5125 21.7373 17.7875 21.9248L19.2338 22.9298ZM20.0125 29.0998C20.1783 29.0998 20.3372 29.0339 20.4544 28.9167C20.5717 28.7995 20.6375 28.6405 20.6375 28.4748C20.6375 28.309 20.5717 28.15 20.4544 28.0328C20.3372 27.9156 20.1783 27.8498 20.0125 27.8498C19.8467 27.8498 19.6878 27.9156 19.5706 28.0328C19.4533 28.15 19.3875 28.309 19.3875 28.4748C19.3875 28.6405 19.4533 28.7995 19.5706 28.9167C19.6878 29.0339 19.8467 29.0998 20.0125 29.0998ZM20.6375 32.4123C20.6375 32.578 20.5717 32.737 20.4544 32.8542C20.3372 32.9714 20.1783 33.0373 20.0125 33.0373C19.8467 33.0373 19.6878 32.9714 19.5706 32.8542C19.4533 32.737 19.3875 32.578 19.3875 32.4123C19.3875 32.2465 19.4533 32.0875 19.5706 31.9703C19.6878 31.8531 19.8467 31.7873 20.0125 31.7873C20.1783 31.7873 20.3372 31.8531 20.4544 31.9703C20.5717 32.0875 20.6375 32.2465 20.6375 32.4123ZM23.8088 10.9848C23.9338 11.0723 24.0838 11.1223 24.2213 11.1223C24.4338 11.1223 24.6337 11.0223 24.7712 10.8598C24.9962 10.5723 24.9462 10.1348 24.6462 9.90977C24.6087 9.87227 23.5712 9.09727 22.0837 9.27227C21.7087 9.30977 21.4338 9.64727 21.4838 10.0223C21.5213 10.3973 21.8588 10.6723 22.2338 10.6223C22.7831 10.5521 23.3394 10.6792 23.8037 10.981L23.8088 10.9848ZM22.9338 11.5848C23.7463 11.5848 24.4338 12.1473 24.6213 12.8973C24.6713 13.1098 24.5088 13.3223 24.2838 13.3223H23.7613C23.8049 13.1572 23.81 12.9842 23.7763 12.8168C23.7425 12.6494 23.6707 12.492 23.5665 12.3567C23.4623 12.2214 23.3283 12.1119 23.1751 12.0366C23.0218 11.9613 22.8533 11.9222 22.6825 11.9223C22.07 11.9223 21.57 12.4223 21.5825 13.0348C21.5825 13.1423 21.595 13.2273 21.6175 13.3223H21.5212C21.3462 13.3223 21.2087 13.1598 21.2337 12.9848C21.3962 12.1973 22.0963 11.5848 22.9338 11.5848Z" fill="#6A6A6A"/>
<path d="M22.1525 12.6839C22.0886 12.7793 22.052 12.8904 22.0465 13.0051C22.041 13.1199 22.0668 13.234 22.1212 13.3351H23.2462C23.3057 13.2205 23.3291 13.0905 23.3133 12.9623C23.2976 12.8341 23.2434 12.7137 23.1579 12.6169C23.0725 12.5201 22.9597 12.4514 22.8345 12.4198C22.7092 12.3883 22.5774 12.3953 22.4562 12.4401C22.48 12.4587 22.4992 12.4824 22.5125 12.5095C22.5257 12.5365 22.5327 12.5662 22.5329 12.5964C22.5331 12.6265 22.5264 12.6563 22.5135 12.6835C22.5005 12.7107 22.4816 12.7347 22.4581 12.7535C22.4346 12.7724 22.4071 12.7857 22.3777 12.7925C22.3484 12.7992 22.3178 12.7993 22.2884 12.7926C22.2591 12.7859 22.2316 12.7726 22.208 12.7538C22.1845 12.735 22.1655 12.7111 22.1525 12.6839ZM17.8837 13.0351C17.8829 12.9306 17.8565 12.828 17.8068 12.7361C17.7571 12.6442 17.6857 12.5658 17.5988 12.5079C17.5118 12.4499 17.4121 12.4141 17.3081 12.4036C17.2042 12.3931 17.0993 12.4082 17.0025 12.4476C17.0244 12.4664 17.0419 12.4897 17.054 12.5159C17.066 12.5421 17.0723 12.5706 17.0723 12.5994C17.0723 12.6282 17.0661 12.6567 17.054 12.6829C17.042 12.7091 17.0244 12.7324 17.0025 12.7512C16.9807 12.77 16.955 12.7838 16.9273 12.7917C16.8995 12.7996 16.8704 12.8015 16.8419 12.7971C16.8134 12.7927 16.7862 12.7822 16.7621 12.7664C16.7381 12.7505 16.7177 12.7296 16.7025 12.7051C16.6444 12.7993 16.6122 12.907 16.6089 13.0176C16.6056 13.1282 16.6314 13.2377 16.6837 13.3351H17.8087C17.8587 13.2351 17.8837 13.1351 17.8837 13.0351ZM19.4962 12.9351L18.8587 15.0101C18.7212 15.4351 19.0462 15.8726 19.4962 15.8726H20.4462C20.8962 15.8726 21.2087 15.4351 21.0837 15.0101L20.4462 12.9351C20.2962 12.4851 19.6462 12.4851 19.4962 12.9351ZM18.1462 16.6726C18.6712 16.9476 19.2962 17.1101 19.9712 17.1101C20.6337 17.1101 21.2587 16.9476 21.7962 16.6726C21.9712 16.5851 22.1712 16.7851 22.0587 16.9601C21.8335 17.3089 21.5244 17.5957 21.1597 17.7943C20.7951 17.9929 20.3865 18.0969 19.9712 18.0969C19.556 18.0969 19.1474 17.9929 18.7827 17.7943C18.4181 17.5957 18.109 17.3089 17.8837 16.9601C17.7712 16.7851 17.9712 16.5726 18.1462 16.6726Z" fill="#6A6A6A"/>
<path d="M26.3663 5.15999L26.8913 5.42249C27.8538 5.90999 28.3912 6.97249 28.1912 8.03499L27.4912 11.8725C27.4791 11.9462 27.4563 12.0178 27.4237 12.085C27.6059 12.3356 27.7283 12.6245 27.7817 12.9296C27.835 13.2348 27.818 13.5481 27.7317 13.8456C27.6455 14.1432 27.4924 14.4171 27.2841 14.6464C27.0758 14.8757 26.8179 15.0544 26.53 15.1687L26.3675 17.4975C26.26 18.65 25.73 19.6275 24.9425 20.2912C26.3923 20.8513 27.7364 21.6536 28.9175 22.6637C30.4299 23.9506 31.6444 25.5509 32.4767 27.3539C33.309 29.1568 33.7392 31.1192 33.7375 33.105V37.5H6.25V33.125C6.25 31.835 6.4275 30.5875 6.76 29.4025C7.50871 26.7029 9.06176 24.2952 11.2125 22.5V22.55C12.508 21.4713 13.9911 20.6404 15.5875 20.0987C14.8852 19.4037 14.4524 18.4819 14.3663 17.4975L14.2163 15.31C13.7713 15.31 13.3386 15.1638 12.9848 14.8941C12.6309 14.6243 12.3755 14.2458 12.2576 13.8167C12.1398 13.3876 12.1661 12.9317 12.3325 12.5191C12.4989 12.1064 12.7962 11.7598 13.1788 11.5325L12.5413 8.03499C12.3412 6.97249 12.8787 5.90999 13.8412 5.42249L14.3663 5.15999C14.7413 4.97249 15.0788 4.73499 15.3663 4.43499L16.6288 3.18499C16.9758 2.83776 17.4234 2.60863 17.9081 2.5301C18.3927 2.45157 18.8898 2.52763 19.3288 2.74749C20.0038 2.98499 20.7288 2.98499 21.3913 2.74749C22.5663 2.22249 23.5537 2.64749 24.3287 3.40999L25.3538 4.43499C25.6538 4.72249 25.9913 4.97249 26.3663 5.15999ZM16.6163 35C13.7813 31.8687 13.2738 27.6537 13.1875 26.175C13.175 25.8875 13.4 25.6375 13.6875 25.6375H14.35C14.5 25.6375 14.625 25.5125 14.6125 25.3625C14.6056 24.6579 14.6048 23.9533 14.61 23.2487C13.3086 23.9607 12.1601 24.9219 11.23 26.0775L11.275 35H16.6163ZM18.4425 35H21.555C22.792 32.5547 23.4369 29.8529 23.4375 27.1125V21.0812C23.0882 21.1755 22.728 21.223 22.3662 21.2225H18.3663C17.74 21.2245 17.122 21.0789 16.5625 20.7975V27.1875C16.5625 29.9212 17.2162 32.595 18.4425 35ZM23.4087 35H28.7375V26.0475C27.8207 24.9137 26.6928 23.9684 25.4163 23.2637C25.4188 24.1425 25.42 24.9262 25.4125 25.3637C25.4 25.5137 25.525 25.6387 25.675 25.6387H26.3375C26.625 25.6387 26.85 25.8887 26.8375 26.1762C26.7512 27.6537 26.2437 31.8687 23.4087 35ZM15.125 10.085C15.169 10.0121 15.2267 9.94839 15.295 9.89749C15.3325 9.85999 16.37 9.08499 17.8575 9.25999C18.2325 9.30999 18.495 9.64749 18.4575 10.01C18.4075 10.385 18.07 10.6475 17.7075 10.61C16.7825 10.4975 16.1575 10.9475 16.1325 10.9725C15.995 11.0725 15.8575 11.11 15.7075 11.11C15.495 11.11 15.295 11.0225 15.17 10.835L15.16 10.8225L15.3038 12.9137L15.3075 12.8975C15.495 12.1475 16.1825 11.585 16.995 11.585C17.8325 11.585 18.545 12.1975 18.695 12.985C18.72 13.16 18.5825 13.3225 18.4075 13.3225H18.31C18.3337 13.2285 18.3455 13.1319 18.345 13.035C18.3482 12.8891 18.322 12.744 18.268 12.6084C18.214 12.4728 18.1333 12.3495 18.0307 12.2457C17.9281 12.1419 17.8057 12.0598 17.6707 12.0043C17.5357 11.9488 17.3909 11.9209 17.245 11.9225C17.0742 11.9224 16.9057 11.9615 16.7524 12.0368C16.5992 12.1121 16.4652 12.2217 16.361 12.3569C16.2568 12.4922 16.185 12.6496 16.1512 12.817C16.1175 12.9845 16.1226 13.1574 16.1662 13.3225H15.645C15.5716 13.3223 15.5001 13.2989 15.4408 13.2555C15.3815 13.2122 15.3375 13.1512 15.315 13.0812L15.6112 17.3925C15.77 18.9375 16.9588 19.9725 18.365 19.9725H22.365C23.79 19.9725 24.9725 18.9337 25.1187 17.395L25.6063 10.4862C25.6591 9.73657 25.5318 8.98514 25.235 8.29471C24.9381 7.60429 24.4804 6.99491 23.9 6.51749C22.7307 6.33387 21.5486 6.24359 20.365 6.24749C18.9275 6.24749 17.7362 6.37249 16.845 6.51249C16.3145 6.94594 15.8855 7.4905 15.5883 8.10776C15.2911 8.72502 15.133 9.39996 15.125 10.085Z" fill="#6A6A6A"/>
</svg>
