<svg width="41" height="41" viewBox="0 0 41 41" fill="none" xmlns="http://www.w3.org/2000/svg">
<g filter="url(#filter0_d_617_2144)">
<path d="M12.412 19.2704C12.412 20.4846 11.4202 21.4764 10.206 21.4764C8.99183 21.4764 7.99998 20.4846 7.99998 19.2704C7.99998 18.0563 8.99183 17.0644 10.206 17.0644H12.412V19.2704Z" fill="#E01E5A"/>
<path d="M13.5235 19.2704C13.5235 18.0563 14.5154 17.0644 15.7295 17.0644C16.9437 17.0644 17.9356 18.0563 17.9356 19.2704V24.794C17.9356 26.0082 16.9437 27 15.7295 27C14.5154 27 13.5235 26.0082 13.5235 24.794V19.2704Z" fill="#E01E5A"/>
<path d="M15.7295 10.412C14.5154 10.412 13.5235 9.42017 13.5235 8.206C13.5235 6.99184 14.5154 5.99998 15.7295 5.99998C16.9437 5.99998 17.9356 6.99184 17.9356 8.206V10.412H15.7295Z" fill="#36C5F0"/>
<path d="M15.7296 11.5234C16.9438 11.5234 17.9356 12.5153 17.9356 13.7294C17.9356 14.9436 16.9438 15.9354 15.7296 15.9354H10.206C8.99183 15.9354 7.99998 14.9436 7.99998 13.7294C7.99998 12.5153 8.99183 11.5234 10.206 11.5234H15.7296Z" fill="#36C5F0"/>
<path d="M24.588 13.7294C24.588 12.5153 25.5799 11.5234 26.794 11.5234C28.0082 11.5234 29 12.5153 29 13.7294C29 14.9436 28.0082 15.9354 26.794 15.9354H24.588V13.7294Z" fill="#2EB67D"/>
<path d="M23.4763 13.7296C23.4763 14.9438 22.4845 15.9356 21.2703 15.9356C20.0561 15.9356 19.0643 14.9438 19.0643 13.7296V8.206C19.0643 6.99184 20.0561 5.99998 21.2703 5.99998C22.4845 5.99998 23.4763 6.99184 23.4763 8.206V13.7296Z" fill="#2EB67D"/>
<path d="M21.2703 22.5878C22.4845 22.5878 23.4763 23.5797 23.4763 24.7938C23.4763 26.008 22.4845 26.9999 21.2703 26.9999C20.0561 26.9999 19.0643 26.008 19.0643 24.7938V22.5878H21.2703Z" fill="#ECB22E"/>
<path d="M21.2703 21.4764C20.0561 21.4764 19.0643 20.4846 19.0643 19.2704C19.0643 18.0563 20.0561 17.0644 21.2703 17.0644H26.7939C28.0081 17.0644 28.9999 18.0563 28.9999 19.2704C28.9999 20.4846 28.0081 21.4764 26.7939 21.4764H21.2703Z" fill="#ECB22E"/>
</g>
<defs>
<filter id="filter0_d_617_2144" x="0" y="0" width="41" height="40.9999" filterUnits="userSpaceOnUse" color-interpolation-filters="sRGB">
<feFlood flood-opacity="0" result="BackgroundImageFix"/>
<feColorMatrix in="SourceAlpha" type="matrix" values="0 0 0 0 0 0 0 0 0 0 0 0 0 0 0 0 0 0 127 0" result="hardAlpha"/>
<feOffset dx="2" dy="4"/>
<feGaussianBlur stdDeviation="5"/>
<feColorMatrix type="matrix" values="0 0 0 0 0 0 0 0 0 0 0 0 0 0 0 0 0 0 0.25 0"/>
<feBlend mode="normal" in2="BackgroundImageFix" result="effect1_dropShadow_617_2144"/>
<feBlend mode="normal" in="SourceGraphic" in2="effect1_dropShadow_617_2144" result="shape"/>
</filter>
</defs>
</svg>
