<svg width="40" height="40" viewBox="0 0 40 40" fill="none" xmlns="http://www.w3.org/2000/svg">
<path d="M31.5 10.0002C31.1667 9.00016 30.1667 8.3335 29.1667 8.3335H10.8333C9.66667 8.3335 8.83333 9.00016 8.5 10.0002L5 20.0002V33.3335C5 34.1668 5.83333 35.0002 6.66667 35.0002H8.33333C9.33333 35.0002 10 34.1668 10 33.3335V31.6668H30V33.3335C30 34.1668 30.8333 35.0002 31.6667 35.0002H33.3333C34.1667 35.0002 35 34.1668 35 33.3335V20.0002L31.5 10.0002ZM11.3333 11.6668H28.5L30.3333 16.6668H9.66667L11.3333 11.6668ZM31.6667 28.3335H8.33333V20.0002H31.6667V28.3335ZM12.5 21.6668C13.8333 21.6668 15 22.8335 15 24.1668C15 25.5002 13.8333 26.6668 12.5 26.6668C11.1667 26.6668 10 25.5002 10 24.1668C10 22.8335 11.1667 21.6668 12.5 21.6668ZM27.5 21.6668C28.8333 21.6668 30 22.8335 30 24.1668C30 25.5002 28.8333 26.6668 27.5 26.6668C26.1667 26.6668 25 25.5002 25 24.1668C25 22.8335 26.1667 21.6668 27.5 21.6668Z" fill="#6A6A6A"/>
</svg>
