<svg width="18" height="19" viewBox="0 0 18 19" fill="none" xmlns="http://www.w3.org/2000/svg">
<path fill-rule="evenodd" clip-rule="evenodd" d="M16.9601 10.9705C17.299 11.1505 17.5604 11.4347 17.7443 11.7189C18.1025 12.3063 18.0735 13.0263 17.725 13.661L17.0472 14.7979C16.689 15.4042 16.021 15.7831 15.3336 15.7831C14.9947 15.7831 14.6171 15.6884 14.3073 15.4989C14.0556 15.3379 13.7651 15.281 13.4553 15.281C12.4968 15.281 11.6933 16.0674 11.6642 17.0053C11.6642 18.0947 10.7735 18.9474 9.66011 18.9474H8.3434C7.22032 18.9474 6.3296 18.0947 6.3296 17.0053C6.31024 16.0674 5.50666 15.281 4.54817 15.281C4.22868 15.281 3.93823 15.3379 3.69618 15.4989C3.38637 15.6884 2.9991 15.7831 2.66992 15.7831C1.97284 15.7831 1.3048 15.4042 0.946582 14.7979L0.278545 13.661C-0.0796778 13.0453 -0.0990412 12.3063 0.259181 11.7189C0.414089 11.4347 0.704539 11.1505 1.03372 10.9705C1.3048 10.8379 1.47907 10.62 1.64366 10.3642C2.12775 9.54947 1.8373 8.47894 1.01435 7.99578C0.0558659 7.45578 -0.253948 6.25263 0.297908 5.31473L0.946582 4.19684C1.50812 3.25894 2.70865 2.92737 3.67682 3.47684C4.51913 3.93158 5.61316 3.62842 6.10692 2.82316C6.26183 2.55789 6.34897 2.27368 6.3296 1.98947C6.31024 1.62 6.41674 1.26947 6.60069 0.985262C6.95891 0.397894 7.60759 0.0189474 8.31435 0H9.67947C10.3959 0 11.0446 0.397894 11.4028 0.985262C11.5771 1.26947 11.6933 1.62 11.6642 1.98947C11.6449 2.27368 11.732 2.55789 11.8869 2.82316C12.3807 3.62842 13.4747 3.93158 14.3267 3.47684C15.2852 2.92737 16.4954 3.25894 17.0472 4.19684L17.6959 5.31473C18.2575 6.25263 17.9476 7.45578 16.9795 7.99578C16.1565 8.47894 15.8661 9.54947 16.3598 10.3642C16.5147 10.62 16.689 10.8379 16.9601 10.9705ZM6.26182 9.48332C6.26182 10.9707 7.4914 12.1549 9.01143 12.1549C10.5315 12.1549 11.732 10.9707 11.732 9.48332C11.732 7.99595 10.5315 6.80227 9.01143 6.80227C7.4914 6.80227 6.26182 7.99595 6.26182 9.48332Z" fill="#A8A8AA"/>
</svg>
