<svg width="278" height="193" viewBox="0 0 278 193" fill="none" xmlns="http://www.w3.org/2000/svg">
<path d="M278 182.034H0V182.173H278V182.034Z" fill="#EBEBEB"/>
<path d="M250.144 190.98H231.73V191.119H250.144V190.98Z" fill="#EBEBEB"/>
<path d="M184.158 192.493H179.327V192.632H184.158V192.493Z" fill="#EBEBEB"/>
<path d="M231.174 185.821H220.504V185.96H231.174V185.821Z" fill="#EBEBEB"/>
<path d="M53.1814 186.755H29.1678V186.894H53.1814V186.755Z" fill="#EBEBEB"/>
<path d="M61.6548 186.755H58.1354V186.894H61.6548V186.755Z" fill="#EBEBEB"/>
<path d="M125.183 189.101H73.0973V189.24H125.183V189.101Z" fill="#EBEBEB"/>
<path d="M131.772 157.237H24.414C23.5729 157.235 22.7668 156.9 22.1727 156.305C21.5785 155.71 21.2447 154.903 21.2448 154.062V3.14696C21.2521 2.31075 21.589 1.5112 22.1824 0.92197C22.7758 0.332743 23.5777 0.00143247 24.414 0H131.772C132.614 0 133.422 0.334483 134.017 0.929866C134.612 1.52525 134.947 2.33276 134.947 3.17476V154.062C134.947 154.904 134.612 155.712 134.017 156.307C133.422 156.902 132.614 157.237 131.772 157.237ZM24.414 0.1112C23.6098 0.112673 22.8391 0.43316 22.2709 1.00232C21.7028 1.57147 21.3837 2.34279 21.3838 3.14696V154.062C21.3837 154.866 21.7028 155.638 22.2709 156.207C22.8391 156.776 23.6098 157.096 24.414 157.098H131.772C132.577 157.096 133.348 156.776 133.917 156.207C134.486 155.638 134.806 154.867 134.808 154.062V3.14696C134.806 2.34228 134.486 1.57097 133.917 1.00198C133.348 0.43298 132.577 0.11267 131.772 0.1112H24.414Z" fill="#EBEBEB"/>
<path d="M252.04 157.237H144.677C143.835 157.235 143.029 156.9 142.433 156.305C141.838 155.71 141.503 154.904 141.502 154.062V3.14696C141.511 2.31024 141.849 1.51069 142.443 0.921622C143.038 0.332548 143.84 0.00141685 144.677 0H252.04C252.876 0.0028937 253.676 0.334851 254.268 0.923921C254.861 1.51299 255.197 2.31171 255.204 3.14696V154.062C255.204 154.902 254.871 155.708 254.278 156.303C253.685 156.898 252.88 157.234 252.04 157.237ZM144.677 0.1112C143.872 0.11267 143.101 0.43298 142.532 1.00198C141.963 1.57097 141.642 2.34228 141.641 3.14696V154.062C141.642 154.867 141.963 155.638 142.532 156.207C143.101 156.776 143.872 157.096 144.677 157.098H252.04C252.845 157.096 253.616 156.776 254.185 156.207C254.754 155.638 255.075 154.867 255.076 154.062V3.14696C255.075 2.34228 254.754 1.57097 254.185 1.00198C253.616 0.43298 252.845 0.11267 252.04 0.1112H144.677Z" fill="#EBEBEB"/>
<path d="M170.648 138.872H175.335H178.432L169.763 146.044H168.173H166.756L168.779 142.97L162.875 146.044H161.451H159.772L170.648 138.872Z" fill="#E0E0E0"/>
<path d="M232.08 146.044H228.972L222.083 142.458L225.091 146.044H222.083L213.421 138.872H221.199L232.08 146.044Z" fill="#E0E0E0"/>
<path d="M223.679 146.044L216.512 138.872H221.199L232.08 146.044H230.395L222.083 141.469L225.091 146.044H223.679Z" fill="#F0F0F0"/>
<path d="M143.153 146.039V180.061H247.915V146.039H143.153ZM144.866 148.263H228.972V159.383H144.866V148.263Z" fill="#E0E0E0"/>
<path d="M143.153 146.039V180.061H231.263V146.039H143.153ZM144.866 148.263H228.972V159.383H144.866V148.263Z" fill="#EBEBEB"/>
<path d="M144.866 159.366H160.2V148.252H144.866V159.366Z" fill="#E0E0E0"/>
<path d="M206.771 159.366H228.977V153.806H206.771V159.366Z" fill="#E0E0E0"/>
<path d="M191.086 159.361H205.37V156.058H191.086V159.361Z" fill="#E0E0E0"/>
<path d="M170.942 159.366H187.783V152.611H170.942V159.366Z" fill="#E0E0E0"/>
<path d="M212.253 161.785L212.664 163.113H218.124L218.53 161.785H228.972V176.541H201.811V161.785H212.253Z" fill="#E0E0E0"/>
<path d="M183.819 161.785L184.225 163.113H189.685L190.091 161.785H200.538V176.541H173.372V161.785H183.819Z" fill="#E0E0E0"/>
<path d="M155.38 161.785L155.786 163.113H161.251L161.657 161.785H172.099V176.541H144.938V161.785H155.38Z" fill="#E0E0E0"/>
<path d="M161.607 139.823H233.77C234.854 139.823 235.733 138.944 235.733 137.86V95.8098C235.733 94.7258 234.854 93.8471 233.77 93.8471H161.607C160.523 93.8471 159.644 94.7258 159.644 95.8098V137.86C159.644 138.944 160.523 139.823 161.607 139.823Z" fill="#E0E0E0"/>
<path d="M159.822 139.823H231.985C233.069 139.823 233.948 138.944 233.948 137.86V95.8098C233.948 94.7258 233.069 93.8471 231.985 93.8471H159.822C158.738 93.8471 157.86 94.7258 157.86 95.8098V137.86C157.86 138.944 158.738 139.823 159.822 139.823Z" fill="#E6E6E6"/>
<path d="M231.713 137.582V96.0767H160.095V137.582H231.713Z" fill="#F0F0F0"/>
<path d="M207.34 34.4278C208.676 28.7674 205.17 23.0957 199.51 21.7598C193.849 20.4238 188.177 23.9294 186.842 29.5898C185.506 35.2502 189.011 40.9219 194.672 42.2579C200.332 43.5938 206.004 40.0882 207.34 34.4278Z" fill="#E0E0E0"/>
<path d="M205.887 33.7091C206.822 28.8545 203.645 24.1611 198.79 23.2263C193.935 22.2914 189.242 25.469 188.307 30.3237C187.372 35.1783 190.55 39.8716 195.404 40.8065C200.259 41.7413 204.952 38.5637 205.887 33.7091Z" fill="#F0F0F0"/>
<path d="M196.674 25.8706V32.1312L192.526 29.7848" fill="#F0F0F0"/>
<path d="M196.674 32.687C196.578 32.6867 196.485 32.6618 196.401 32.6147L192.254 30.2684C192.126 30.196 192.031 30.0757 191.992 29.934C191.952 29.7923 191.97 29.6406 192.042 29.5123C192.078 29.4481 192.126 29.3916 192.184 29.3462C192.242 29.3008 192.308 29.2673 192.379 29.2477C192.45 29.228 192.524 29.2226 192.597 29.2318C192.67 29.2409 192.74 29.2644 192.804 29.301L196.14 31.1803V25.8705C196.14 25.723 196.199 25.5816 196.303 25.4773C196.407 25.373 196.549 25.3145 196.696 25.3145C196.844 25.3145 196.985 25.373 197.089 25.4773C197.194 25.5816 197.252 25.723 197.252 25.8705V32.131C197.252 32.2275 197.227 32.3223 197.179 32.4062C197.131 32.49 197.063 32.56 196.98 32.6092C196.888 32.666 196.781 32.6932 196.674 32.687Z" fill="#E0E0E0"/>
<path d="M43.368 40.7046C43.368 40.7046 42.8565 37.3686 45.3029 35.2113C47.7493 33.054 47.5269 31.7808 46.8319 31.614C46.1369 31.4472 45.4864 33.5989 44.4133 34.1882C44.4133 34.1882 44.3799 31.1302 45.4697 30.0016C46.5595 28.8729 47.1377 25.965 46.098 25.915C45.0583 25.8649 44.9526 27.6441 44.7358 28.9007C44.4442 29.9772 43.9824 31.0001 43.368 31.9309C43.368 31.9309 43.1401 29.1954 42.4339 28.0389C41.7278 26.8824 43.6071 24.3359 42.8843 23.2072C42.1615 22.0786 40.8716 24.2247 40.9772 26.6433C41.0829 29.0619 42.6953 31.6473 42.3227 34.1604C42.3227 34.1604 41.6111 32.3868 40.9717 32.2256C40.3323 32.0643 39.6873 30.8967 39.2592 30.4575C38.8311 30.0182 38.2917 31.5306 39.2592 32.9261C40.2266 34.3217 42.6953 38.058 42.3227 41.0771L43.368 40.7046Z" fill="#E6E6E6"/>
<path d="M44.847 39.1812L45.6476 44.1852C45.7063 44.5498 45.6852 44.9229 45.5857 45.2787C45.4862 45.6344 45.3106 45.9643 45.0711 46.2455C44.8316 46.5268 44.5339 46.7527 44.1986 46.9077C43.8633 47.0626 43.4983 47.1429 43.1289 47.1431H42.256C41.8866 47.1429 41.5216 47.0626 41.1863 46.9077C40.851 46.7527 40.5533 46.5268 40.3138 46.2455C40.0743 45.9643 39.8988 45.6344 39.7992 45.2787C39.6997 44.9229 39.6786 44.5498 39.7373 44.1852L40.538 39.1812H44.847Z" fill="#E6E6E6"/>
<path d="M32.7484 48.2163L89.3047 48.2163V45.3084L32.7484 45.3084V48.2163Z" fill="#E0E0E0"/>
<path d="M84.2118 45.3027H86.7026V34.5886H84.2118V45.3027Z" fill="#EBEBEB"/>
<path d="M72.1577 45.3027H74.6486V34.5886H72.1577V45.3027Z" fill="#EBEBEB"/>
<path d="M56.6678 44.883L59.1224 45.3062L60.9424 34.7477L58.4877 34.3246L56.6678 44.883Z" fill="#EBEBEB"/>
<path d="M81.126 45.3027H83.6169V36.0009H81.126V45.3027Z" fill="#EBEBEB"/>
<path d="M75.3936 45.3027H77.8845V36.0009H75.3936V45.3027Z" fill="#EBEBEB"/>
<path d="M60.9432 45.3027H63.434V36.0009H60.9432V45.3027Z" fill="#EBEBEB"/>
<path d="M66.8769 44.7628L69.3085 45.3032L71.3265 36.2229L68.895 35.6825L66.8769 44.7628Z" fill="#EBEBEB"/>
<path d="M78.9631 45.3086H80.2086V34.0663H78.9631V45.3086Z" fill="#EBEBEB"/>
<path d="M64.1457 45.3086H65.3912V34.0663H64.1457V45.3086Z" fill="#EBEBEB"/>
<path d="M89.3047 66.998H32.7484V69.9059H89.3047V66.998Z" fill="#E0E0E0"/>
<path d="M37.8413 56.2896H35.3505V67.0037H37.8413V56.2896Z" fill="#EBEBEB"/>
<path d="M49.8899 56.2896H47.399V67.0037H49.8899V56.2896Z" fill="#EBEBEB"/>
<path d="M63.5693 56.0217L61.1146 56.4448L62.9346 67.0032L65.3892 66.5801L63.5693 56.0217Z" fill="#EBEBEB"/>
<path d="M40.9272 57.7017H38.4363V67.0035H40.9272V57.7017Z" fill="#EBEBEB"/>
<path d="M46.654 57.7017H44.1631V67.0035H46.654V57.7017Z" fill="#EBEBEB"/>
<path d="M61.11 57.7017H58.6191V67.0035H61.11V57.7017Z" fill="#EBEBEB"/>
<path d="M53.1663 57.3776L50.7347 57.918L52.7528 66.9983L55.1843 66.4579L53.1663 57.3776Z" fill="#EBEBEB"/>
<path d="M43.0844 55.7559H41.839V66.9982H43.0844V55.7559Z" fill="#EBEBEB"/>
<path d="M57.9018 55.7559H56.6564V66.9982H57.9018V55.7559Z" fill="#EBEBEB"/>
<path d="M83.8782 58.519H71.7351V66.898H83.8782V58.519Z" fill="#EBEBEB"/>
</svg>
