<svg width="40" height="40" viewBox="0 0 40 40" fill="none" xmlns="http://www.w3.org/2000/svg">
<path d="M34.4333 33.3332L23.1167 6.34984C22.5 4.94984 21.55 3.8165 20.2667 2.94984C19 2.09984 17.5833 1.6665 16.0167 1.6665C14.6167 1.6665 13.3333 2.0165 12.1667 2.7165C11 3.4165 10.0667 4.3665 9.38332 5.53317C8.69999 6.69984 8.33332 7.99984 8.33332 9.39984L8.38332 14.9998H3.38332V24.0832C4.41666 23.6165 5.51666 23.3832 6.66666 23.3832V18.3832H15C15.95 18.3832 16.7333 18.7165 17.3833 19.3665C18.0333 19.9998 18.3333 20.7832 18.3333 21.6665V33.3832H14.85C14.5945 34.586 14.0576 35.7112 13.2833 36.6665H21.6667V21.6665C21.6667 20.4665 21.3333 19.3665 20.75 18.3332C20.1667 17.2998 19.35 16.5165 18.3333 15.9332C17.3667 15.3332 16.25 14.9998 15 14.9998H11.6667V9.39984C11.6667 8.19984 12.0833 7.18317 12.9333 6.3165C13.7833 5.44984 14.8167 4.99984 16.0167 4.99984C16.9 4.99984 17.7167 5.2665 18.4333 5.7665C19.15 6.2665 19.6833 6.89984 20 7.68317L30.7667 33.3332L26.6667 33.3832V36.6665H38.3333V33.3832L34.4333 33.3332ZM6.66666 29.9998C7.58332 29.9998 8.33332 30.7498 8.33332 31.6665C8.33332 32.5832 7.58332 33.3332 6.66666 33.3332C5.74999 33.3332 4.99999 32.5832 4.99999 31.6665C4.99999 30.7498 5.74999 29.9998 6.66666 29.9998ZM6.66666 26.6665C3.89999 26.6665 1.66666 28.8998 1.66666 31.6665C1.66666 34.4332 3.89999 36.6665 6.66666 36.6665C9.43332 36.6665 11.6667 34.4332 11.6667 31.6665C11.6667 28.8998 9.43332 26.6665 6.66666 26.6665Z" fill="#6A6A6A"/>
</svg>
