<svg width="209" height="65" viewBox="0 0 209 65" fill="none" xmlns="http://www.w3.org/2000/svg">
<path d="M47.1126 34.9657L22.7476 33.5992C22.3814 33.5786 22.0679 33.8588 22.0473 34.225L21.2749 47.9983C21.2543 48.3644 21.5345 48.6779 21.9007 48.6985L46.2658 50.065C46.6319 50.0855 46.9454 49.8053 46.966 49.4391L47.7384 35.6659C47.759 35.2997 47.4788 34.9862 47.1126 34.9657Z" fill="#263238"/>
<path opacity="0.5" d="M47.1126 34.9657L22.7476 33.5992C22.3814 33.5786 22.0679 33.8588 22.0473 34.225L21.2749 47.9983C21.2543 48.3644 21.5345 48.6779 21.9007 48.6985L46.2658 50.065C46.6319 50.0855 46.9454 49.8053 46.966 49.4391L47.7384 35.6659C47.759 35.2997 47.4788 34.9862 47.1126 34.9657Z" fill="white"/>
<path opacity="0.2" d="M37.7466 42.8208L36.9876 42.2628L37.8024 41.7884C38.8627 41.169 39.9341 40.5607 40.9833 39.9246L44.1474 38.0328C45.1853 37.3799 46.24 36.7493 47.278 36.0852C46.1619 36.6433 45.1016 37.2292 44.0134 37.804L40.7824 39.5674C39.6997 40.1534 38.6339 40.7672 37.568 41.3643L36.5524 41.9224L36.0725 42.2014L35.9608 42.2572L35.1573 42.7092C34.9414 42.8481 34.6884 42.9182 34.4318 42.9101C34.1722 42.8935 33.9244 42.7959 33.7231 42.6311L32.9809 42.0731L32.8804 42.0061L32.434 41.6768L31.4853 40.996C30.4864 40.2817 29.5043 39.5507 28.4886 38.8531C26.4834 37.432 24.4632 36.035 22.4282 34.6622C24.3423 36.2024 26.2955 37.6924 28.2542 39.1824C29.2252 39.9302 30.213 40.6556 31.2007 41.3867L31.9541 41.9447L31.1393 42.419C30.079 43.0385 29.0076 43.6412 27.9641 44.2829L24.8055 46.1747C23.7564 46.822 22.7073 47.4582 21.6749 48.1167C22.791 47.5586 23.8457 47.0006 24.9339 46.4035L28.1705 44.6345C29.2476 44.0764 30.3078 43.4347 31.3849 42.8376L32.4005 42.2795L32.6795 42.4916L33.4162 43.0496C33.6932 43.2822 34.0381 43.4187 34.3993 43.4388C34.7604 43.4589 35.1184 43.3615 35.4195 43.1612L36.212 42.6981L36.5189 42.5251L37.462 43.2003C38.4609 43.9146 39.4486 44.6512 40.4531 45.3488C42.4621 46.7606 44.471 48.1725 46.5191 49.5397C44.605 47.9995 42.6518 46.5039 40.6987 45.0195C39.7556 44.2662 38.7288 43.5519 37.7466 42.8208Z" fill="black"/>
<path d="M157.476 9.76628L135.088 0.0550048C134.752 -0.0909461 134.36 0.0634982 134.215 0.399965L128.725 13.0555C128.579 13.392 128.733 13.783 129.07 13.929L151.458 23.6403C151.794 23.7862 152.185 23.6318 152.331 23.2953L157.821 10.6398C157.967 10.3033 157.812 9.91223 157.476 9.76628Z" fill="#263238"/>
<path opacity="0.5" d="M157.476 9.76628L135.088 0.0550048C134.752 -0.0909461 134.36 0.0634982 134.215 0.399965L128.725 13.0555C128.579 13.392 128.733 13.783 129.07 13.929L151.458 23.6403C151.794 23.7862 152.185 23.6318 152.331 23.2953L157.821 10.6398C157.967 10.3033 157.812 9.91223 157.476 9.76628Z" fill="white"/>
<path opacity="0.2" d="M145.985 13.8919L145.466 13.1051L146.398 12.9377C147.609 12.7256 148.82 12.5247 150.025 12.2904L153.647 11.6095C154.852 11.3528 156.058 11.1296 157.258 10.8673C156.041 11.0124 154.825 11.1854 153.602 11.3473L149.958 11.9053C148.742 12.0839 147.531 12.2904 146.32 12.4633L145.17 12.6419L144.612 12.7368H144.484L143.574 12.8819C143.324 12.9444 143.06 12.9238 142.823 12.8231C142.585 12.7224 142.387 12.5472 142.257 12.3238L141.75 11.5593L141.677 11.4589L141.37 10.9957L140.762 10.0358C140.07 9.02021 139.4 7.99341 138.691 6.98892C137.302 4.96322 135.901 2.94866 134.456 0.962022C135.723 3.06585 137.034 5.14178 138.362 7.21771C139.015 8.25567 139.696 9.27691 140.366 10.3037L140.879 11.0961L139.947 11.258C138.742 11.47 137.531 11.6653 136.325 11.9053L132.704 12.5917C131.498 12.8372 130.293 13.066 129.093 13.3339C130.315 13.1832 131.532 13.0102 132.748 12.8484L136.398 12.2904C137.609 12.1229 138.82 11.9053 140.031 11.7323L141.18 11.5481L141.376 11.8383L141.878 12.6084C142.057 12.9236 142.333 13.1723 142.665 13.3172C142.996 13.4567 143.363 13.4879 143.714 13.4064L144.623 13.2502L144.964 13.1888L145.617 14.1542C146.309 15.1643 146.978 16.1967 147.687 17.2012C149.082 19.2213 150.477 21.2414 151.928 23.228C150.662 21.1242 149.345 19.0483 148.022 16.9779C147.341 15.94 146.655 14.9187 145.985 13.8919Z" fill="black"/>
<path d="M132.185 5.92658L108.071 9.66837C107.708 9.7246 107.46 10.064 107.516 10.4264L109.631 24.0582C109.688 24.4206 110.027 24.6688 110.389 24.6126L134.504 20.8708C134.867 20.8146 135.115 20.4752 135.058 20.1127L132.943 6.48098C132.887 6.11856 132.548 5.87035 132.185 5.92658Z" fill="#263238"/>
<path opacity="0.5" d="M132.185 5.92658L108.071 9.66837C107.708 9.7246 107.46 10.064 107.516 10.4264L109.631 24.0582C109.688 24.4206 110.027 24.6688 110.389 24.6126L134.504 20.8708C134.867 20.8146 135.115 20.4752 135.058 20.1127L132.943 6.48098C132.887 6.11856 132.548 5.87035 132.185 5.92658Z" fill="white"/>
<path opacity="0.2" d="M124.685 15.5328L123.831 15.1422L124.528 14.506C125.438 13.6801 126.353 12.8654 127.252 12.0227L129.947 9.51151C130.829 8.6577 131.727 7.83738 132.603 6.95567C131.649 7.73136 130.717 8.52935 129.768 9.31619L126.978 11.7158C126.041 12.5138 125.131 13.3341 124.188 14.1489L123.312 14.9134L122.899 15.2873L122.804 15.3654L122.112 15.9737C121.931 16.157 121.696 16.2782 121.442 16.3197C121.186 16.3579 120.925 16.3149 120.694 16.1969L119.852 15.823L119.74 15.7784L119.232 15.544L118.167 15.0808C117.05 14.5897 115.934 14.0819 114.79 13.6076C112.558 12.6366 110.27 11.6823 107.988 10.7727C110.181 11.8888 112.402 12.9323 114.623 13.9815C115.739 14.5116 116.855 15.0083 117.971 15.5217L118.831 15.9179L118.133 16.5485C117.223 17.3744 116.303 18.1891 115.415 19.0318L112.72 21.543C111.833 22.3968 110.934 23.2171 110.064 24.0988C111.018 23.3231 111.95 22.5251 112.893 21.7383L115.683 19.3331C116.615 18.5407 117.525 17.7148 118.473 16.9112L119.35 16.1411L119.668 16.2862L120.505 16.6712C120.824 16.8407 121.189 16.9024 121.546 16.8471C121.903 16.7917 122.233 16.6224 122.486 16.3643L123.167 15.7449L123.429 15.5105L124.489 15.9737C125.605 16.4648 126.721 16.9782 127.865 17.4469C130.125 18.4123 132.386 19.3722 134.674 20.2818C132.475 19.1657 130.259 18.1222 128.033 17.0786C126.928 16.5485 125.801 16.0462 124.685 15.5328Z" fill="black"/>
<path d="M76.6903 12.1561L53.657 4.09442C53.3108 3.97326 52.932 4.15567 52.8108 4.50184L48.2537 17.5223C48.1325 17.8684 48.315 18.2473 48.6611 18.3684L71.6944 26.4301C72.0406 26.5512 72.4194 26.3688 72.5406 26.0226L77.0977 13.0022C77.2189 12.6561 77.0365 12.2772 76.6903 12.1561Z" fill="#263238"/>
<path opacity="0.5" d="M76.6903 12.1561L53.657 4.09442C53.3108 3.97326 52.932 4.15567 52.8108 4.50184L48.2537 17.5223C48.1325 17.8684 48.315 18.2473 48.6611 18.3684L71.6944 26.4301C72.0406 26.5512 72.4194 26.3688 72.5406 26.0226L77.0977 13.0022C77.2189 12.6561 77.0365 12.2772 76.6903 12.1561Z" fill="white"/>
<path opacity="0.2" d="M65.5484 17.1006L64.9904 16.3472L65.9111 16.1184C67.0998 15.8171 68.294 15.5269 69.4826 15.2088L73.043 14.2657C74.2204 13.9253 75.4091 13.6128 76.5921 13.2613C75.3868 13.4956 74.187 13.7579 72.9816 14.009L69.3822 14.807C68.1824 15.0693 66.9938 15.3651 65.794 15.6497L64.6779 15.912L64.1198 16.0459L63.9971 16.0738L63.0986 16.2803C62.854 16.3612 62.5898 16.3612 62.3452 16.2803C62.1021 16.1932 61.893 16.031 61.7481 15.8171L61.1901 15.0916L61.112 14.9968L60.7771 14.5559L60.0573 13.6407C59.2927 12.6753 58.5505 11.7043 57.7693 10.75C56.2346 8.83037 54.6889 6.92743 53.104 5.04682C54.5214 7.05578 55.9835 9.03127 57.4512 11.0012C58.1766 11.9889 58.93 12.9599 59.6834 13.9365L60.2414 14.6898L59.3262 14.9186C58.1376 15.22 56.9434 15.5046 55.7603 15.8283L52.2 16.7714C51.0169 17.1062 49.8283 17.4243 48.6508 17.7758C49.8562 17.5415 51.056 17.2792 52.2614 17.0281L55.8608 16.2245C57.055 15.9678 58.2436 15.6664 59.4434 15.3874L60.5595 15.1251L60.7716 15.4041L61.3296 16.1352C61.5318 16.4342 61.8252 16.6599 62.1661 16.7786C62.5071 16.8973 62.8772 16.9025 63.2214 16.7937L64.1142 16.5705L64.4546 16.4868L65.1745 17.4019C65.9335 18.3618 66.6813 19.3384 67.4569 20.287C68.9971 22.2067 70.5318 24.1152 72.1278 25.9959C70.7103 23.9869 69.2483 22.0114 67.7806 20.0415C67.0496 19.0482 66.2906 18.0772 65.5484 17.1006Z" fill="black"/>
<path d="M74.2944 42.0009L51.3552 33.9478C51.0105 33.8267 50.6329 34.0081 50.5119 34.3528L45.9596 47.32C45.8385 47.6648 46.0199 48.0424 46.3646 48.1634L69.3038 56.2165C69.6485 56.3375 70.0261 56.1562 70.1471 55.8114L74.6995 42.8442C74.8205 42.4995 74.6391 42.1219 74.2944 42.0009Z" fill="#263238"/>
<path opacity="0.5" d="M74.2944 42.0009L51.3552 33.9478C51.0105 33.8267 50.6329 34.0081 50.5119 34.3528L45.9596 47.32C45.8385 47.6648 46.0199 48.0424 46.3646 48.1634L69.3038 56.2165C69.6485 56.3375 70.0261 56.1562 70.1471 55.8114L74.6995 42.8442C74.8205 42.4995 74.6391 42.1219 74.2944 42.0009Z" fill="white"/>
<path opacity="0.2" d="M63.4836 47.7709L62.9256 47.0231L63.8464 46.7887C65.035 46.4874 66.2292 46.2307 67.4179 45.8847L70.9782 44.936C72.1613 44.6012 73.3499 44.2887 74.5274 43.9371C73.322 44.1715 72.1222 44.4338 70.9168 44.6849L67.3174 45.4829C66.1232 45.7452 64.929 46.041 63.7348 46.32L62.6187 46.5878L62.0606 46.7218H61.9434L61.045 46.9338C60.7981 47.0126 60.5323 47.0089 60.2877 46.9234C60.043 46.8378 59.8329 46.675 59.6889 46.4595L59.1309 45.734L59.0472 45.6392L58.7124 45.2039L57.9925 44.2887C57.228 43.3233 56.4858 42.3467 55.7045 41.398C54.1754 39.4783 52.6241 37.5698 51.0392 35.6948C52.4567 37.7038 53.9187 39.6792 55.3864 41.6491C56.1119 42.6369 56.8652 43.6079 57.6186 44.5845L58.1766 45.3378L57.2614 45.5666C56.0728 45.8624 54.8786 46.1247 53.6955 46.4762L50.1352 47.4193C48.9521 47.7486 47.7635 48.0722 46.586 48.4182C47.7914 48.1894 48.9912 47.9216 50.1966 47.6705L53.796 46.8725C54.9902 46.6102 56.1844 46.3144 57.3786 46.0354L58.4947 45.7675L58.7068 46.0465L59.2648 46.7776C59.4699 47.075 59.7625 47.3012 60.1019 47.4249C60.4447 47.5362 60.8138 47.5362 61.1566 47.4249L62.0495 47.2017L62.3899 47.118L63.1098 48.0276C63.8687 48.9874 64.6165 49.9696 65.3922 50.9183C66.9324 52.8324 68.4726 54.7465 70.063 56.6215C68.6456 54.6125 67.1835 52.6426 65.7158 50.6672C64.9848 49.7185 64.2258 48.7307 63.4836 47.7709Z" fill="black"/>
<path d="M152.132 11.2232L130.169 21.8596C129.839 22.0195 129.7 22.4166 129.86 22.7467L135.873 35.1623C136.033 35.4924 136.43 35.6304 136.76 35.4706L158.723 24.8341C159.054 24.6743 159.192 24.2771 159.032 23.947L153.019 11.5314C152.859 11.2013 152.462 11.0633 152.132 11.2232Z" fill="#263238"/>
<path opacity="0.5" d="M152.132 11.2232L130.169 21.8596C129.839 22.0195 129.7 22.4166 129.86 22.7467L135.873 35.1623C136.033 35.4924 136.43 35.6304 136.76 35.4706L158.723 24.8341C159.054 24.6743 159.192 24.2771 159.032 23.947L153.019 11.5314C152.859 11.2013 152.462 11.0633 152.132 11.2232Z" fill="white"/>
<path opacity="0.2" d="M147.776 22.603L146.839 22.4802L147.324 21.6655C147.949 20.6108 148.591 19.5617 149.199 18.4958L151.041 15.3038C151.638 14.2268 152.252 13.1665 152.838 12.0838C152.152 13.1051 151.493 14.1375 150.818 15.1698L148.848 18.2782C148.189 19.3161 147.553 20.3708 146.911 21.4144L146.303 22.4077L146.019 22.882L145.946 22.9825L145.466 23.7693C145.346 24.0112 145.15 24.2072 144.908 24.3274C144.674 24.4389 144.409 24.4722 144.155 24.4222L143.245 24.3162H143.122L142.564 24.2437L141.409 24.1097C140.187 23.9702 138.97 23.8084 137.748 23.6912C135.31 23.4233 132.865 23.1722 130.416 22.9713C132.838 23.3843 135.265 23.7414 137.698 24.0874C138.915 24.2716 140.131 24.4222 141.348 24.5841L142.285 24.7124L141.8 25.5216C141.175 26.5763 140.533 27.6198 139.93 28.6913L138.083 31.8833C137.486 32.9548 136.878 34.0206 136.292 35.1032C136.978 34.082 137.637 33.044 138.312 32.0172L140.276 28.8978C140.94 27.8654 141.565 26.8107 142.218 25.7671L142.827 24.7794L143.173 24.824L144.088 24.9468C144.443 25.0074 144.808 24.9608 145.137 24.8129C145.459 24.6502 145.723 24.3906 145.89 24.0707L146.359 23.2838L146.543 22.9825L147.698 23.1164C148.915 23.2559 150.137 23.4122 151.353 23.535C153.798 23.7972 156.236 24.0539 158.692 24.2548C156.27 23.8363 153.837 23.4792 151.404 23.1387C150.215 22.9155 148.993 22.7648 147.776 22.603Z" fill="black"/>
<path d="M148.223 34.099L126.26 44.7355C125.93 44.8953 125.792 45.2925 125.952 45.6226L131.964 58.0382C132.124 58.3683 132.521 58.5063 132.851 58.3464L154.815 47.71C155.145 47.5501 155.283 47.1529 155.123 46.8229L149.11 34.4073C148.951 34.0772 148.553 33.9392 148.223 34.099Z" fill="#263238"/>
<path opacity="0.5" d="M148.223 34.099L126.26 44.7355C125.93 44.8953 125.792 45.2925 125.952 45.6226L131.964 58.0382C132.124 58.3683 132.521 58.5063 132.851 58.3464L154.815 47.71C155.145 47.5501 155.283 47.1529 155.123 46.8229L149.11 34.4073C148.951 34.0772 148.553 33.9392 148.223 34.099Z" fill="white"/>
<path opacity="0.2" d="M143.87 45.4774L142.933 45.3546L143.418 44.5399C144.043 43.4851 144.685 42.4304 145.293 41.3702L147.135 38.1781C147.726 37.1011 148.346 36.0408 148.932 34.9582C148.245 35.9739 147.587 37.0118 146.911 38.0442L144.942 41.1525C144.283 42.1905 143.647 43.2452 143.005 44.2887L142.391 45.2765L142.107 45.7508L142.04 45.8568L141.554 46.6437C141.431 46.8753 141.235 47.0598 140.996 47.1683C140.762 47.2817 140.498 47.3169 140.243 47.2687L139.333 47.1571H139.21L138.652 47.0901L137.497 46.9562C136.275 46.8111 135.059 46.6549 133.836 46.5377C131.392 46.2642 128.954 46.0187 126.504 45.8178C128.926 46.2307 131.353 46.5879 133.786 46.9339C135.003 47.1124 136.219 47.2631 137.436 47.4305L138.373 47.5533L137.888 48.3625C137.263 49.4228 136.621 50.4663 136.018 51.5322L134.171 54.7242C133.574 55.7956 132.966 56.8615 132.38 57.9441C133.066 56.9285 133.725 55.8905 134.4 54.8581L136.364 51.7442C137.028 50.7118 137.653 49.6571 138.306 48.6136L138.915 47.6258L139.261 47.6705L140.176 47.7877C140.531 47.8537 140.898 47.8068 141.225 47.6538C141.546 47.4916 141.809 47.2344 141.978 46.9171L142.447 46.1247L142.631 45.8234L143.781 45.9573C145.003 46.0968 146.219 46.2586 147.442 46.3814C149.886 46.6437 152.325 46.9004 154.78 47.0957C152.358 46.6828 149.925 46.3256 147.492 45.9796C146.309 45.7843 145.087 45.6392 143.87 45.4774Z" fill="black"/>
<path d="M119.849 21.8821L96.737 14.05C96.3896 13.9323 96.0126 14.1184 95.8949 14.4658L91.4675 27.5309C91.3498 27.8783 91.536 28.2553 91.8833 28.373L114.996 36.2051C115.343 36.3228 115.72 36.1366 115.838 35.7893L120.265 22.7242C120.383 22.3768 120.197 21.9998 119.849 21.8821Z" fill="#263238"/>
<path opacity="0.5" d="M119.849 21.8821L96.737 14.05C96.3896 13.9323 96.0126 14.1184 95.8949 14.4658L91.4675 27.5309C91.3498 27.8783 91.536 28.2553 91.8833 28.373L114.996 36.2051C115.343 36.3228 115.72 36.1366 115.838 35.7893L120.265 22.7242C120.383 22.3768 120.197 21.9998 119.849 21.8821Z" fill="white"/>
<path opacity="0.2" d="M108.736 26.9669L108.178 26.2247L109.093 25.9847C110.276 25.6722 111.47 25.3709 112.653 25.0416L116.208 24.0595C117.38 23.7135 118.568 23.3842 119.74 23.0271C118.54 23.2726 117.341 23.5461 116.141 23.8084L112.553 24.6398C111.353 24.9189 110.164 25.1979 108.976 25.516L107.859 25.795L107.301 25.9289L107.179 25.9568L106.286 26.18C106.041 26.2583 105.777 26.2583 105.532 26.18C105.285 26.0991 105.071 25.9381 104.924 25.7224L104.366 25.0026L104.282 24.9077L103.942 24.4724L103.211 23.5684C102.441 22.6086 101.687 21.6431 100.895 20.7C99.3511 18.799 97.7793 16.9128 96.1795 15.0415C97.6137 17.0393 99.0925 18.998 100.583 20.9512C101.319 21.9333 102.078 22.8987 102.815 23.8642L103.373 24.6119L102.458 24.8519C101.269 25.1644 100.08 25.4602 98.9028 25.795L95.3481 26.7772C94.165 27.1176 92.9875 27.4524 91.81 27.8095C93.0154 27.5696 94.2096 27.2906 95.415 27.0283L99.0033 26.1912C100.197 25.9178 101.386 25.6053 102.58 25.3207L103.696 25.0472L103.914 25.3207L104.472 26.0461C104.677 26.3433 104.972 26.5664 105.314 26.682C105.656 26.7977 106.026 26.7997 106.369 26.6879L107.279 26.4088L107.619 26.3196L108.345 27.2236C109.115 28.1778 109.874 29.1489 110.655 30.092C112.212 31.9893 113.775 33.8867 115.382 35.7505C113.948 33.7527 112.463 31.794 110.979 29.8408C110.253 28.8754 109.511 27.91 108.736 26.9669Z" fill="black"/>
<path d="M126.42 41.8836L103.308 34.0515C102.96 33.9338 102.583 34.12 102.466 34.4673L98.0383 47.5325C97.9206 47.8798 98.1068 48.2568 98.4542 48.3745L121.567 56.2066C121.914 56.3243 122.291 56.1382 122.409 55.7908L126.836 42.7257C126.954 42.3783 126.768 42.0013 126.42 41.8836Z" fill="#263238"/>
<path opacity="0.5" d="M126.42 41.8836L103.308 34.0515C102.96 33.9338 102.583 34.12 102.466 34.4673L98.0383 47.5325C97.9206 47.8798 98.1068 48.2568 98.4542 48.3745L121.567 56.2066C121.914 56.3243 122.291 56.1382 122.409 55.7908L126.836 42.7257C126.954 42.3783 126.768 42.0013 126.42 41.8836Z" fill="white"/>
<path opacity="0.2" d="M115.304 46.9449L114.746 46.2027L115.65 45.9404C116.838 45.6279 118.033 45.3265 119.21 44.9973L122.765 44.0151C123.942 43.6636 125.125 43.3399 126.303 42.9772C125.097 43.2227 123.903 43.5017 122.698 43.764L119.11 44.5955C117.915 44.8689 116.727 45.1536 115.533 45.4716L114.416 45.7451L113.858 45.8846L113.741 45.9125L112.843 46.1301C112.598 46.2124 112.333 46.2123 112.088 46.1296C111.843 46.047 111.632 45.8864 111.487 45.6725L110.929 44.9527L110.845 44.8578L110.505 44.4225L109.779 43.5185C109.003 42.5586 108.25 41.5932 107.463 40.6501C105.912 38.7472 104.344 36.8498 102.742 34.9915C104.176 36.9838 105.655 38.9481 107.145 40.9012C107.882 41.8834 108.641 42.8432 109.377 43.8142L109.935 44.562L109.02 44.802C107.837 45.1145 106.643 45.4047 105.465 45.7451L101.911 46.7272C100.733 47.0676 99.5501 47.3969 98.3726 47.7596C99.578 47.5141 100.772 47.2406 101.978 46.9784L105.566 46.1413C106.76 45.8678 107.949 45.5832 109.143 45.2707L110.259 44.9917L110.471 45.2707L111.029 45.9962C111.238 46.2893 111.533 46.5113 111.872 46.6324C112.216 46.7441 112.587 46.7441 112.932 46.6324L113.819 46.398L114.16 46.3143L114.891 47.2183C115.655 48.1726 116.414 49.1436 117.201 50.0811C118.758 51.984 120.315 53.8814 121.922 55.7453C120.488 53.7475 119.009 51.7887 117.519 49.83C116.822 48.8813 116.057 47.9159 115.304 46.9449Z" fill="black"/>
<path d="M102.011 3.26266L78.7384 10.6049C78.3886 10.7153 78.1945 11.0883 78.3049 11.438L82.4554 24.5937C82.5657 24.9435 82.9387 25.1376 83.2885 25.0272L106.561 17.685C106.911 17.5746 107.105 17.2016 106.995 16.8519L102.844 3.69616C102.734 3.3464 102.361 3.15231 102.011 3.26266Z" fill="#263238"/>
<path opacity="0.5" d="M102.011 3.26266L78.7384 10.6049C78.3886 10.7153 78.1945 11.0883 78.3049 11.438L82.4554 24.5937C82.5657 24.9435 82.9387 25.1376 83.2885 25.0272L106.561 17.685C106.911 17.5746 107.105 17.2016 106.995 16.8519L102.844 3.69616C102.734 3.3464 102.361 3.15231 102.011 3.26266Z" fill="white"/>
<path opacity="0.2" d="M96.0456 13.9029L95.136 13.6462L95.7331 12.9096C96.5032 11.9554 97.29 11.0067 98.049 10.0413L100.337 7.15058C101.079 6.174 101.844 5.21417 102.569 4.22643C101.743 5.13604 100.94 6.06241 100.125 6.98876L97.7253 9.77899C96.9217 10.7109 96.146 11.6596 95.3592 12.6027L94.6114 13.49L94.2598 13.9197L94.1761 14.0146L93.5846 14.7233C93.4291 14.9287 93.2151 15.0824 92.9708 15.1641C92.7262 15.245 92.462 15.245 92.2174 15.1641L91.3301 14.9242H91.2073L90.6493 14.7735L89.5332 14.4721C88.3446 14.1541 87.1671 13.8248 85.9729 13.5291C83.5956 12.9096 81.2127 12.3069 78.8187 11.7545C81.1569 12.5134 83.5063 13.2221 85.8668 13.9197C87.0387 14.2768 88.2218 14.6005 89.3993 14.9409L90.3089 15.1976L89.7118 15.9286C88.9417 16.8829 88.1548 17.826 87.4015 18.797L85.1191 21.6877C84.3657 22.6587 83.6123 23.6241 82.8869 24.6118C83.7128 23.7022 84.5164 22.7759 85.3311 21.8495L87.7307 19.0593C88.5343 18.1329 89.31 17.1787 90.1024 16.2412L90.8502 15.3539L91.185 15.4487L92.0723 15.6998C92.4154 15.8089 92.7839 15.8089 93.127 15.6998C93.4699 15.5886 93.7687 15.3718 93.9808 15.0804L94.5389 14.3661L94.7621 14.0927L95.8782 14.394C97.0612 14.7065 98.2499 15.0414 99.4385 15.3371C101.816 15.951 104.193 16.5592 106.593 17.1117C104.26 16.3528 101.905 15.644 99.5501 14.9465C98.4117 14.5614 97.2342 14.2378 96.0456 13.9029Z" fill="black"/>
<path d="M103.653 24.2112L79.2774 25.3735C78.9111 25.391 78.6283 25.7021 78.6457 26.0685L79.3028 39.8477C79.3202 40.214 79.6314 40.4968 79.9977 40.4794L104.373 39.3171C104.74 39.2996 105.023 38.9885 105.005 38.6221L104.348 24.8429C104.331 24.4765 104.019 24.1937 103.653 24.2112Z" fill="#263238"/>
<path opacity="0.5" d="M103.653 24.2112L79.2774 25.3735C78.9111 25.391 78.6283 25.7021 78.6457 26.0685L79.3028 39.8477C79.3202 40.214 79.6314 40.4968 79.9977 40.4794L104.373 39.3171C104.74 39.2996 105.023 38.9885 105.005 38.6221L104.348 24.8429C104.331 24.4765 104.019 24.1937 103.653 24.2112Z" fill="white"/>
<path opacity="0.2" d="M95.1639 32.9773L94.3491 32.503L95.1137 31.9449C96.1014 31.2195 97.1059 30.5052 98.0825 29.7685L101.029 27.5364C102 26.783 102.982 26.0464 103.942 25.3042C102.915 25.9683 101.899 26.6658 100.878 27.3466L97.8425 29.4337C96.8324 30.1313 95.8335 30.8512 94.8346 31.5599L93.8804 32.2295L93.4339 32.5532L93.3279 32.6258L92.5745 33.1559C92.3764 33.3214 92.1295 33.4176 91.8715 33.4297C91.6136 33.4418 91.3588 33.3691 91.146 33.2228L90.348 32.7653L90.2363 32.7095L89.762 32.4248L88.7519 31.8668C87.6805 31.2585 86.6258 30.6335 85.5488 30.042C83.4059 28.8366 81.2574 27.648 79.0866 26.504C81.1514 27.8377 83.244 29.1212 85.3423 30.4103C86.3914 31.0576 87.4517 31.6715 88.5008 32.3021L89.3156 32.7876L88.551 33.3456C87.5633 34.0711 86.5588 34.7798 85.5878 35.5276L82.6413 37.7598C81.6648 38.5075 80.6882 39.2497 79.7283 39.9919C80.7551 39.3279 81.7708 38.6303 82.792 37.9495L85.8278 35.8568C86.8434 35.1648 87.8312 34.4394 88.8412 33.7363L89.7899 33.0666L90.0912 33.2452L90.8837 33.7139C91.1831 33.9165 91.54 34.0168 91.9011 33.9997C92.2623 33.9826 92.6081 33.8491 92.8871 33.6191L93.6293 33.061L93.9083 32.8545L94.9183 33.4126C95.9842 34.0208 97.0445 34.6459 98.1215 35.2374C100.264 36.4372 102.407 37.6314 104.584 38.7754C102.519 37.4417 100.426 36.1638 98.328 34.8691C97.2845 34.2218 96.2186 33.6079 95.1639 32.9773Z" fill="black"/>
<path d="M100.277 38.0676L75.901 39.23C75.5346 39.2474 75.2518 39.5586 75.2693 39.9249L75.9263 53.7041C75.9438 54.0705 76.2549 54.3533 76.6213 54.3358L100.997 53.1735C101.363 53.156 101.646 52.8449 101.629 52.4785L100.972 38.6993C100.954 38.333 100.643 38.0502 100.277 38.0676Z" fill="#263238"/>
<path opacity="0.5" d="M100.277 38.0676L75.901 39.23C75.5346 39.2474 75.2518 39.5586 75.2693 39.9249L75.9263 53.7041C75.9438 54.0705 76.2549 54.3533 76.6213 54.3358L100.997 53.1735C101.363 53.156 101.646 52.8449 101.629 52.4785L100.972 38.6993C100.954 38.333 100.643 38.0502 100.277 38.0676Z" fill="white"/>
<path opacity="0.2" d="M91.7877 46.839L90.973 46.3591L91.7375 45.801C92.7252 45.0756 93.7297 44.3613 94.7063 43.6191L97.6584 41.3869C98.6238 40.628 99.6059 39.8913 100.571 39.1268C99.539 39.7965 98.5233 40.4884 97.5021 41.1748L94.444 43.2842C93.434 43.9762 92.4351 44.6961 91.4362 45.4048L90.4875 46.0745L90.0355 46.4037L89.9797 46.4986L89.2207 47.0287C89.0136 47.1975 88.756 47.2919 88.4889 47.297C88.2218 47.302 87.9608 47.2174 87.7475 47.0566L86.9495 46.5935L86.8434 46.5377L86.3635 46.2586L85.3535 45.7006C84.282 45.0923 83.2273 44.4673 82.1503 43.8814C80.0074 42.676 77.8589 41.4873 75.6881 40.3378C77.7529 41.6715 79.8456 42.955 81.9494 44.2441C82.9929 44.8858 84.0532 45.5053 85.1079 46.1303L85.9171 46.6158L85.1581 47.1738C84.1648 47.8993 83.1659 48.608 82.1893 49.3558L79.2429 51.588C78.2719 52.3413 77.2897 53.078 76.3299 53.8202C77.3622 53.1505 78.3723 52.4585 79.3991 51.7721L82.4293 49.6795C83.4449 48.9931 84.4327 48.2676 85.4427 47.5589L86.3914 46.8892L86.6928 47.0678L87.4852 47.5366C87.7846 47.7392 88.1415 47.8394 88.5027 47.8223C88.8638 47.8052 89.2097 47.6717 89.4886 47.4417L90.2308 46.8836L90.5154 46.6772L91.5254 47.2352C92.5857 47.8435 93.646 48.4685 94.723 49.06C96.8659 50.2598 99.0088 51.454 101.191 52.598C99.126 51.2699 97.0278 49.9864 94.9295 48.6917C93.886 48.0834 92.8424 47.464 91.7877 46.839Z" fill="black"/>
<path d="M181.376 22.7373L158.263 14.9052C157.916 14.7875 157.539 14.9736 157.421 15.321L152.994 28.3861C152.876 28.7334 153.062 29.1104 153.41 29.2282L176.522 37.0603C176.869 37.178 177.246 36.9918 177.364 36.6444L181.791 23.5793C181.909 23.232 181.723 22.855 181.376 22.7373Z" fill="#263238"/>
<path opacity="0.5" d="M181.376 22.7373L158.263 14.9052C157.916 14.7875 157.539 14.9736 157.421 15.321L152.994 28.3861C152.876 28.7334 153.062 29.1104 153.41 29.2282L176.522 37.0603C176.869 37.178 177.246 36.9918 177.364 36.6444L181.791 23.5793C181.909 23.232 181.723 22.855 181.376 22.7373Z" fill="white"/>
<path opacity="0.2" d="M170.266 27.7987L169.68 27.0565L170.595 26.8165C171.784 26.504 172.978 26.2027 174.161 25.8734L177.71 24.8912C178.887 24.5453 180.076 24.2216 181.248 23.8589C180.043 24.1044 178.848 24.3778 177.643 24.6401L174.06 25.4716C172.861 25.7506 171.672 26.0576 170.478 26.3478L169.362 26.6268L168.804 26.7663H168.681L167.782 26.9895C167.537 27.0677 167.274 27.0677 167.029 26.9895C166.784 26.9067 166.572 26.746 166.426 26.5319L165.874 25.8511L165.796 25.7562L165.455 25.3154L164.724 24.4113C163.954 23.4515 163.195 22.4861 162.408 21.543C160.857 19.64 159.294 17.7483 157.687 15.8844C159.121 17.8822 160.606 19.8409 162.09 21.7941C162.827 22.7763 163.591 23.7417 164.322 24.7071L164.881 25.4604L163.971 25.6948C162.782 26.0073 161.588 26.3031 160.411 26.6379L156.861 27.6201C155.678 27.9605 154.495 28.2953 153.323 28.6581C154.523 28.4125 155.723 28.1335 156.923 27.8712L160.517 27.0341C161.711 26.7663 162.894 26.4761 164.094 26.1636L165.21 25.8901L165.427 26.1636L165.985 26.889C166.19 27.1863 166.486 27.4093 166.828 27.525C167.169 27.6406 167.54 27.6427 167.883 27.5308L168.77 27.302L169.11 27.2127L169.842 28.1167C170.612 29.071 171.365 30.042 172.152 30.9851C173.709 32.8825 175.266 34.7798 176.878 36.6437C175.439 34.6515 173.96 32.6871 172.476 30.734C171.784 29.7574 171.013 28.7697 170.266 27.7987Z" fill="black"/>
<path d="M197.43 50.4007L174.318 42.5686C173.97 42.4509 173.593 42.637 173.476 42.9844L169.048 56.0495C168.931 56.3969 169.117 56.7739 169.464 56.8916L192.576 64.7237C192.924 64.8414 193.301 64.6552 193.418 64.3079L197.846 51.2427C197.964 50.8954 197.777 50.5184 197.43 50.4007Z" fill="#263238"/>
<path opacity="0.5" d="M197.43 50.4007L174.318 42.5686C173.97 42.4509 173.593 42.637 173.476 42.9844L169.048 56.0495C168.931 56.3969 169.117 56.7739 169.464 56.8916L192.576 64.7237C192.924 64.8414 193.301 64.6552 193.418 64.3079L197.846 51.2427C197.964 50.8954 197.777 50.5184 197.43 50.4007Z" fill="white"/>
<path opacity="0.2" d="M186.315 55.4665L185.757 54.7187L186.672 54.4787C187.855 54.1662 189.049 53.8649 190.233 53.5356L193.782 52.5535C194.959 52.2075 196.148 51.8838 197.32 51.5211C196.12 51.7667 194.92 52.0401 193.72 52.3024L190.132 53.1339C188.932 53.4129 187.744 53.7198 186.555 54.01L185.439 54.289L184.881 54.4285H184.758L183.865 54.6517C183.618 54.73 183.353 54.73 183.106 54.6517C182.861 54.5689 182.649 54.4083 182.504 54.1942L181.946 53.4799L181.867 53.385L181.527 52.9441L180.762 52.0792C179.992 51.1193 179.239 50.1539 178.447 49.2108C176.895 47.3079 175.333 45.4161 173.731 43.5522C175.165 45.55 176.644 47.5088 178.134 49.4675C178.871 50.4441 179.63 51.4095 180.366 52.3805L180.924 53.1283L180.009 53.3627C178.82 53.6752 177.632 53.9709 176.449 54.3058L172.9 55.2879C171.717 55.6283 170.539 55.9631 169.362 56.3259C170.567 56.0803 171.761 55.8013 172.967 55.539L176.555 54.702C177.749 54.4341 178.938 54.1439 180.132 53.8314L181.248 53.558L181.466 53.8314L182.024 54.5569C182.231 54.8529 182.526 55.0771 182.866 55.1986C183.21 55.3045 183.577 55.3045 183.921 55.1986L184.814 54.9643L185.154 54.875L185.88 55.779C186.65 56.7333 187.409 57.7042 188.19 58.6473C189.747 60.5503 191.304 62.4421 192.917 64.3059C191.483 62.3137 189.998 60.3494 188.514 58.3962C187.833 57.3973 187.08 56.4319 186.315 55.4665Z" fill="black"/>
<path d="M138.821 24.5477L114.438 25.5399C114.071 25.5548 113.786 25.8639 113.801 26.2304L114.362 40.0139C114.377 40.3803 114.686 40.6653 115.053 40.6504L139.436 39.6583C139.802 39.6434 140.087 39.3342 140.072 38.9678L139.511 25.1843C139.497 24.8178 139.187 24.5328 138.821 24.5477Z" fill="#263238"/>
<path opacity="0.5" d="M138.821 24.5477L114.438 25.5399C114.071 25.5548 113.786 25.8639 113.801 26.2304L114.362 40.0139C114.377 40.3803 114.686 40.6653 115.053 40.6504L139.436 39.6583C139.802 39.6434 140.087 39.3342 140.072 38.9678L139.511 25.1843C139.497 24.8178 139.187 24.5328 138.821 24.5477Z" fill="white"/>
<path opacity="0.2" d="M130.265 33.2615L129.456 32.776L130.226 32.218C131.219 31.4981 132.224 30.7894 133.211 30.0583L136.175 27.8652C137.146 27.1174 138.133 26.3864 139.099 25.633C138.066 26.2971 137.051 26.9835 136.018 27.6587L132.971 29.7235C131.956 30.4099 130.951 31.1242 129.947 31.8273L128.993 32.4914L128.541 32.8151L128.435 32.882L127.681 33.4066C127.48 33.5707 127.232 33.6665 126.972 33.68C126.714 33.6867 126.461 33.6125 126.247 33.468L125.455 33.0048L125.343 32.9434L124.869 32.6588L123.864 32.0729C122.798 31.459 121.749 30.8284 120.672 30.2313C118.54 29.0092 116.398 27.8038 114.232 26.6431C116.291 27.9936 118.379 29.2882 120.466 30.5829C121.509 31.2302 122.564 31.8552 123.613 32.4914L124.422 32.9825L123.652 33.5405C122.659 34.2604 121.654 34.9635 120.672 35.7002L117.709 37.8933C116.732 38.6355 115.75 39.3665 114.785 40.1255C115.817 39.4614 116.833 38.775 117.865 38.0998L120.912 36.0238C121.928 35.343 122.927 34.6287 123.937 33.9312L124.891 33.2671L125.192 33.4457L125.979 33.92C126.278 34.1226 126.634 34.226 126.995 34.2158C127.354 34.1946 127.699 34.0642 127.983 33.8419L128.73 33.2838L129.043 33.1053L130.047 33.6633C131.108 34.2772 132.162 34.9133 133.234 35.5104C135.371 36.727 137.508 37.9324 139.679 39.0931C137.62 37.7482 135.538 36.4535 133.446 35.1589C132.391 34.5171 131.314 33.8977 130.265 33.2615Z" fill="black"/>
<path d="M167.631 27.966L143.248 28.9582C142.881 28.9731 142.596 29.2822 142.611 29.6487L143.172 43.4322C143.187 43.7986 143.496 44.0836 143.863 44.0687L168.246 43.0766C168.612 43.0617 168.897 42.7525 168.882 42.386L168.321 28.6026C168.306 28.2361 167.997 27.9511 167.631 27.966Z" fill="#263238"/>
<path opacity="0.5" d="M167.631 27.966L143.248 28.9582C142.881 28.9731 142.596 29.2822 142.611 29.6487L143.172 43.4322C143.187 43.7986 143.496 44.0836 143.863 44.0687L168.246 43.0766C168.612 43.0617 168.897 42.7525 168.882 42.386L168.321 28.6026C168.306 28.2361 167.997 27.9511 167.631 27.966Z" fill="white"/>
<path opacity="0.2" d="M159.082 36.6825L158.273 36.1971L159.038 35.639C160.031 34.9191 161.041 34.216 162.023 33.4794L164.987 31.2918C165.958 30.5385 166.951 29.813 167.916 29.0596C166.878 29.7181 165.863 30.4045 164.836 31.0798L161.783 33.1501C160.768 33.8365 159.769 34.5508 158.759 35.2484L157.805 35.8957L157.352 36.2194L157.252 36.2863L156.493 36.8165C156.292 36.9765 156.046 37.0701 155.79 37.0843C155.53 37.0945 155.273 37.0201 155.059 36.8723L154.266 36.4537L154.16 36.3924L153.681 36.1078L152.676 35.5497C151.61 34.9303 150.561 34.2997 149.484 33.7026C147.352 32.486 145.215 31.2807 143.05 30.1199C145.103 31.4648 147.19 32.7651 149.283 34.0542C150.321 34.7071 151.376 35.3321 152.425 35.9627L153.234 36.4537L152.47 37.0118C151.476 37.7317 150.466 38.4348 149.49 39.1714L146.526 41.3645C145.55 42.1067 144.562 42.8434 143.597 43.5967C144.629 42.9382 145.65 42.2463 146.677 41.571L149.724 39.5007C150.745 38.8199 151.739 38.1 152.754 37.4024L153.708 36.7384L154.01 36.9169L154.797 37.3968C155.095 37.601 155.451 37.7032 155.812 37.6881C156.173 37.673 156.52 37.5415 156.8 37.3131L157.542 36.7551L157.832 36.5486L158.837 37.1346C159.897 37.7484 160.952 38.379 162.023 38.9761C164.155 40.1926 166.292 41.4036 168.463 42.5644C166.41 41.2195 164.322 39.9192 162.23 38.6301C161.192 37.9437 160.132 37.3187 159.082 36.6825Z" fill="black"/>
<path d="M169.149 46.662L144.765 47.6541C144.399 47.669 144.114 47.9782 144.129 48.3447L144.69 62.1281C144.705 62.4946 145.014 62.7796 145.38 62.7647L169.763 61.7725C170.13 61.7576 170.415 61.4485 170.4 61.082L169.839 47.2985C169.824 46.9321 169.515 46.6471 169.149 46.662Z" fill="#263238"/>
<path opacity="0.5" d="M169.149 46.662L144.765 47.6541C144.399 47.669 144.114 47.9782 144.129 48.3447L144.69 62.1281C144.705 62.4946 145.014 62.7796 145.38 62.7647L169.763 61.7725C170.13 61.7576 170.415 61.4485 170.4 61.082L169.839 47.2985C169.824 46.9321 169.515 46.6471 169.149 46.662Z" fill="white"/>
<path opacity="0.2" d="M160.595 55.3715L159.786 54.8916L160.55 54.3335C161.549 53.6192 162.553 52.9105 163.536 52.1739L166.499 49.9863C167.475 49.233 168.463 48.5075 169.429 47.7541C168.396 48.4126 167.381 49.099 166.348 49.7799L163.301 51.8446C162.28 52.531 161.281 53.2453 160.277 53.9485L159.322 54.6069L158.87 54.9306L158.764 55.0032L158.005 55.5277C157.805 55.6887 157.559 55.7825 157.302 55.7956C157.044 55.8053 156.789 55.7309 156.577 55.5835L155.784 55.1204L155.673 55.0645L155.198 54.7799L154.194 54.194C153.128 53.5746 152.073 52.944 151.002 52.3469C148.87 51.1303 146.727 49.9249 144.562 48.7642C146.621 50.1091 148.703 51.4093 150.795 52.6984C151.833 53.3513 152.894 53.9764 153.943 54.6069L154.752 55.098L153.982 55.6561C152.989 56.3704 151.984 57.0735 151.002 57.8157L148.016 59.9921C147.04 60.7399 146.058 61.4709 145.087 62.2243C146.125 61.5658 147.14 60.8794 148.173 60.1986L151.22 58.1282C152.235 57.4474 153.234 56.7275 154.244 56.03L155.198 55.3659L155.5 55.55L156.287 56.0244C156.588 56.2226 156.942 56.3257 157.302 56.3201C157.662 56.297 158.007 56.1647 158.29 55.9407L159.038 55.3826L159.322 55.1761L160.327 55.7342C161.387 56.348 162.442 56.9842 163.513 57.5758C165.651 58.7923 167.788 60.0032 169.959 61.164C167.9 59.8191 165.812 58.5189 163.725 57.2298C162.704 56.6327 161.644 55.9853 160.595 55.3715Z" fill="black"/>
<path d="M58.2515 20.3546L34.9814 27.705C34.6317 27.8155 34.4378 28.1885 34.5482 28.5383L38.7033 41.6925C38.8138 42.0422 39.1869 42.2362 39.5366 42.1257L62.8066 34.7753C63.1563 34.6648 63.3503 34.2918 63.2398 33.942L59.0847 20.7878C58.9743 20.4381 58.6012 20.2441 58.2515 20.3546Z" fill="#263238"/>
<path opacity="0.5" d="M58.2515 20.3546L34.9814 27.705C34.6317 27.8155 34.4378 28.1885 34.5482 28.5383L38.7033 41.6925C38.8138 42.0422 39.1869 42.2362 39.5366 42.1257L62.8066 34.7753C63.1563 34.6648 63.3503 34.2918 63.2398 33.942L59.0847 20.7878C58.9743 20.4381 58.6012 20.2441 58.2515 20.3546Z" fill="white"/>
<path opacity="0.2" d="M52.2725 31.0071L51.3629 30.7504L51.96 30.0138C52.7301 29.0596 53.517 28.1109 54.2759 27.1455L56.5583 24.2548C57.3005 23.2782 58.065 22.3128 58.7905 21.3306C57.9646 22.2402 57.161 23.1666 56.3462 24.1209L53.9466 26.9111C53.1431 27.843 52.3674 28.7917 51.575 29.7348L50.8328 30.6221L50.4812 31.0518L50.3975 31.1466L49.8004 31.8275C49.6496 32.0374 49.4349 32.1927 49.1884 32.2702C48.9419 32.3477 48.6769 32.3431 48.4332 32.2572L47.5459 32.0172L47.4231 31.9893L46.8651 31.8386L45.749 31.5373C44.5603 31.2248 43.3828 30.89 42.1886 30.5942C39.8114 29.9748 37.4285 29.3776 35.0345 28.8252C37.3727 29.5841 39.7221 30.2873 42.0826 30.9848C43.2545 31.342 44.4376 31.6712 45.615 32.006L46.5246 32.2683L45.9331 32.9994C45.1574 33.9536 44.3706 34.8911 43.6228 35.8621L41.3348 38.7528C40.587 39.7294 39.8281 40.6948 39.1026 41.6826C39.9285 40.7729 40.7265 39.841 41.5413 38.9202L43.9409 36.13C44.7445 35.2092 45.5202 34.255 46.3126 33.3398L47.0604 32.4469L47.3952 32.5418L48.2825 32.7929C48.6231 32.9114 48.9928 32.9167 49.3367 32.8081C49.6806 32.6995 49.9802 32.4828 50.191 32.1902L50.749 31.4759L50.9723 31.2025L52.0884 31.5038C53.2714 31.8163 54.46 32.1511 55.6487 32.4469C58.026 33.0608 60.4088 33.669 62.8028 34.2215C60.4702 33.457 58.1152 32.7538 55.7603 32.0563C54.6386 31.6656 53.4556 31.342 52.2725 31.0071Z" fill="black"/>
<path d="M181.41 34.0465L158.098 41.2627C157.747 41.3712 157.551 41.7431 157.66 42.0935L161.739 55.2714C161.848 55.6218 162.219 55.8179 162.57 55.7094L185.882 48.4932C186.232 48.3847 186.428 48.0128 186.32 47.6624L182.241 34.4845C182.132 34.1341 181.76 33.938 181.41 34.0465Z" fill="#263238"/>
<path opacity="0.5" d="M181.41 34.0465L158.098 41.2627C157.747 41.3712 157.551 41.7431 157.66 42.0935L161.739 55.2714C161.848 55.6218 162.219 55.8179 162.57 55.7094L185.882 48.4932C186.232 48.3847 186.428 48.0128 186.32 47.6624L182.241 34.4845C182.132 34.1341 181.76 33.938 181.41 34.0465Z" fill="white"/>
<path opacity="0.2" d="M175.389 44.6403L174.484 44.3836L175.082 43.647C175.857 42.6983 176.65 41.7552 177.414 40.7953L179.713 37.9158C180.461 36.9448 181.231 35.985 181.973 35.0028C181.142 35.9068 180.333 36.8332 179.512 37.7484L177.096 40.5386C176.287 41.465 175.506 42.4137 174.713 43.3289L173.96 44.2162L173.608 44.6403L173.525 44.7351L172.928 45.4383C172.774 45.6453 172.559 45.7994 172.314 45.8791C172.067 45.9597 171.801 45.9597 171.555 45.8791L170.673 45.6336L170.55 45.6057L170.02 45.4494L168.904 45.1481C167.715 44.8188 166.538 44.484 165.344 44.1827C162.972 43.5465 160.595 42.9326 158.201 42.369C160.533 43.1447 162.883 43.859 165.238 44.6012C166.41 44.9639 167.587 45.2932 168.765 45.6392L169.674 45.907L169.071 46.6325C168.296 47.5812 167.503 48.5187 166.75 49.4841L164.445 52.3636C163.692 53.3346 162.927 54.2945 162.213 55.2766C163.045 54.3726 163.848 53.4462 164.668 52.531L167.085 49.7408C167.894 48.82 168.67 47.8713 169.473 46.9506L170.221 46.0633L170.561 46.1637L171.443 46.4204C171.783 46.5414 172.153 46.5492 172.498 46.4426C172.843 46.336 173.145 46.1207 173.357 45.8289L173.943 45.1146L174.166 44.8467L175.282 45.1537C176.466 45.4718 177.649 45.8122 178.832 46.1135C181.209 46.7441 183.586 47.3635 185.98 47.9272C183.648 47.1515 181.298 46.4372 178.949 45.695C177.755 45.3155 176.566 44.9863 175.389 44.6403Z" fill="black"/>
<path d="M82.0269 16.0927L59.383 25.1909C59.0427 25.3276 58.8777 25.7143 59.0144 26.0547L64.1575 38.8549C64.2942 39.1952 64.681 39.3603 65.0213 39.2235L87.6652 30.1254C88.0055 29.9886 88.1705 29.6019 88.0338 29.2616L82.8907 16.4613C82.754 16.121 82.3672 15.9559 82.0269 16.0927Z" fill="#263238"/>
<path opacity="0.5" d="M82.0269 16.0927L59.383 25.1909C59.0427 25.3276 58.8777 25.7143 59.0144 26.0547L64.1575 38.8549C64.2942 39.1952 64.681 39.3603 65.0213 39.2235L87.6652 30.1254C88.0055 29.9886 88.1705 29.6019 88.0338 29.2616L82.8907 16.4613C82.754 16.121 82.3672 15.9559 82.0269 16.0927Z" fill="white"/>
<path opacity="0.2" d="M76.8823 27.1681L75.956 26.984L76.514 26.2027C77.2116 25.1926 77.9203 24.1882 78.6011 23.1669L80.6603 20.1144C81.3244 19.082 82.0163 18.0608 82.6692 17.0228C81.9159 17.9938 81.1904 18.9816 80.4371 19.9638L78.2607 22.9325C77.5296 23.9203 76.8265 24.9248 76.1122 25.9237L75.437 26.8668L75.1189 27.3244L75.0408 27.4248L74.4827 28.1726C74.3511 28.3893 74.1564 28.5607 73.9247 28.6637C73.6845 28.7573 73.4209 28.7729 73.1713 28.7083L72.2673 28.5353H72.1445L71.5865 28.4237L70.4704 28.2117C69.2594 27.9829 68.0596 27.7429 66.8431 27.542C64.4267 27.1067 62.0048 26.6882 59.5885 26.3199C61.9769 26.8779 64.3765 27.436 66.7817 27.9382C67.9759 28.2061 69.1813 28.4405 70.3811 28.686L71.3074 28.8757L70.7494 29.6514C70.0518 30.6615 69.3375 31.6604 68.6623 32.6816L66.6031 35.7397C65.9335 36.7665 65.2526 37.7877 64.5941 38.8313C65.3475 37.8603 66.0786 36.8725 66.8263 35.8904L69.0027 32.916C69.7338 31.9338 70.4313 30.9238 71.1512 29.9304L71.832 28.9818L72.1724 29.0543L73.0764 29.2385C73.4266 29.3245 73.7947 29.3011 74.1312 29.1715C74.4574 29.0253 74.7303 28.7816 74.9124 28.474L75.437 27.715L75.6379 27.4304L76.7819 27.6425C77.9817 27.8657 79.1926 28.1112 80.398 28.3121C82.8199 28.7418 85.2363 29.1659 87.6526 29.5342C85.2642 28.9762 82.8646 28.4181 80.465 27.9103C79.2931 27.648 78.0821 27.4137 76.8823 27.1681Z" fill="black"/>
<path d="M61.5653 41.2134L37.6087 45.8614C37.2486 45.9313 37.0134 46.2798 37.0832 46.6398L39.7107 60.1822C39.7805 60.5422 40.129 60.7775 40.4891 60.7076L64.4457 56.0596C64.8057 55.9897 65.041 55.6412 64.9711 55.2812L62.3437 41.7388C62.2738 41.3788 61.9253 41.1436 61.5653 41.2134Z" fill="#263238"/>
<path opacity="0.5" d="M61.5653 41.2134L37.6087 45.8614C37.2486 45.9313 37.0134 46.2798 37.0832 46.6398L39.7107 60.1822C39.7805 60.5422 40.129 60.7775 40.4891 60.7076L64.4457 56.0596C64.8057 55.9897 65.041 55.6412 64.9711 55.2812L62.3437 41.7388C62.2738 41.3788 61.9253 41.1436 61.5653 41.2134Z" fill="white"/>
<path opacity="0.2" d="M54.4321 51.1024L53.5616 50.7453L54.2368 50.0812C55.1074 49.2218 56.0002 48.368 56.8596 47.4975L59.4601 44.8858C60.3084 43.9985 61.1789 43.128 62.0216 42.2295C61.0952 43.0387 60.1912 43.8701 59.276 44.6961L56.575 47.1961C55.671 48.0276 54.7893 48.8702 53.902 49.7296L53.0538 50.5332L52.6576 50.9183L52.5683 51.002L51.8986 51.6381C51.7239 51.8279 51.4932 51.9569 51.2401 52.0065C50.9853 52.0545 50.7218 52.0213 50.4868 51.9116L49.633 51.5712L49.5158 51.5265L49.0024 51.3201L47.9253 50.8904C46.7758 50.4383 45.6429 49.9752 44.4934 49.5511C42.1998 48.6638 39.9006 47.7932 37.5903 46.9729C39.8225 47.9941 42.0547 48.9651 44.3427 49.925C45.4588 50.4105 46.6028 50.868 47.7412 51.3424L48.6117 51.7051L47.9365 52.3636C47.0604 53.223 46.1731 54.0656 45.3137 54.9418L42.7132 57.559C41.8594 58.4407 41 59.3113 40.1573 60.2097C41.0781 59.4006 41.9822 58.5691 42.8973 57.7432L45.5983 55.2375C46.5023 54.4116 47.3785 53.5634 48.2769 52.7096L49.1196 51.906L49.4432 52.0399L50.297 52.3915C50.6221 52.5446 50.9867 52.5933 51.3406 52.531C51.6935 52.4566 52.0149 52.2754 52.2614 52.012L52.9198 51.3647L53.171 51.1247L54.2536 51.5489C55.3697 51.9953 56.5304 52.464 57.68 52.8937C59.9735 53.7699 62.2671 54.646 64.5886 55.4663C62.3564 54.4451 60.0963 53.4797 57.8362 52.5143C56.709 52.0288 55.565 51.5712 54.4321 51.1024Z" fill="black"/>
<path d="M36.5988 42.5023L12.6422 47.1503C12.2822 47.2202 12.0469 47.5687 12.1168 47.9287L14.7442 61.4711C14.8141 61.8311 15.1626 62.0664 15.5226 61.9965L39.4792 57.3485C39.8393 57.2787 40.0745 56.9301 40.0047 56.5701L37.3772 43.0277C37.3074 42.6677 36.9589 42.4325 36.5988 42.5023Z" fill="#263238"/>
<path opacity="0.5" d="M36.5988 42.5023L12.6422 47.1503C12.2822 47.2202 12.0469 47.5687 12.1168 47.9287L14.7442 61.4711C14.8141 61.8311 15.1626 62.0664 15.5226 61.9965L39.4792 57.3485C39.8393 57.2787 40.0745 56.9301 40.0047 56.5701L37.3772 43.0277C37.3074 42.6677 36.9589 42.4325 36.5988 42.5023Z" fill="white"/>
<path opacity="0.2" d="M29.4652 52.397L28.589 52.0399L29.2643 51.3758C30.1404 50.5164 31.0277 49.6682 31.8927 48.792L34.4932 46.1804C35.3414 45.2931 36.2119 44.4225 37.049 43.5297C36.1282 44.3388 35.2242 45.1703 34.309 45.9907L31.6081 48.4963C30.704 49.3278 29.8223 50.1704 28.9295 51.0298L28.0868 51.8278L27.6906 52.2129L27.5957 52.2966L26.9261 52.9327C26.7532 53.1229 26.5247 53.2538 26.2732 53.3066C26.0177 53.3525 25.7543 53.3174 25.5198 53.2062L24.666 52.8658L24.5488 52.8267L24.0354 52.6147L22.9528 52.1906C21.8367 51.7385 20.676 51.2754 19.5208 50.8457C17.2328 49.9584 14.9337 49.0934 12.6178 48.2675C14.85 49.2887 17.0821 50.2597 19.3757 51.2195C20.4918 51.7106 21.6079 52.1682 22.7686 52.637L23.6448 52.9997L22.9695 53.6582C22.0934 54.5176 21.2005 55.3658 20.3467 56.242L17.7462 58.8536C16.8924 59.7353 16.0274 60.6115 15.1904 61.5043C16.1111 60.6952 17.0152 59.8637 17.9304 59.0378L20.6313 56.5433C21.5354 55.7174 22.4115 54.8692 23.3099 54.0154L24.1303 53.195L24.4539 53.329L25.3022 53.6805C25.6298 53.8318 25.9961 53.8786 26.3513 53.8145C26.705 53.7421 27.027 53.5606 27.2721 53.2955L27.9306 52.6537L28.1817 52.4082L29.2643 52.8323C30.3804 53.2787 31.5411 53.7475 32.6907 54.1772C34.9842 55.0589 37.2778 55.935 39.5993 56.7554C37.3671 55.7341 35.107 54.7631 32.8469 53.8033C31.742 53.3234 30.598 52.8658 29.4652 52.397Z" fill="black"/>
<path d="M45.941 43.4695L21.5759 42.103C21.2097 42.0825 20.8962 42.3627 20.8757 42.7288L20.1032 56.5021C20.0827 56.8683 20.3629 57.1818 20.7291 57.2023L45.0941 58.5688C45.4603 58.5893 45.7738 58.3091 45.7944 57.9429L46.5668 44.1697C46.5873 43.8035 46.3071 43.49 45.941 43.4695Z" fill="#263238"/>
<path opacity="0.7" d="M45.941 43.4695L21.5759 42.103C21.2097 42.0825 20.8962 42.3627 20.8757 42.7288L20.1032 56.5021C20.0827 56.8683 20.3629 57.1818 20.7291 57.2023L45.0941 58.5688C45.4603 58.5893 45.7738 58.3091 45.7944 57.9429L46.5668 44.1697C46.5873 43.8035 46.3071 43.49 45.941 43.4695Z" fill="white"/>
<path opacity="0.2" d="M36.5747 51.3144L35.8158 50.7563L36.6305 50.2764C37.6908 49.6625 38.7622 49.0543 39.8114 48.4181L42.9755 46.5208C44.0134 45.8734 45.0681 45.2428 46.1061 44.5788C44.99 45.1368 43.9297 45.7228 42.8415 46.2975L39.6105 48.061C38.5279 48.6469 37.462 49.2552 36.3961 49.8579L35.3805 50.4159L34.9006 50.6949L34.7889 50.7507L33.9854 51.2028C33.7695 51.3417 33.5165 51.4118 33.2599 51.4037C33.0003 51.387 32.7525 51.2894 32.5512 51.1246L31.809 50.5666L31.7085 50.4996L31.2621 50.1704L30.3134 49.4896C29.3145 48.7697 28.3324 48.0442 27.3167 47.3467C25.3133 45.9236 23.2988 44.5174 21.2563 43.1557C23.1704 44.696 25.1236 46.1859 27.0823 47.6759C28.0533 48.4237 29.0411 49.1436 30.0288 49.8802L30.7822 50.4382L29.9674 50.9126C28.9071 51.532 27.8357 52.1347 26.7922 52.7709L23.6336 54.6682C22.5845 55.3156 21.5354 55.9517 20.503 56.6102C21.6191 56.0522 22.6738 55.4662 23.762 54.8914L26.9986 53.128C28.0757 52.57 29.1359 51.9282 30.213 51.3311L31.2286 50.7731L31.5076 50.9851L32.2443 51.5432C32.5242 51.7704 32.8669 51.9067 33.2264 51.9338C33.5876 51.9498 33.9448 51.8522 34.2476 51.6548L35.0401 51.1916L35.347 51.0186L36.2901 51.6938C37.289 52.4081 38.2767 53.1392 39.2812 53.8367C41.2902 55.2542 43.2991 56.666 45.3472 58.0277C43.4331 56.493 41.4799 54.9975 39.5268 53.5131C38.5558 52.7709 37.5569 52.0789 36.5747 51.3144Z" fill="black"/>
<path d="M174.328 31.1881L151.94 21.4768C151.604 21.3308 151.213 21.4853 151.067 21.8217L145.577 34.4773C145.431 34.8138 145.585 35.2048 145.922 35.3508L168.31 45.062C168.646 45.208 169.037 45.0536 169.183 44.7171L174.673 32.0616C174.819 31.7251 174.664 31.334 174.328 31.1881Z" fill="#263238"/>
<path opacity="0.7" d="M174.328 31.1881L151.94 21.4768C151.604 21.3308 151.213 21.4853 151.067 21.8217L145.577 34.4773C145.431 34.8138 145.585 35.2048 145.922 35.3508L168.31 45.062C168.646 45.208 169.037 45.0536 169.183 44.7171L174.673 32.0616C174.819 31.7251 174.664 31.334 174.328 31.1881Z" fill="white"/>
<path opacity="0.2" d="M162.838 35.3378L162.319 34.551L163.251 34.3891C164.456 34.1715 165.673 33.9706 166.878 33.7418L170.5 33.0554C171.7 32.8043 172.911 32.5811 174.111 32.3132C172.888 32.4583 171.678 32.6369 170.455 32.7987L166.811 33.3568C165.595 33.5298 164.384 33.7362 163.173 33.9148L162.023 34.099L161.465 34.1938H161.343L160.433 34.3389C160.181 34.3968 159.917 34.3734 159.68 34.272C159.444 34.1674 159.248 33.9893 159.121 33.7641L158.619 32.994L158.547 32.8936L158.245 32.4304L157.592 31.465C156.9 30.4438 156.231 29.4225 155.522 28.4181C154.133 26.3924 152.732 24.3778 151.281 22.3912C152.548 24.495 153.865 26.5709 155.187 28.6413C155.84 29.6792 156.521 30.7005 157.191 31.7329L157.71 32.5253L156.778 32.6871C155.567 32.8992 154.356 33.0945 153.156 33.3344L149.534 34.0153C148.329 34.2608 147.124 34.4952 145.924 34.7574C147.14 34.6124 148.357 34.4394 149.579 34.2775L153.223 33.7195C154.439 33.5465 155.645 33.3344 156.861 33.1614L158.011 32.9829L158.201 33.273L158.703 34.0432C158.888 34.3528 159.162 34.5998 159.49 34.7519C159.824 34.8889 160.192 34.9201 160.545 34.8412L161.449 34.6849L161.795 34.6235L162.447 35.5834C163.134 36.599 163.809 37.6314 164.512 38.6303C165.907 40.656 167.302 42.6761 168.753 44.6628C167.487 42.5589 166.175 40.483 164.847 38.4071C164.2 37.3691 163.508 36.3479 162.838 35.3378Z" fill="black"/>
<path d="M148.722 27.3691L133.581 8.23118C133.353 7.94356 132.935 7.89487 132.648 8.12243L121.829 16.6817C121.542 16.9092 121.493 17.3269 121.721 17.6145L136.862 36.7524C137.09 37.04 137.507 37.0887 137.795 36.8612L148.613 28.302C148.901 28.0744 148.95 27.6568 148.722 27.3691Z" fill="#263238"/>
<path opacity="0.7" d="M148.722 27.3691L133.581 8.23118C133.353 7.94356 132.935 7.89487 132.648 8.12243L121.829 16.6817C121.542 16.9092 121.493 17.3269 121.721 17.6145L136.862 36.7524C137.09 37.04 137.507 37.0887 137.795 36.8612L148.613 28.302C148.901 28.0744 148.95 27.6568 148.722 27.3691Z" fill="white"/>
<path opacity="0.2" d="M136.649 25.5776L136.565 24.6401L137.464 24.9303C138.63 25.3154 139.796 25.7116 140.968 26.0464L144.484 27.1625C145.661 27.5085 146.833 27.8824 148.016 28.2172C146.872 27.7652 145.717 27.3466 144.568 26.9169L141.102 25.6613C139.947 25.2428 138.781 24.8522 137.62 24.456L136.504 24.0709L135.946 23.8979L135.829 23.8533L134.958 23.5519C134.711 23.4821 134.49 23.338 134.328 23.139C134.168 22.9344 134.078 22.6841 134.071 22.4247L133.982 21.5095V21.3867L133.931 20.8287L133.842 19.7126C133.719 18.4849 133.608 17.2683 133.457 16.0462C133.195 13.6076 132.899 11.1633 132.575 8.73024C132.692 11.1856 132.871 13.6355 133.055 16.0853C133.139 17.313 133.256 18.5295 133.362 19.7516L133.44 20.6947L132.547 20.399C131.381 20.0139 130.22 19.6177 129.048 19.2829L125.533 18.1668C124.355 17.8152 123.183 17.4469 122 17.1121C123.144 17.5641 124.299 17.9826 125.449 18.4179L128.92 19.6624C130.07 20.0865 131.236 20.4659 132.391 20.8789L133.507 21.2584L133.541 21.6099L133.619 22.5251C133.628 22.8867 133.755 23.2353 133.979 23.519C134.204 23.8027 134.514 24.0061 134.863 24.0988L135.734 24.3834L136.069 24.495L136.186 25.6502C136.314 26.8723 136.42 28.0944 136.571 29.311C136.844 31.7552 137.129 34.1939 137.458 36.6325C137.335 34.1771 137.162 31.7273 136.978 29.2775C136.855 28.0275 136.755 26.7998 136.649 25.5776Z" fill="black"/>
<path d="M124.893 24.1952L100.779 27.937C100.416 27.9932 100.168 28.3326 100.224 28.695L102.339 42.3268C102.396 42.6892 102.735 42.9374 103.097 42.8812L127.212 39.1394C127.575 39.0832 127.823 38.7438 127.767 38.3814L125.651 24.7496C125.595 24.3872 125.256 24.139 124.893 24.1952Z" fill="#263238"/>
<path opacity="0.7" d="M124.893 24.1952L100.779 27.937C100.416 27.9932 100.168 28.3326 100.224 28.695L102.339 42.3268C102.396 42.6892 102.735 42.9374 103.097 42.8812L127.212 39.1394C127.575 39.0832 127.823 38.7438 127.767 38.3814L125.651 24.7496C125.595 24.3872 125.256 24.139 124.893 24.1952Z" fill="white"/>
<path opacity="0.2" d="M117.396 33.8029L116.537 33.4123L117.235 32.7761C118.144 31.9446 119.065 31.102 119.958 30.2872L122.653 27.776C123.535 26.9222 124.433 26.1019 125.31 25.2258C124.355 25.9959 123.423 26.7939 122.48 27.5863L119.69 29.9803C118.752 30.7783 117.843 31.5987 116.9 32.4134L116.024 33.1779L115.611 33.5518L115.516 33.6299L114.841 34.2215C114.66 34.4062 114.426 34.5292 114.171 34.573C113.914 34.6119 113.652 34.5668 113.423 34.4447L112.586 34.0708L112.469 34.0261L111.961 33.7973L110.895 33.3286C109.779 32.8375 108.663 32.3297 107.547 31.8609C105.315 30.8843 103.027 29.9301 100.744 29.0261C102.937 30.1421 105.158 31.1801 107.385 32.2292C108.501 32.7873 109.617 33.2616 110.733 33.7694L111.598 34.1657L110.895 34.8018C109.986 35.6277 109.065 36.4369 108.178 37.2796L105.443 39.8019C104.556 40.6501 103.663 41.4761 102.787 42.3522C103.741 41.5821 104.673 40.7841 105.616 39.9916L108.406 37.5921C109.344 36.7996 110.248 35.9737 111.197 35.1646L112.073 34.3945L112.391 34.5395L113.228 34.9246C113.549 35.091 113.913 35.1534 114.271 35.1032C114.626 35.0405 114.953 34.8712 115.209 34.6177L115.89 33.9982L116.152 33.7639L117.212 34.2326C118.328 34.7181 119.444 35.2315 120.588 35.7003C122.849 36.6657 125.109 37.6311 127.397 38.5352C125.203 37.4191 122.982 36.3755 120.756 35.332C119.634 34.813 118.513 34.3107 117.396 33.8029Z" fill="black"/>
<path d="M69.3975 30.4183L46.3642 22.3567C46.018 22.2355 45.6392 22.4179 45.518 22.7641L40.9609 35.7845C40.8397 36.1307 41.0221 36.5095 41.3683 36.6307L64.4016 44.6923C64.7477 44.8135 65.1266 44.6311 65.2477 44.2849L69.8049 31.2645C69.926 30.9183 69.7436 30.5395 69.3975 30.4183Z" fill="#263238"/>
<path opacity="0.7" d="M69.3975 30.4183L46.3642 22.3567C46.018 22.2355 45.6392 22.4179 45.518 22.7641L40.9609 35.7845C40.8397 36.1307 41.0221 36.5095 41.3683 36.6307L64.4016 44.6923C64.7477 44.8135 65.1266 44.6311 65.2477 44.2849L69.8049 31.2645C69.926 30.9183 69.7436 30.5395 69.3975 30.4183Z" fill="white"/>
<path opacity="0.2" d="M58.2548 35.3654L57.6967 34.6176L58.6175 34.3832C59.8061 34.0819 61.0003 33.7973 62.189 33.4736L65.7493 32.5305C66.9324 32.1901 68.121 31.8776 69.2985 31.5316C68.0931 31.7604 66.8933 32.0283 65.6879 32.2738L62.0774 33.0718C60.8776 33.3397 59.6889 33.6299 58.4947 33.9145L57.3786 34.1823L56.8206 34.3107H56.6978L55.7994 34.5227C55.5543 34.6009 55.291 34.6009 55.046 34.5227C54.8028 34.4356 54.5937 34.2734 54.4489 34.0595L53.8908 33.3341L53.8071 33.2392L53.4723 32.7984L52.7524 31.8888C51.9879 30.9178 51.2457 29.9468 50.4644 28.9981C48.9354 27.0784 47.384 25.1699 45.7992 23.2949C47.2166 25.3038 48.6787 27.2737 50.1464 29.2492C50.8718 30.2369 51.6252 31.2024 52.3785 32.1789L52.9366 32.9379L52.0214 33.1611C50.8328 33.4624 49.6385 33.7471 48.4555 34.0707L44.8952 35.0194C43.7121 35.3486 42.5235 35.6667 41.346 36.0183C42.5514 35.7839 43.7512 35.5216 44.9565 35.2705L48.5559 34.4669C49.7501 34.2102 50.9444 33.9089 52.1386 33.6354L53.2547 33.3676L53.4667 33.6466L54.0248 34.3776C54.2251 34.6853 54.5209 34.9186 54.8668 35.0416C55.2126 35.1646 55.5893 35.1705 55.9389 35.0585L56.8317 34.8352L57.1722 34.746L57.892 35.6611C58.651 36.621 59.3988 37.6031 60.1744 38.5518C61.7146 40.4659 63.2549 42.38 64.8453 44.2551C63.4278 42.2461 61.9658 40.2706 60.4981 38.3007C59.7559 37.313 58.997 36.342 58.2548 35.3654Z" fill="black"/>
<path d="M144.842 29.4874L122.878 40.1238C122.548 40.2837 122.41 40.6808 122.57 41.0109L128.583 53.4265C128.742 53.7566 129.14 53.8946 129.47 53.7348L151.433 43.0983C151.763 42.9385 151.901 42.5413 151.741 42.2112L145.729 29.7956C145.569 29.4655 145.172 29.3275 144.842 29.4874Z" fill="#263238"/>
<path opacity="0.7" d="M144.842 29.4874L122.878 40.1238C122.548 40.2837 122.41 40.6808 122.57 41.0109L128.583 53.4265C128.742 53.7566 129.14 53.8946 129.47 53.7348L151.433 43.0983C151.763 42.9385 151.901 42.5413 151.741 42.2112L145.729 29.7956C145.569 29.4655 145.172 29.3275 144.842 29.4874Z" fill="white"/>
<path opacity="0.2" d="M140.483 40.8677L139.551 40.7449L140.031 39.9358C140.656 38.8755 141.298 37.8264 141.906 36.7605L143.747 33.5685C144.344 32.497 144.958 31.4312 145.544 30.3485C144.858 31.3698 144.199 32.4077 143.524 33.4345L141.554 36.5484C140.896 37.5808 140.26 38.6355 139.618 39.6847L139.01 40.6724L138.725 41.1467L138.658 41.2528L138.172 42.0396C138.052 42.2684 137.861 42.4526 137.628 42.565C137.395 42.6775 137.132 42.7124 136.878 42.6646L135.968 42.553H135.845L135.287 42.4805L134.132 42.3465C132.91 42.207 131.694 42.0452 130.471 41.928C128.033 41.6601 125.589 41.409 123.139 41.2081C125.561 41.6266 127.994 41.9838 130.421 42.3242C131.638 42.5084 132.854 42.659 134.071 42.8209L135.008 42.9492L134.523 43.7584C133.898 44.8131 133.256 45.8622 132.653 46.9281L130.812 50.1201C130.209 51.1915 129.601 52.2574 129.015 53.34C129.701 52.3188 130.36 51.2864 131.035 50.254L133.005 47.1401C133.663 46.1078 134.288 45.0531 134.941 44.0095L135.55 43.0162L135.901 43.0608L136.811 43.1836C137.166 43.2499 137.533 43.2031 137.86 43.0497C138.181 42.8875 138.444 42.6303 138.613 42.313L139.088 41.5206L139.266 41.2193L140.421 41.3532C141.638 41.4927 142.86 41.6546 144.077 41.7717C146.521 42.034 148.959 42.2907 151.415 42.4916C148.993 42.0787 146.565 41.7215 144.132 41.3755C142.921 41.1802 141.699 41.0295 140.483 40.8677Z" fill="black"/>
<path d="M112.56 40.1492L89.4472 32.3171C89.0998 32.1994 88.7228 32.3856 88.6051 32.7329L84.1777 45.798C84.06 46.1454 84.2462 46.5224 84.5936 46.6401L107.706 54.4722C108.053 54.5899 108.43 54.4038 108.548 54.0564L112.975 40.9913C113.093 40.6439 112.907 40.2669 112.56 40.1492Z" fill="#263238"/>
<path opacity="0.7" d="M112.56 40.1492L89.4472 32.3171C89.0998 32.1994 88.7228 32.3856 88.6051 32.7329L84.1777 45.798C84.06 46.1454 84.2462 46.5224 84.5936 46.6401L107.706 54.4722C108.053 54.5899 108.43 54.4038 108.548 54.0564L112.975 40.9913C113.093 40.6439 112.907 40.2669 112.56 40.1492Z" fill="white"/>
<path opacity="0.2" d="M101.442 45.2094L100.884 44.4672L101.799 44.2217C102.982 43.9092 104.176 43.6134 105.359 43.2786L108.914 42.302C110.092 41.9505 111.275 41.6268 112.452 41.2641C111.247 41.5096 110.047 41.783 108.847 42.0453L105.259 42.8824C104.065 43.1558 102.87 43.4404 101.682 43.7529L100.566 44.032L100.008 44.1715L99.8849 44.1994L98.9921 44.417C98.7466 44.4924 98.4842 44.4924 98.2387 44.417C97.9924 44.3303 97.7796 44.1682 97.6304 43.9538L97.0724 43.2395L96.9887 43.1447L96.6483 42.7094L95.9172 41.7998C95.1471 40.8399 94.3938 39.8745 93.6014 38.9314C92.0537 37.0266 90.4819 35.1404 88.8859 33.2728C90.32 35.2706 91.7989 37.2294 93.2888 39.1881C94.0255 40.1703 94.7844 41.1301 95.521 42.1011L96.0791 42.8489L95.1639 43.0833C93.9752 43.3958 92.7866 43.6916 91.6091 44.0264L88.0544 45.0085C86.8769 45.3545 85.6938 45.6838 84.5164 46.0465C85.7218 45.801 86.916 45.522 88.1213 45.2653L91.7096 44.4226C92.9038 44.1547 94.0924 43.8646 95.2866 43.552L96.4027 43.2786L96.6204 43.552L97.1784 44.2775C97.3874 44.5722 97.6814 44.7961 98.0211 44.9193C98.3666 45.0252 98.7359 45.0252 99.0814 44.9193L99.9686 44.6849L100.309 44.5956L101.035 45.4996C101.805 46.4539 102.564 47.4249 103.345 48.368C104.902 50.2709 106.464 52.1683 108.071 54.0266C106.637 52.0343 105.158 50.0756 103.668 48.1169C102.96 47.1403 102.195 46.1804 101.442 45.2094Z" fill="black"/>
<path d="M94.7152 21.5357L71.4426 28.878C71.0928 28.9883 70.8987 29.3613 71.0091 29.7111L75.1596 42.8668C75.2699 43.2165 75.6429 43.4106 75.9927 43.3003L99.2653 35.958C99.615 35.8476 99.8091 35.4746 99.6988 35.1249L95.5483 21.9692C95.4379 21.6194 95.0649 21.4253 94.7152 21.5357Z" fill="#263238"/>
<path opacity="0.7" d="M94.7152 21.5357L71.4426 28.878C71.0928 28.9883 70.8987 29.3613 71.0091 29.7111L75.1596 42.8668C75.2699 43.2165 75.6429 43.4106 75.9927 43.3003L99.2653 35.958C99.615 35.8476 99.8091 35.4746 99.6988 35.1249L95.5483 21.9692C95.4379 21.6194 95.0649 21.4253 94.7152 21.5357Z" fill="white"/>
<path opacity="0.2" d="M88.7519 32.1681L87.8479 31.9114L88.4394 31.1748C89.2151 30.2206 89.9964 29.2775 90.7553 28.312L93.0433 25.4214C93.7855 24.4392 94.55 23.4794 95.2755 22.4916C94.4496 23.4012 93.6516 24.3332 92.8313 25.2539L90.4317 28.0442C89.6281 28.9761 88.8524 29.9248 88.0656 30.8679L87.3178 31.7608L86.9662 32.1904L86.8825 32.2797L86.291 32.9885C86.1409 33.197 85.9276 33.3516 85.6827 33.4293C85.4366 33.5126 85.1699 33.5126 84.9238 33.4293L84.0365 33.1893L83.9137 33.1615L83.3556 33.0108L82.2396 32.7094C81.0509 32.3914 79.8734 32.0621 78.6792 31.7663C76.3019 31.1469 73.9191 30.5442 71.5251 29.9918C73.8633 30.7563 76.2182 31.4594 78.5732 32.157C79.7451 32.5141 80.9281 32.8378 82.1056 33.1782L83.0208 33.4405L82.4237 34.1715C81.648 35.1258 80.8612 36.0633 80.1078 37.0343L77.8254 39.925C77.0776 40.9015 76.3187 41.867 75.5932 42.8491C76.4191 41.9451 77.2227 41.0131 78.0375 40.0924L80.4371 37.3021C81.2406 36.3814 82.0163 35.4271 82.8088 34.5119L83.5565 33.6191L83.8914 33.7139L84.7787 33.965C85.1218 34.0741 85.4903 34.0741 85.8334 33.965C86.1765 33.8484 86.4761 33.6305 86.6928 33.34L87.2508 32.6257L87.474 32.3579L88.5901 32.6536C89.7787 32.9717 90.9618 33.3065 92.1504 33.6023C94.5277 34.2162 96.9106 34.8244 99.3046 35.3713C96.972 34.6124 94.617 33.9092 92.262 33.2061C91.0957 32.8322 89.935 32.503 88.7519 32.1681Z" fill="black"/>
<path d="M96.3615 42.4793L71.9859 43.6416C71.6195 43.6591 71.3367 43.9702 71.3542 44.3366L72.0112 58.1158C72.0287 58.4822 72.3398 58.765 72.7062 58.7475L97.0818 57.5852C97.4481 57.5677 97.7309 57.2566 97.7135 56.8902L97.0564 43.111C97.039 42.7447 96.7278 42.4619 96.3615 42.4793Z" fill="#263238"/>
<path opacity="0.7" d="M96.3615 42.4793L71.9859 43.6416C71.6195 43.6591 71.3367 43.9702 71.3542 44.3366L72.0112 58.1158C72.0287 58.4822 72.3398 58.765 72.7062 58.7475L97.0818 57.5852C97.4481 57.5677 97.7309 57.2566 97.7135 56.8902L97.0564 43.111C97.039 42.7447 96.7278 42.4619 96.3615 42.4793Z" fill="white"/>
<path opacity="0.2" d="M87.8702 51.2478L87.0555 50.7679L87.82 50.2098C88.8078 49.4844 89.8122 48.7701 90.7888 48.0279L93.7353 45.7957C94.7063 45.0367 95.6885 44.3001 96.6539 43.5635C95.6215 44.2331 94.6058 44.9251 93.5846 45.6115L90.5377 47.693C89.5276 48.385 88.5287 49.1049 87.5298 49.8136L86.5756 50.4833L86.1291 50.8125L86.0231 50.8795L85.2697 51.4096C85.073 51.5777 84.8262 51.676 84.5678 51.6891C84.3094 51.7023 84.0539 51.6295 83.8411 51.4822L83.0431 51.0246L82.9315 50.9632L82.4572 50.6842L81.4471 50.1261C80.3757 49.5178 79.321 48.8928 78.2439 48.3069C76.1011 47.1015 73.9526 45.9129 71.7818 44.7633C73.8465 46.097 75.9392 47.3805 78.0431 48.6696C79.0866 49.3114 80.1469 49.9308 81.2016 50.5558L82.0108 51.0413L81.2518 51.5994C80.2585 52.3248 79.2596 53.0335 78.283 53.7813L75.3365 56.0135C74.3655 56.7668 73.3834 57.5035 72.4235 58.2736C73.4503 57.6039 74.466 56.9119 75.4928 56.2255L78.523 54.1329C79.5386 53.4465 80.5264 52.721 81.5364 52.0123L82.4851 51.3426L82.7864 51.5212L83.5789 51.99C83.8782 52.1916 84.2338 52.2932 84.5945 52.2802C84.9558 52.2576 85.301 52.123 85.5822 51.8951L86.3244 51.3371L86.6091 51.1306L87.6135 51.6886C88.6794 52.2969 89.7397 52.9219 90.8167 53.5135C92.9596 54.7133 95.1025 55.9075 97.2845 57.0515C95.2197 55.7233 93.1214 54.4398 91.0232 53.1451C89.9796 52.4922 88.9249 51.8728 87.8702 51.2478Z" fill="black"/>
<path d="M167.548 47.3602L144.435 39.5281C144.088 39.4104 143.711 39.5966 143.593 39.944L139.166 53.0091C139.048 53.3564 139.234 53.7334 139.582 53.8511L162.694 61.6832C163.042 61.8009 163.419 61.6148 163.536 61.2674L167.964 48.2023C168.081 47.855 167.895 47.4779 167.548 47.3602Z" fill="#263238"/>
<path opacity="0.7" d="M167.548 47.3602L144.435 39.5281C144.088 39.4104 143.711 39.5966 143.593 39.944L139.166 53.0091C139.048 53.3564 139.234 53.7334 139.582 53.8511L162.694 61.6832C163.042 61.8009 163.419 61.6148 163.536 61.2674L167.964 48.2023C168.081 47.855 167.895 47.4779 167.548 47.3602Z" fill="white"/>
<path opacity="0.2" d="M156.437 52.4248L155.879 51.6826L156.794 51.4371C157.983 51.1246 159.177 50.8288 160.36 50.494L163.91 49.5174C165.087 49.1659 166.276 48.8422 167.448 48.4795C166.248 48.725 165.048 48.9985 163.843 49.2607L160.26 50.0978C159.06 50.3712 157.871 50.6558 156.677 50.9739L155.561 51.2474L155.003 51.3869L154.88 51.4148L153.982 51.6324C153.736 51.7152 153.47 51.7146 153.225 51.6309C152.98 51.5471 152.769 51.3849 152.626 51.1692L152.068 50.4549L151.99 50.3601L151.649 49.9248L150.918 49.0152C150.148 48.0554 149.395 47.0899 148.602 46.1468C147.051 44.2439 145.488 42.3521 143.881 40.4883C145.321 42.4861 146.8 44.4448 148.284 46.4035C149.021 47.3857 149.785 48.3455 150.516 49.3165L151.074 50.0643L150.165 50.2987C148.976 50.6112 147.782 50.907 146.605 51.2474L143.055 52.224C141.872 52.5699 140.689 52.8992 139.517 53.2619C140.717 53.0164 141.917 52.7429 143.122 52.4806L146.711 51.638C147.905 51.3701 149.088 51.08 150.288 50.7674L151.404 50.494L151.621 50.7674L152.179 51.4929C152.383 51.7911 152.679 52.0153 153.02 52.132C153.362 52.2486 153.733 52.2515 154.077 52.1402L154.97 51.9059L155.304 51.8166L156.036 52.7262C156.806 53.6749 157.559 54.6459 158.346 55.589C159.903 57.4919 161.46 59.3892 163.072 61.2475C161.638 59.2553 160.154 57.2966 158.669 55.3378C157.955 54.3557 157.185 53.3958 156.437 52.4248Z" fill="black"/>
<path d="M131.528 42.8149L107.145 43.807C106.778 43.8219 106.493 44.1311 106.508 44.4975L107.069 58.281C107.084 58.6475 107.393 58.9325 107.76 58.9176L132.143 57.9254C132.509 57.9105 132.794 57.6014 132.779 57.2349L132.219 43.4514C132.204 43.085 131.895 42.8 131.528 42.8149Z" fill="#263238"/>
<path opacity="0.7" d="M131.528 42.8149L107.145 43.807C106.778 43.8219 106.493 44.1311 106.508 44.4975L107.069 58.281C107.084 58.6475 107.393 58.9325 107.76 58.9176L132.143 57.9254C132.509 57.9105 132.794 57.6014 132.779 57.2349L132.219 43.4514C132.204 43.085 131.895 42.8 131.528 42.8149Z" fill="white"/>
<path opacity="0.2" d="M122.971 51.5208L122.162 51.0353L122.932 50.4773C123.926 49.7574 124.93 49.0487 125.918 48.3176L128.881 46.1245C129.852 45.3767 130.84 44.6513 131.811 43.8923C130.773 44.5564 129.757 45.2428 128.725 45.918L125.695 47.994C124.679 48.6804 123.674 49.3891 122.67 50.0922L121.716 50.7563L121.264 51.08L121.158 51.1469L120.404 51.6771C120.201 51.8372 119.954 51.9308 119.696 51.9449C119.437 51.9543 119.183 51.8799 118.97 51.7329L118.178 51.2697L118.066 51.2083L117.592 50.9237L116.587 50.3657C115.521 49.7462 114.472 49.1156 113.395 48.5185C111.263 47.2964 109.126 46.0966 106.961 44.9359C109.015 46.2808 111.102 47.5754 113.189 48.8422C114.232 49.4951 115.287 50.1145 116.336 50.7507L117.145 51.2418L116.381 51.7998C115.382 52.5197 114.377 53.2229 113.401 53.9595L110.438 56.1526C109.455 56.8948 108.473 57.6314 107.508 58.3848C108.54 57.7207 109.561 57.0343 110.588 56.3591L113.635 54.2887C114.656 53.6079 115.65 52.888 116.66 52.1905L117.614 51.5264L117.915 51.705L118.702 52.1793C118.999 52.3733 119.35 52.4681 119.704 52.45C120.058 52.432 120.397 52.302 120.672 52.0789L121.42 51.5208L121.705 51.3144L122.709 51.9003C123.769 52.5086 124.83 53.1447 125.895 53.7419C128.033 54.9584 130.17 56.1693 132.341 57.3301C130.282 55.9796 128.2 54.6849 126.108 53.3903C125.086 52.7876 124.02 52.1626 122.971 51.5208Z" fill="black"/>
<path d="M38.0827 24.8746L14.8126 32.225C14.4629 32.3355 14.269 32.7085 14.3794 33.0582L18.5345 46.2125C18.645 46.5622 19.0181 46.7562 19.3678 46.6457L42.6378 39.2953C42.9875 39.1848 43.1815 38.8118 43.071 38.462L38.9159 25.3078C38.8055 24.9581 38.4324 24.7641 38.0827 24.8746Z" fill="#263238"/>
<path opacity="0.7" d="M38.0827 24.8746L14.8126 32.225C14.4629 32.3355 14.269 32.7085 14.3794 33.0582L18.5345 46.2125C18.645 46.5622 19.0181 46.7562 19.3678 46.6457L42.6378 39.2953C42.9875 39.1848 43.1815 38.8118 43.071 38.462L38.9159 25.3078C38.8055 24.9581 38.4324 24.7641 38.0827 24.8746Z" fill="white"/>
<path opacity="0.2" d="M32.1047 35.5276L31.2007 35.2709L31.7922 34.5343C32.5679 33.58 33.3492 32.6369 34.1081 31.6715L36.3961 28.7808C37.1383 27.7987 37.8973 26.8388 38.6283 25.8511C37.8024 26.7607 36.9988 27.6927 36.184 28.6134L33.7845 31.4037C32.9809 32.3356 32.2052 33.2843 31.4183 34.2274L30.6706 35.1202L30.319 35.5499L30.2353 35.6392L29.6438 36.3479C29.4923 36.5564 29.2797 36.7124 29.0355 36.7944C28.7889 36.8749 28.5231 36.8749 28.2765 36.7944L27.3892 36.5544H27.2665L26.7363 36.4037L25.6202 36.108C24.4316 35.7899 23.2541 35.4551 22.0599 35.1649C19.6826 34.5455 17.2998 33.9428 14.9058 33.3903C17.244 34.1492 19.5989 34.858 21.9539 35.5555C23.1258 35.9127 24.3088 36.2363 25.4919 36.5712L26.4015 36.8334L25.8044 37.5198C25.0287 38.4741 24.2419 39.4172 23.4941 40.3882L21.2061 43.2789C20.4583 44.2499 19.6994 45.2153 18.9739 46.203C19.7998 45.2934 20.6034 44.3671 21.4182 43.4128L23.8122 40.6226C24.6158 39.6962 25.3914 38.742 26.1839 37.8044L26.9317 36.9116L27.2721 37.0064L28.1538 37.2576C28.4969 37.3666 28.8654 37.3666 29.2085 37.2576C29.5516 37.1409 29.8512 36.923 30.0679 36.6326L30.6259 35.9183L30.8491 35.6504L31.9652 35.9461C33.1483 36.2642 34.3313 36.5991 35.52 36.8948C37.9028 37.5031 40.2801 38.1114 42.6797 38.6638C40.3415 37.9049 37.9865 37.1962 35.6316 36.4986C34.4708 36.1861 33.2878 35.8624 32.1047 35.5276Z" fill="black"/>
<path d="M187.915 37.7279L164.603 44.9442C164.253 45.0526 164.057 45.4246 164.165 45.7749L168.244 58.9529C168.353 59.3033 168.725 59.4994 169.075 59.3909L192.387 52.1746C192.737 52.0662 192.934 51.6942 192.825 51.3439L188.746 38.1659C188.637 37.8156 188.265 37.6195 187.915 37.7279Z" fill="#263238"/>
<path opacity="0.7" d="M187.915 37.7279L164.603 44.9442C164.253 45.0526 164.057 45.4246 164.165 45.7749L168.244 58.9529C168.353 59.3033 168.725 59.4994 169.075 59.3909L192.387 52.1746C192.737 52.0662 192.934 51.6942 192.825 51.3439L188.746 38.1659C188.637 37.8156 188.265 37.6195 187.915 37.7279Z" fill="white"/>
<path opacity="0.2" d="M181.895 48.3178L180.991 48.0611L181.588 47.3245C182.364 46.3758 183.157 45.4327 183.921 44.4729L186.22 41.5934C186.968 40.6224 187.738 39.6625 188.48 38.6804C187.649 39.5844 186.84 40.5108 186.019 41.426L183.603 44.2162C182.794 45.137 182.013 46.0856 181.22 47.0064L180.467 47.8937L180.115 48.3178L180.031 48.4127L179.434 49.1158C179.28 49.3229 179.066 49.4769 178.821 49.5567C178.574 49.6372 178.308 49.6372 178.062 49.5567L177.18 49.3111H177.057L176.499 49.1549L175.383 48.8535C174.194 48.5243 173.017 48.1895 171.823 47.8881C169.451 47.2519 167.074 46.6381 164.68 46.0745C167.012 46.8501 169.362 47.5644 171.717 48.2787C172.888 48.6415 174.066 48.9707 175.243 49.3167L176.153 49.5846L175.55 50.31C174.775 51.2587 173.982 52.1962 173.229 53.1616L170.946 55.9854C170.193 56.9564 169.429 57.9162 168.714 58.8984C169.546 57.9943 170.349 57.068 171.17 56.1528L173.586 53.3625C174.395 52.4418 175.171 51.4931 175.974 50.5723L176.722 49.685L177.063 49.7855L177.944 50.0422C178.285 50.1632 178.655 50.1709 179 50.0643C179.345 49.9577 179.646 49.7425 179.858 49.4506L180.444 48.7364L180.668 48.4685L181.784 48.7754C182.967 49.0935 184.15 49.4339 185.333 49.7352C187.71 50.3658 190.087 50.9853 192.481 51.5489C190.149 50.7732 187.799 50.0589 185.45 49.3446C184.289 48.993 183.073 48.6638 181.895 48.3178Z" fill="black"/>
<path d="M74.736 34.3593L52.0921 43.4575C51.7518 43.5943 51.5868 43.981 51.7235 44.3213L56.8666 57.1216C57.0033 57.4619 57.3901 57.627 57.7304 57.4902L80.3743 48.392C80.7146 48.2553 80.8796 47.8686 80.7429 47.5283L75.5998 34.728C75.463 34.3876 75.0763 34.2226 74.736 34.3593Z" fill="#263238"/>
<path opacity="0.7" d="M74.736 34.3593L52.0921 43.4575C51.7518 43.5943 51.5868 43.981 51.7235 44.3213L56.8666 57.1216C57.0033 57.4619 57.3901 57.627 57.7304 57.4902L80.3743 48.392C80.7146 48.2553 80.8796 47.8686 80.7429 47.5283L75.5998 34.728C75.463 34.3876 75.0763 34.2226 74.736 34.3593Z" fill="white"/>
<path opacity="0.2" d="M69.5887 45.4328L68.6623 45.2487L69.2203 44.4674C69.9179 43.4573 70.6266 42.4584 71.3074 41.4372L73.3666 38.3791C74.0307 37.3467 74.7227 36.3311 75.3812 35.2876C74.6222 36.2586 73.8968 37.2463 73.149 38.2284L70.967 41.1973C70.236 42.185 69.5329 43.1895 68.8186 44.1884L68.1433 45.1371L67.8252 45.5891L67.7471 45.6895L67.1891 46.4373C67.0593 46.6629 66.8591 46.8397 66.6192 46.9405C66.3792 47.0413 66.1129 47.0606 65.8609 46.9954L64.9569 46.8223H64.8341L64.2761 46.7107L63.1321 46.4987C61.9211 46.2755 60.7213 46.0299 59.5048 45.829C57.0884 45.3937 54.6721 44.9752 52.2502 44.6069C54.6386 45.1649 57.0382 45.723 59.4434 46.2308C60.6376 46.4931 61.843 46.7275 63.0484 46.973L63.9747 47.1683L63.4167 47.9384C62.7191 48.9485 62.0048 49.9474 61.3296 50.9742L59.2871 53.9877C58.6175 55.02 57.9367 56.0413 57.2782 57.0792C58.0315 56.1082 58.7626 55.1205 59.5103 54.1383L61.6867 51.1695C62.4178 50.1818 63.1153 49.1717 63.8352 48.1784L64.516 47.2353L64.8564 47.3023L65.7605 47.4864C66.11 47.5746 66.4782 47.5532 66.8152 47.425C67.1477 47.285 67.4285 47.0452 67.6187 46.7386L68.1433 45.9797L68.3442 45.6951L69.4882 45.9072C70.6936 46.1304 71.899 46.3759 73.1043 46.5768C75.5263 47.0121 77.9426 47.4362 80.3589 47.7989C77.9705 47.2409 75.5709 46.6828 73.1713 46.1806C71.9994 45.9406 70.794 45.6784 69.5887 45.4328Z" fill="black"/>
<path d="M61.5901 45.4307L37.7025 40.4403C37.3435 40.3653 36.9917 40.5955 36.9167 40.9545L34.0957 54.4579C34.0207 54.8169 34.2509 55.1687 34.6099 55.2437L58.4975 60.2341C58.8565 60.3091 59.2084 60.0789 59.2834 59.7199L62.1044 46.2165C62.1794 45.8575 61.9492 45.5057 61.5901 45.4307Z" fill="#263238"/>
<path opacity="0.8" d="M61.5901 45.4307L37.7025 40.4403C37.3435 40.3653 36.9917 40.5955 36.9167 40.9545L34.0957 54.4579C34.0207 54.8169 34.2509 55.1687 34.6099 55.2437L58.4975 60.2341C58.8565 60.3091 59.2084 60.0789 59.2834 59.7199L62.1044 46.2165C62.1794 45.8575 61.9492 45.5057 61.5901 45.4307Z" fill="white"/>
<path opacity="0.2" d="M51.1787 51.7946L50.5091 51.125L51.3908 50.7734C52.5069 50.3214 53.6788 49.8805 54.8116 49.4062L58.2213 48.0055C59.3374 47.52 60.4869 47.0512 61.6086 46.5546C60.4423 46.9396 59.2871 47.3582 58.1264 47.7655L54.6665 49.0211C53.5114 49.4397 52.3674 49.8861 51.2178 50.327L50.1296 50.7343L49.6162 50.9352L49.499 50.9799L48.634 51.3035C48.3998 51.4091 48.1388 51.4403 47.8863 51.3928C47.6322 51.3392 47.4016 51.2063 47.2278 51.0134L46.5749 50.366L46.48 50.2823L46.0894 49.8917L45.2579 49.0769C44.3762 48.2176 43.5112 47.3526 42.6127 46.5099C40.8437 44.8358 39.0636 43.117 37.2443 41.4875C38.9185 43.2956 40.5926 45.059 42.3281 46.8224C43.1819 47.7097 44.0525 48.5691 44.9119 49.4453L45.5815 50.1149L44.6998 50.4609C43.5837 50.9129 42.4118 51.3482 41.2846 51.8281L37.8749 53.1953C36.7588 53.6808 35.6427 54.1496 34.4876 54.6518C35.6539 54.2612 36.8091 53.8427 37.9698 53.4409L41.4353 52.1741C42.5848 51.7612 43.7288 51.3091 44.8784 50.8794L45.9666 50.4665L46.2177 50.7176L46.865 51.3705C47.1042 51.6402 47.424 51.8256 47.7769 51.899C48.1298 51.9724 48.4969 51.9299 48.8238 51.7779L49.6832 51.4431L50.0068 51.3147L50.8383 52.1239C51.72 52.9777 52.585 53.8482 53.4779 54.6909C55.2525 56.3929 57.0271 58.0838 58.8519 59.7412C57.1777 57.9331 55.5036 56.1641 53.7681 54.4007C52.9198 53.5302 52.0325 52.6652 51.1787 51.7946Z" fill="black"/>
<path d="M176.003 44.375L152.115 39.3846C151.756 39.3096 151.404 39.5399 151.329 39.8989L148.508 53.4023C148.433 53.7613 148.663 54.1131 149.022 54.1881L172.91 59.1785C173.269 59.2535 173.621 59.0233 173.696 58.6642L176.517 45.1609C176.592 44.8019 176.362 44.45 176.003 44.375Z" fill="#263238"/>
<path opacity="0.8" d="M176.003 44.375L152.115 39.3846C151.756 39.3096 151.404 39.5399 151.329 39.8989L148.508 53.4023C148.433 53.7613 148.663 54.1131 149.022 54.1881L172.91 59.1785C173.269 59.2535 173.621 59.0233 173.696 58.6642L176.517 45.1609C176.592 44.8019 176.362 44.45 176.003 44.375Z" fill="white"/>
<path opacity="0.2" d="M165.595 50.7341L164.925 50.0645L165.807 49.7185C166.923 49.2609 168.095 48.82 169.228 48.3513L172.637 46.9506C173.753 46.4595 174.903 45.9963 176.025 45.4941C174.858 45.8847 173.703 46.3033 172.542 46.705L169.083 47.9662C167.927 48.3848 166.783 48.8312 165.634 49.2665L164.546 49.6739L164.032 49.8803L163.915 49.9194L163.05 50.2486C162.816 50.3552 162.554 50.3846 162.302 50.3323C162.047 50.2809 161.816 50.1477 161.644 49.9529L160.991 49.2888L160.896 49.2051L160.505 48.8089L159.674 47.9997C158.792 47.1403 157.927 46.2698 157.029 45.4327C155.26 43.7251 153.48 42.0398 151.66 40.3824C153.335 42.1905 155.009 43.9595 156.744 45.7229C157.598 46.6046 158.469 47.4696 159.328 48.3401L159.998 49.0154L159.116 49.3614C158 49.8134 156.828 50.2486 155.701 50.723L152.291 52.1293C151.175 52.6092 150.031 53.0835 148.904 53.5802C150.07 53.1951 151.225 52.7766 152.386 52.3692L155.829 51.1303C156.979 50.7174 158.123 50.2598 159.272 49.8301L160.388 49.4227L160.639 49.6683L161.287 50.3212C161.521 50.6014 161.84 50.7974 162.196 50.8792C162.55 50.9472 162.917 50.9043 163.245 50.7565L164.105 50.416L164.428 50.2877L165.26 51.1024C166.142 51.9507 167.007 52.8268 167.9 53.6639C169.674 55.3659 171.449 57.0624 173.274 58.7142C171.599 56.9061 169.925 55.1427 168.19 53.3793C167.336 52.4697 166.46 51.6047 165.595 50.7341Z" fill="black"/>
<path d="M137.153 36.2978L112.837 38.361C112.471 38.392 112.2 38.7134 112.231 39.0789L113.397 52.8244C113.428 53.1898 113.75 53.4609 114.115 53.4299L138.431 51.3667C138.797 51.3357 139.068 51.0143 139.037 50.6488L137.871 36.9034C137.839 36.5379 137.518 36.2668 137.153 36.2978Z" fill="#263238"/>
<path opacity="0.8" d="M137.153 36.2978L112.837 38.361C112.471 38.392 112.2 38.7134 112.231 39.0789L113.397 52.8244C113.428 53.1898 113.75 53.4609 114.115 53.4299L138.431 51.3667C138.797 51.3357 139.068 51.0143 139.037 50.6488L137.871 36.9034C137.839 36.5379 137.518 36.2668 137.153 36.2978Z" fill="white"/>
<path opacity="0.2" d="M128.993 45.3823L128.167 44.9358L128.909 44.3499C129.869 43.5853 130.845 42.8376 131.794 42.0563L134.657 39.7404C135.6 38.948 136.554 38.1779 137.486 37.3743C136.482 38.083 135.494 38.8141 134.495 39.5339L131.543 41.7326C130.555 42.4637 129.59 43.2226 128.613 43.9648L127.687 44.6735L127.252 45.0139L127.151 45.0865L126.414 45.6445C126.222 45.8177 125.979 45.9234 125.721 45.9456C125.463 45.9678 125.205 45.9052 124.986 45.7673L124.177 45.3376L124.065 45.2818L123.574 45.0195L122.547 44.4615C121.431 43.9034 120.376 43.3063 119.277 42.7539C117.095 41.6378 114.902 40.5217 112.687 39.4558C114.802 40.7114 116.939 41.9168 119.087 43.1166C120.153 43.7193 121.236 44.2996 122.313 44.8856L123.144 45.3376L122.402 45.9403C121.437 46.6992 120.466 47.447 119.517 48.2283L116.654 50.5442C115.711 51.331 114.762 52.1067 113.825 52.9103C114.835 52.2016 115.817 51.4705 116.816 50.7507L119.774 48.5464C120.756 47.8209 121.721 47.062 122.703 46.3142L123.624 45.6111L123.937 45.7729L124.74 46.2137C125.049 46.4012 125.407 46.4889 125.767 46.4649C126.127 46.4301 126.466 46.2838 126.738 46.0463L127.464 45.4883L127.737 45.2706L128.769 45.8287C129.852 46.3867 130.935 46.9783 132.034 47.5307C134.221 48.6468 136.409 49.7629 138.624 50.8288C136.515 49.5732 134.372 48.3678 132.229 47.168C131.158 46.5374 130.07 45.9403 128.993 45.3823Z" fill="black"/>
<path d="M104.268 43.1469L81.0849 35.3378C80.7365 35.2205 80.3589 35.4078 80.2415 35.7562L75.8272 48.8613C75.7098 49.2098 75.8971 49.5874 76.2455 49.7047L99.4287 57.5138C99.7771 57.6312 100.155 57.4438 100.272 57.0954L104.686 43.9903C104.804 43.6419 104.616 43.2643 104.268 43.1469Z" fill="#263238"/>
<path opacity="0.8" d="M104.268 43.1469L81.0849 35.3378C80.7365 35.2205 80.3589 35.4078 80.2415 35.7562L75.8272 48.8613C75.7098 49.2098 75.8971 49.5874 76.2455 49.7047L99.4287 57.5138C99.7771 57.6312 100.155 57.4438 100.272 57.0954L104.686 43.9903C104.804 43.6419 104.616 43.2643 104.268 43.1469Z" fill="white"/>
<path opacity="0.2" d="M92.5746 47.7429L92.0165 47.0006L92.9317 46.7607C94.1148 46.4482 95.309 46.1468 96.492 45.8176L100.024 44.8243C101.202 44.4727 102.391 44.149 103.562 43.7863C102.363 44.0318 101.163 44.3109 99.9631 44.5731L96.3749 45.4046C95.1751 45.6781 93.9864 45.9627 92.7978 46.2808L91.6817 46.5542L91.1236 46.6937L91.0009 46.7216L90.108 46.9393C89.8621 47.021 89.5963 47.0206 89.3507 46.9381C89.1051 46.8555 88.893 46.6953 88.7464 46.4817L88.1883 45.7618L88.1102 45.6669L87.7698 45.2316L87.0387 44.3276C86.2686 43.3678 85.5153 42.4023 84.7229 41.4593C83.1715 39.5507 81.609 37.659 80.0074 35.8007C81.4416 37.7929 82.9204 39.7516 84.4104 41.7104C85.147 42.6925 85.9059 43.6524 86.6425 44.6234L87.2006 45.3712L86.2854 45.6111C85.0968 45.9236 83.9081 46.2138 82.7251 46.5542L79.1759 47.5364C77.9928 47.8768 76.8154 48.206 75.6379 48.5687C76.8433 48.3232 78.0375 48.0498 79.2428 47.7875L82.8311 46.9504C84.0253 46.677 85.2139 46.3645 86.4082 46.0799L87.5243 45.8008L87.7419 46.0799L88.2999 46.8053C88.5079 47.0997 88.8024 47.3221 89.1426 47.4415C89.4853 47.5532 89.8546 47.5532 90.1973 47.4415L91.0902 47.2071L91.4306 47.1234L92.156 48.0274C92.9261 48.9817 93.6851 49.9527 94.4663 50.8902C96.0233 52.7932 97.5802 54.6905 99.193 56.5544C97.7588 54.5566 96.2744 52.5978 94.79 50.6391C94.0924 49.6737 93.3279 48.7306 92.5746 47.7429Z" fill="black"/>
<path d="M204.06 42.6449L180.748 49.8611C180.398 49.9696 180.202 50.3415 180.31 50.6919L184.389 63.8698C184.498 64.2202 184.87 64.4163 185.22 64.3078L208.532 57.0916C208.882 56.9831 209.079 56.6112 208.97 56.2608L204.891 43.0829C204.782 42.7325 204.41 42.5364 204.06 42.6449Z" fill="#263238"/>
<path opacity="0.8" d="M204.06 42.6449L180.748 49.8611C180.398 49.9696 180.202 50.3415 180.31 50.6919L184.389 63.8698C184.498 64.2202 184.87 64.4163 185.22 64.3078L208.532 57.0916C208.882 56.9831 209.079 56.6112 208.97 56.2608L204.891 43.0829C204.782 42.7325 204.41 42.5364 204.06 42.6449Z" fill="white"/>
<path opacity="0.2" d="M198.045 53.2342L197.136 52.9774L197.733 52.2408C198.514 51.2922 199.301 50.3491 200.065 49.3892L202.37 46.4985C203.118 45.5275 203.882 44.5677 204.602 43.5855C203.771 44.4896 202.962 45.4159 202.141 46.3311L199.725 49.1214C198.921 50.0421 198.134 50.9908 197.342 51.9116L196.589 52.7989L196.237 53.223L196.153 53.3179L195.556 54.021C195.406 54.2314 195.191 54.3867 194.944 54.4633C194.697 54.5399 194.432 54.5335 194.189 54.4451L193.302 54.1996H193.179L192.621 54.0433L191.505 53.742C190.316 53.4183 189.139 53.0779 187.945 52.7766C185.573 52.146 183.196 51.5265 180.807 50.9629C183.14 51.7386 185.489 52.4529 187.839 53.1672C189.01 53.5299 190.193 53.8592 191.371 54.2052L192.281 54.473L191.678 55.1985C190.902 56.1472 190.11 57.0847 189.351 58.0501L187.08 60.924C186.321 61.895 185.562 62.8549 184.847 63.837C185.679 62.933 186.488 62.0066 187.308 61.0914L189.719 58.3012C190.528 57.3804 191.31 56.4318 192.108 55.511L192.861 54.6237L193.196 54.7241L194.083 54.9808C194.426 55.0899 194.795 55.0899 195.138 54.9808C195.479 54.8669 195.779 54.6531 195.997 54.367L196.555 53.6527L196.778 53.3848L197.894 53.6918C199.078 54.0098 200.261 54.3502 201.449 54.6516C203.827 55.2822 206.198 55.9016 208.598 56.4652C206.265 55.6895 203.916 54.9753 201.561 54.261C200.406 53.9094 199.223 53.5801 198.045 53.2342Z" fill="black"/>
<path d="M23.0606 37.4635L0.416674 46.5617C0.0763584 46.6984 -0.0886752 47.0852 0.0480617 47.4255L5.19115 60.2258C5.32789 60.5661 5.71462 60.7311 6.05493 60.5944L28.6988 51.4962C29.0391 51.3595 29.2042 50.9727 29.0674 50.6324L23.9243 37.8321C23.7876 37.4918 23.4009 37.3268 23.0606 37.4635Z" fill="#263238"/>
<path opacity="0.8" d="M23.0606 37.4635L0.416674 46.5617C0.0763584 46.6984 -0.0886752 47.0852 0.0480617 47.4255L5.19115 60.2258C5.32789 60.5661 5.71462 60.7311 6.05493 60.5944L28.6988 51.4962C29.0391 51.3595 29.2042 50.9727 29.0674 50.6324L23.9243 37.8321C23.7876 37.4918 23.4009 37.3268 23.0606 37.4635Z" fill="white"/>
<path opacity="0.2" d="M17.9136 48.5355L16.9929 48.3458L17.5509 47.5701C18.2485 46.56 18.9572 45.5555 19.6436 44.5343L21.6749 41.4762C22.3445 40.4438 23.0309 39.4282 23.6894 38.3902C22.936 39.3557 22.205 40.3434 21.4572 41.3256L19.2753 44.2943C18.5498 45.2821 17.8411 46.2922 17.1268 47.2911L16.4516 48.2341L16.1335 48.6917L16.0609 48.7866L15.5029 49.54C15.3718 49.7558 15.1767 49.9255 14.9448 50.0255C14.7033 50.121 14.4379 50.1386 14.1859 50.0757L13.2819 49.9027H13.1591L12.601 49.7967L11.485 49.579C10.274 49.3558 9.0742 49.1159 7.86324 48.9094C5.4469 48.4741 3.02498 48.0556 0.608646 47.6873C2.9915 48.2453 5.3911 48.8034 7.79627 49.3112C8.99607 49.5735 10.1959 49.8078 11.4012 50.059L12.3276 50.2487L11.7696 51.0244C11.072 52.0344 10.3577 53.0334 9.68805 54.0546L7.63444 57.1015C6.95921 58.1283 6.27839 59.1495 5.6199 60.1875C6.37326 59.2221 7.1043 58.2288 7.85208 57.2466L10.034 54.2778C10.7651 53.2956 11.4626 52.2856 12.1825 51.2867L12.8577 50.3436L13.2037 50.4105L14.1022 50.5947C14.4504 50.6857 14.8186 50.6622 15.1523 50.5275C15.486 50.3928 15.7675 50.1541 15.9549 49.8469L16.4795 49.0935L16.6804 48.8034L17.7965 49.0154C19.0018 49.2386 20.2072 49.4842 21.4182 49.6907C23.8345 50.1203 26.2508 50.5445 28.6728 50.9128C26.2843 50.3547 23.8847 49.7967 21.4796 49.2889C20.3244 49.0098 19.1079 48.781 17.9136 48.5355Z" fill="black"/>
</svg>
