<svg width="60" height="57" viewBox="0 0 60 57" fill="none" xmlns="http://www.w3.org/2000/svg">
<path d="M54.302 0H5.69801C2.55109 0 0 2.55109 0 5.69801V40.1774C0 43.3243 2.55109 45.8754 5.69801 45.8754H54.302C57.4489 45.8754 60 43.3243 60 40.1774V5.69801C60 2.55109 57.4489 0 54.302 0Z" fill="#407BFF"/>
<path d="M21.6155 43.2924C21.6155 43.2924 20.0299 50.5255 11.1719 56.8847C11.1719 56.8847 26.6916 51.0522 31.7901 43.2924H21.6155Z" fill="#407BFF"/>
<path d="M47.0188 12.5845L13.0269 12.5192C12.6587 12.5185 12.3596 12.8164 12.3589 13.1846L12.3216 32.615C12.3209 32.9832 12.6188 33.2823 12.987 33.283L46.9789 33.3483C47.3472 33.349 47.6462 33.051 47.647 32.6828L47.6843 13.2525C47.685 12.8842 47.387 12.5852 47.0188 12.5845Z" fill="#407BFF"/>
<path opacity="0.8" d="M47.0188 12.5845L13.0269 12.5192C12.6587 12.5185 12.3596 12.8164 12.3589 13.1846L12.3216 32.615C12.3209 32.9832 12.6188 33.2823 12.987 33.283L46.9789 33.3483C47.3472 33.349 47.6462 33.051 47.647 32.6828L47.6843 13.2525C47.685 12.8842 47.387 12.5852 47.0188 12.5845Z" fill="white"/>
<path opacity="0.2" d="M34.541 24.0357L33.4541 23.3185L34.541 22.6014C35.9473 21.6713 37.3704 20.7637 38.7599 19.8L42.9564 16.9706C44.3347 16.0013 45.7298 15.0601 47.1024 14.074C45.6457 14.92 44.2058 15.7996 42.7547 16.668L38.4574 19.3238C37.0175 20.209 35.6056 21.1278 34.1825 22.0299L32.8378 22.8871L32.2047 23.3185L32.059 23.4082L30.9889 24.0861C30.7027 24.2958 30.3576 24.4095 30.0028 24.4111C29.6474 24.4079 29.3022 24.2922 29.0167 24.0805L27.9578 23.397L27.8121 23.3129L27.1734 22.8927L25.8287 22.0355C24.4056 21.1222 22.9993 20.1978 21.5594 19.3182C18.7132 17.5197 15.8446 15.7436 12.9424 14.0235C15.6821 15.9901 18.4667 17.8895 21.2625 19.7832C22.652 20.7413 24.0639 21.6545 25.4646 22.5846L26.5459 23.3017L25.4814 24.0133C24.0751 24.9433 22.68 25.8454 21.2681 26.8147L17.0772 29.6328C15.6933 30.5965 14.2758 31.549 12.9312 32.5351C14.3879 31.6891 15.8222 30.8038 17.2733 29.9354L21.5762 27.2741C23.0105 26.3944 24.4168 25.47 25.8455 24.5736L27.1958 23.7219L27.5992 23.9853L28.6525 24.68C29.0485 24.9795 29.5315 25.1415 30.028 25.1415C30.5245 25.1415 31.0075 24.9795 31.4035 24.68L32.4568 23.9853L32.8602 23.7219L34.2049 24.5847C35.6224 25.4868 37.0343 26.4169 38.4686 27.3021C41.326 29.0894 44.1834 30.8767 47.0968 32.5911C44.3515 30.6245 41.5669 28.7252 38.7767 26.8315C37.3592 25.8846 35.9417 24.9657 34.541 24.0357Z" fill="black"/>
</svg>
