<svg width="38" height="38" viewBox="0 0 38 38" fill="none" xmlns="http://www.w3.org/2000/svg">
<path d="M25.3333 17.4165C27.9617 17.4165 30.0675 15.2948 30.0675 12.6665C30.0675 10.0382 27.9617 7.9165 25.3333 7.9165C22.705 7.9165 20.5833 10.0382 20.5833 12.6665C20.5833 15.2948 22.705 17.4165 25.3333 17.4165ZM12.6667 17.4165C15.295 17.4165 17.4008 15.2948 17.4008 12.6665C17.4008 10.0382 15.295 7.9165 12.6667 7.9165C10.0383 7.9165 7.91667 10.0382 7.91667 12.6665C7.91667 15.2948 10.0383 17.4165 12.6667 17.4165ZM12.6667 20.5832C8.9775 20.5832 1.58334 22.4357 1.58334 26.1248V30.0832H23.75V26.1248C23.75 22.4357 16.3558 20.5832 12.6667 20.5832ZM25.3333 20.5832C24.8742 20.5832 24.3517 20.6148 23.7975 20.6623C25.6342 21.9923 26.9167 23.7815 26.9167 26.1248V30.0832H36.4167V26.1248C36.4167 22.4357 29.0225 20.5832 25.3333 20.5832Z" fill="#007BFF"/>
</svg>
