<svg width="34" height="34" viewBox="0 0 34 34" fill="none" xmlns="http://www.w3.org/2000/svg">
<path d="M30.8912 14.2256H29.75V14.1668H17V19.8335H25.0063C23.8383 23.1322 20.6997 25.5002 17 25.5002C12.3059 25.5002 8.50004 21.6943 8.50004 17.0002C8.50004 12.306 12.3059 8.50016 17 8.50016C19.1668 8.50016 21.1381 9.31758 22.6391 10.6528L26.6461 6.64575C24.116 4.2877 20.7315 2.8335 17 2.8335C9.1765 2.8335 2.83337 9.17662 2.83337 17.0002C2.83337 24.8237 9.1765 31.1668 17 31.1668C24.8236 31.1668 31.1667 24.8237 31.1667 17.0002C31.1667 16.0503 31.069 15.1231 30.8912 14.2256Z" fill="#FFC107"/>
<path d="M4.4668 10.4063L9.12125 13.8197C10.3807 10.7017 13.4308 8.50016 17 8.50016C19.1668 8.50016 21.1381 9.31758 22.6391 10.6528L26.6461 6.64575C24.116 4.2877 20.7315 2.8335 17 2.8335C11.5586 2.8335 6.83971 5.90554 4.4668 10.4063Z" fill="#FF3D00"/>
<path d="M17.0001 31.1667C20.6593 31.1667 23.9842 29.7663 26.4981 27.489L22.1135 23.7787C20.6912 24.8561 18.9232 25.5 17.0001 25.5C13.3153 25.5 10.1866 23.1505 9.00793 19.8716L4.38818 23.431C6.73277 28.0188 11.4942 31.1667 17.0001 31.1667Z" fill="#4CAF50"/>
<path d="M30.8911 14.2253H29.75V14.1665H17V19.8332H25.0063C24.4453 21.4177 23.426 22.7841 22.1113 23.7793C22.112 23.7786 22.1128 23.7786 22.1135 23.7779L26.498 27.4881C26.1878 27.77 31.1667 24.0832 31.1667 16.9998C31.1667 16.05 31.0689 15.1228 30.8911 14.2253Z" fill="#1976D2"/>
</svg>
