<svg width="92" height="114" viewBox="0 0 92 114" fill="none" xmlns="http://www.w3.org/2000/svg">
<path d="M9.57955 29.9724C11.2572 28.0543 19.5282 28.7813 21.0996 29.0777C22.671 29.374 25.5734 31.13 25.4783 32.763C25.3833 34.3959 18.337 36.4259 14.8978 35.5591C11.4585 34.6923 8.32688 31.4096 9.57955 29.9724Z" fill="#407BFF"/>
<path opacity="0.2" d="M9.57955 29.9724C11.2572 28.0543 19.5282 28.7813 21.0996 29.0777C22.671 29.374 25.5734 31.13 25.4783 32.763C25.3833 34.3959 18.337 36.4259 14.8978 35.5591C11.4585 34.6923 8.32688 31.4096 9.57955 29.9724Z" fill="white"/>
<path d="M42.5627 27.9205C42.5627 27.9205 46.0691 27.1712 46.3151 27.7695C46.5612 28.3679 47.3329 33.5575 47.003 34.374C46.6166 35.129 46.1437 35.8366 45.5937 36.4823L46.5948 39.7817L42.6802 42.8295L42.2272 38.708C42.2272 38.708 39.6603 37.0303 39.7722 34.2342C39.884 31.4381 42.5627 27.9205 42.5627 27.9205Z" fill="#E4897B"/>
<path opacity="0.2" d="M42.5627 27.9205C42.5627 27.9205 46.0691 27.1712 46.3151 27.7695C46.5612 28.3679 47.3329 33.5575 47.003 34.374C46.6166 35.129 46.1437 35.8366 45.5937 36.4823L46.5948 39.7817L42.6802 42.8295L42.2272 38.708C42.2272 38.708 39.6603 37.0303 39.7722 34.2342C39.884 31.4381 42.5627 27.9205 42.5627 27.9205Z" fill="black"/>
<path d="M33.3523 32.7632C35.6898 33.8034 40.2811 44.3392 41.3324 44.7251C42.3838 45.111 42.0371 40.8105 42.0371 40.8105L46.7569 38.9651C46.7569 38.9651 49.9725 48.3041 47.73 50.7088C45.9572 52.6381 42.0538 53.6224 33.369 47.5045C25.3833 41.9066 33.3523 32.7632 33.3523 32.7632Z" fill="#407BFF"/>
<path opacity="0.1" d="M33.3523 32.7632C35.6898 33.8034 40.2811 44.3392 41.3324 44.7251C42.3838 45.111 42.0371 40.8105 42.0371 40.8105L46.7569 38.9651C46.7569 38.9651 49.9725 48.3041 47.73 50.7088C45.9572 52.6381 42.0538 53.6224 33.369 47.5045C25.3833 41.9066 33.3523 32.7632 33.3523 32.7632Z" fill="black"/>
<path d="M33.52 32.4558C36.551 33.921 41.3995 44.0877 41.3995 44.0877L36.6405 52.2189C33.9843 50.5635 31.9766 48.0465 30.9532 45.0887C29.3594 40.257 33.52 32.4558 33.52 32.4558Z" fill="#407BFF"/>
<path opacity="0.6" d="M33.52 32.4558C36.551 33.921 41.3995 44.0877 41.3995 44.0877L36.6405 52.2189C33.9843 50.5635 31.9766 48.0465 30.9532 45.0887C29.3594 40.257 33.52 32.4558 33.52 32.4558Z" fill="white"/>
<path d="M39.4982 79.9283C39.4982 79.9283 86.5683 73.1729 89.0512 83.5018C91.6796 94.4179 53.8871 101.783 31.2999 102.555C8.71274 103.326 2.22012 98.366 5.84391 70.4494L36.3106 70.3767L39.4982 79.9283Z" fill="#263238"/>
<path opacity="0.2" d="M39.4982 79.9283C39.4982 79.9283 86.5683 73.1729 89.0512 83.5018C91.6796 94.4179 53.8871 101.783 31.2999 102.555C8.71274 103.326 2.22012 98.366 5.84391 70.4494L36.3106 70.3767L39.4982 79.9283Z" fill="black"/>
<path d="M82.0106 95.9389C81.986 95.9562 81.9567 95.9655 81.9267 95.9655C81.8966 95.9655 81.8673 95.9562 81.8428 95.9389C81.8207 95.924 81.8046 95.9018 81.7975 95.8762C81.7903 95.8506 81.7925 95.8232 81.8036 95.7991C81.8763 95.5474 82.6257 93.3776 83.3807 93.1483C83.4613 93.1287 83.5457 93.1308 83.6252 93.1543C83.7048 93.1779 83.7767 93.2222 83.8336 93.2825C83.939 93.3689 84.0194 93.4818 84.0665 93.6096C84.1137 93.7374 84.126 93.8754 84.1021 94.0095C83.9802 94.4175 83.7314 94.776 83.3918 95.0329C82.9643 95.3823 82.5014 95.686 82.0106 95.9389ZM82.2063 95.5194C82.9084 95.2103 83.4774 94.6611 83.8113 93.9704C83.8307 93.8779 83.8231 93.7818 83.7894 93.6936C83.7557 93.6053 83.6973 93.5286 83.6211 93.4727C83.6001 93.447 83.5716 93.4283 83.5396 93.4193C83.5076 93.4103 83.4736 93.4114 83.4422 93.4223C83.3788 93.4452 83.3201 93.4793 83.2688 93.523C82.7983 94.1197 82.4384 94.7959 82.2063 95.5194Z" fill="#407BFF"/>
<path d="M81.9714 95.967C81.9469 95.9753 81.9204 95.976 81.8954 95.969C81.8705 95.962 81.8482 95.9477 81.8316 95.9278C81.7589 95.8663 80.7131 94.5465 80.8865 93.6574C80.9072 93.5448 80.9499 93.4374 81.0123 93.3414C81.0747 93.2454 81.1555 93.1627 81.25 93.0981C81.3286 93.0222 81.4306 92.9754 81.5394 92.9652C81.6481 92.955 81.7571 92.9822 81.8484 93.0422C82.4076 93.4281 82.3293 95.1896 82.0609 95.8383V95.9054C82.0511 95.9214 82.038 95.9351 82.0226 95.9457C82.0072 95.9562 81.9898 95.9635 81.9714 95.967ZM81.3786 93.3833C81.2829 93.4657 81.2178 93.578 81.1941 93.7021C81.0878 94.2613 81.6135 95.1057 81.8931 95.514C82.0665 94.759 82.0105 93.5231 81.6918 93.2771C81.6582 93.2771 81.5911 93.21 81.429 93.3218L81.3786 93.361V93.3833Z" fill="#407BFF"/>
<path d="M65.7091 101.47L75.5739 101.476H80.3105L80.8753 96.4929L76.491 95.9057L65.793 94.4797L65.7091 101.47Z" fill="#E4897B"/>
<path d="M79.8072 95.8885L78.6049 101.576C78.5861 101.651 78.5833 101.73 78.5966 101.807C78.6099 101.883 78.6391 101.956 78.6823 102.021C78.7254 102.086 78.7816 102.141 78.8473 102.183C78.9129 102.224 78.9865 102.252 79.0634 102.264L81.8987 102.773C81.8987 102.773 85.6679 103.729 86.7248 103.058C89.8174 101.078 92.7925 88.5626 91.5342 87.6343C91.0756 87.2987 90.2759 87.8076 89.8565 88.1935C88.5871 89.4909 85.8804 93.1035 84.8235 94.1716C83.5708 95.4243 81.3507 95.4634 80.3776 95.4131C80.2409 95.4088 80.1073 95.4549 80.0021 95.5425C79.897 95.6301 79.8277 95.7532 79.8072 95.8885Z" fill="#263238"/>
<path opacity="0.2" d="M65.7091 101.47L75.5739 101.476L76.491 95.9057L65.793 94.4797L65.7091 101.47Z" fill="black"/>
<path opacity="0.2" d="M79.8072 95.8885L78.6049 101.576C78.5861 101.651 78.5833 101.73 78.5966 101.807C78.6099 101.883 78.6391 101.956 78.6823 102.021C78.7254 102.086 78.7816 102.141 78.8473 102.183C78.9129 102.224 78.9865 102.252 79.0634 102.264L81.8987 102.773C81.8987 102.773 85.6679 103.729 86.7248 103.058C89.8174 101.078 92.7925 88.5626 91.5342 87.6343C91.0756 87.2987 90.2759 87.8076 89.8565 88.1935C88.5871 89.4909 85.8804 93.1035 84.8235 94.1716C83.5708 95.4243 81.3507 95.4634 80.3776 95.4131C80.2409 95.4088 80.1073 95.4549 80.0021 95.5425C79.897 95.6301 79.8277 95.7532 79.8072 95.8885Z" fill="white"/>
<path d="M14.8978 74.4031L5.37418 74.5317L5.55872 71.4392L14.8978 71.2323V74.4031Z" fill="black"/>
<path d="M33.6822 70.8299L36.5231 70.7628L37.5409 74.1125L33.6822 74.1573V70.8299Z" fill="black"/>
<path d="M32.4631 70.8521V74.1739L16.363 74.3864V71.2044L32.4631 70.8521Z" fill="black"/>
<path d="M23.1855 73.5922L23.1352 72.3004C23.1136 71.9642 23.2254 71.6331 23.4462 71.3787C23.6671 71.1243 23.9793 70.9672 24.3152 70.9415L27.2231 70.824C27.3864 70.8178 27.5491 70.8454 27.7011 70.9051C27.8532 70.9648 27.9913 71.0552 28.1067 71.1707C28.3495 71.4107 28.4898 71.7354 28.4982 72.0767L28.5485 73.3685C28.5701 73.7047 28.4583 74.0358 28.2375 74.2902C28.0166 74.5445 27.7044 74.7016 27.3685 74.7274L24.455 74.8504H24.4102C24.0828 74.8403 23.7722 74.7035 23.5437 74.4687C23.3152 74.234 23.1868 73.9197 23.1855 73.5922ZM27.3518 74.185C27.5472 74.1692 27.7285 74.077 27.8563 73.9283C27.984 73.7796 28.0479 73.5864 28.034 73.3909L27.9893 72.099C27.9847 71.8989 27.9024 71.7084 27.76 71.5678C27.6934 71.4996 27.6131 71.4464 27.5244 71.4117C27.4357 71.377 27.3406 71.3616 27.2455 71.3665L24.3319 71.4895C24.1371 71.5052 23.9561 71.5965 23.8276 71.7438C23.6991 71.8911 23.6332 72.0828 23.6441 72.278L23.6944 73.5754C23.6944 73.6723 23.7137 73.7682 23.7513 73.8576C23.7889 73.9469 23.844 74.0278 23.9133 74.0955C23.9825 74.1632 24.0647 74.2164 24.1548 74.252C24.245 74.2875 24.3413 74.3046 24.4382 74.3024L27.3518 74.185Z" fill="white"/>
<path d="M23.6832 73.1729H25.1428C25.2318 73.1729 25.3172 73.1375 25.3801 73.0746C25.443 73.0117 25.4784 72.9263 25.4784 72.8373C25.4784 72.7483 25.443 72.663 25.3801 72.6001C25.3172 72.5371 25.2318 72.5018 25.1428 72.5018H23.6832C23.5942 72.5018 23.5089 72.5371 23.446 72.6001C23.3831 72.663 23.3477 72.7483 23.3477 72.8373C23.3477 72.9263 23.3831 73.0117 23.446 73.0746C23.5089 73.1375 23.5942 73.1729 23.6832 73.1729Z" fill="white"/>
<path d="M36.2547 103.779C36.2704 103.754 36.2929 103.734 36.3196 103.721C36.3463 103.708 36.3762 103.703 36.4057 103.707C36.431 103.712 36.454 103.725 36.4712 103.744C36.4883 103.763 36.4987 103.787 36.5007 103.813C36.5566 104.07 36.9034 106.341 36.3385 106.894C36.2771 106.949 36.2024 106.986 36.122 107.003C36.0415 107.02 35.9581 107.015 35.88 106.989C35.7494 106.959 35.6291 106.895 35.5309 106.804C35.4328 106.713 35.3603 106.597 35.3208 106.469C35.2384 106.052 35.2913 105.619 35.4717 105.233C35.683 104.724 35.9453 104.236 36.2547 103.779ZM36.2547 104.238C35.7732 104.837 35.5231 105.589 35.55 106.358C35.5747 106.45 35.6262 106.532 35.6978 106.595C35.7695 106.658 35.8582 106.698 35.9527 106.71C35.9824 106.723 36.0154 106.727 36.0473 106.721C36.0792 106.715 36.1086 106.699 36.1316 106.676C36.1773 106.625 36.2134 106.567 36.2379 106.503C36.3925 105.758 36.4133 104.991 36.2994 104.238H36.2547Z" fill="#407BFF"/>
<path d="M51.2978 92.662L41.9364 95.7769L37.4402 97.2701L38.4804 102.18L42.8256 101.347L53.4229 99.3224L51.2978 92.662Z" fill="#E4897B"/>
<path d="M39.6939 102.437L39.0508 96.6549C39.0442 96.5775 39.0216 96.5023 38.9843 96.4342C38.9471 96.366 38.8961 96.3064 38.8345 96.259C38.773 96.2117 38.7023 96.1777 38.6268 96.1592C38.5514 96.1407 38.473 96.1381 38.3965 96.1516L35.5444 96.5654C35.5444 96.5654 31.669 96.8506 30.8805 97.8236C28.5709 100.676 29.7061 113.482 31.1937 113.974C31.7529 114.147 32.3121 113.415 32.5805 112.895C33.3746 111.267 34.8174 106.984 35.4773 105.625C36.2658 104.042 38.3573 103.304 39.3024 103.047C39.4294 103.008 39.5385 102.926 39.6102 102.814C39.6819 102.702 39.7116 102.569 39.6939 102.437Z" fill="#263238"/>
<path d="M36.2994 103.718C36.3196 103.703 36.3441 103.695 36.3693 103.695C36.3945 103.695 36.419 103.703 36.4392 103.718C36.5287 103.718 38.0665 104.417 38.3294 105.284C38.363 105.391 38.3745 105.504 38.3629 105.615C38.3514 105.727 38.3171 105.835 38.2623 105.933C38.2284 106.037 38.1601 106.126 38.0686 106.186C37.9771 106.246 37.8679 106.273 37.759 106.262C37.0935 106.179 36.3329 104.585 36.2602 103.869V103.802C36.2657 103.771 36.2792 103.742 36.2994 103.718ZM38.0218 105.726C38.0623 105.608 38.0623 105.48 38.0218 105.362C37.854 104.803 36.9984 104.311 36.5566 104.087C36.758 104.831 37.3787 105.899 37.7702 105.949C37.8093 105.949 37.8876 105.949 37.9771 105.787V105.726H38.0218Z" fill="#407BFF"/>
<path opacity="0.2" d="M51.2978 92.662L41.9364 95.7769L42.8256 101.347L53.4229 99.3224L51.2978 92.662Z" fill="black"/>
<path d="M44.4529 102.219L47.1204 102.465L45.5266 93.2381L42.4565 94.8487L44.4529 102.219Z" fill="#407BFF"/>
<path opacity="0.6" d="M44.4529 102.219L47.1204 102.465L45.5266 93.2381L42.4565 94.8487L44.4529 102.219Z" fill="white"/>
<path opacity="0.2" d="M39.6939 102.437L39.0508 96.6549C39.0442 96.5775 39.0216 96.5023 38.9843 96.4342C38.9471 96.366 38.8961 96.3064 38.8345 96.259C38.773 96.2117 38.7023 96.1777 38.6268 96.1592C38.5514 96.1407 38.473 96.1381 38.3965 96.1516L35.5444 96.5654C35.5444 96.5654 31.669 96.8506 30.8805 97.8236C28.5709 100.676 29.7061 113.482 31.1937 113.974C31.7529 114.147 32.3121 113.415 32.5805 112.895C33.3746 111.267 34.8174 106.984 35.4773 105.625C36.2658 104.042 38.3573 103.304 39.3024 103.047C39.4294 103.008 39.5385 102.926 39.6102 102.814C39.6819 102.702 39.7116 102.569 39.6939 102.437Z" fill="white"/>
<path d="M74.6791 95.1842C74.6791 95.1842 30.8861 78.1782 17.4758 81.019C4.06558 83.8599 4.00406 90.8558 10.7987 97.4211C17.5933 103.986 27.7544 101.442 27.7544 101.442C27.7544 101.442 19.7742 96.6606 20.3335 93.7079C20.8927 90.7552 25.9593 97.505 25.9593 97.505C25.9593 97.505 52.4275 103.975 74.2764 102.27L74.6791 95.1842Z" fill="#263238"/>
<path d="M75.2104 94.4737L72.7498 93.3496L71.3349 102.566L74.7518 102.001L75.2104 94.4737Z" fill="#407BFF"/>
<path opacity="0.6" d="M75.2104 94.4737L72.7498 93.3496L71.3349 102.566L74.7518 102.001L75.2104 94.4737Z" fill="white"/>
<path d="M33.52 32.4555C33.52 32.4555 22.2964 26.0244 1.88459 33.8591C1.88459 33.8591 6.66039 59.9694 5.37417 72.4457L36.5734 71.2155C36.5734 71.2155 37.3731 45.67 33.52 32.4555Z" fill="#407BFF"/>
<path opacity="0.5" d="M33.52 32.4555C33.52 32.4555 22.2964 26.0244 1.88459 33.8591C1.88459 33.8591 6.66039 59.9694 5.37417 72.4457L36.5734 71.2155C36.5734 71.2155 37.3731 45.67 33.52 32.4555Z" fill="white"/>
<path d="M36.3665 33.0763C36.3661 33.1547 36.3822 33.2323 36.4137 33.304C36.4452 33.3758 36.4915 33.4402 36.5495 33.4929C36.6075 33.5456 36.676 33.5856 36.7504 33.6101C36.8249 33.6347 36.9036 33.6433 36.9816 33.6355L43.066 32.9756C43.2342 32.9532 43.389 32.8717 43.5027 32.7457C43.6164 32.6197 43.6816 32.4574 43.6868 32.2878L43.7427 20.1358C43.7457 20.0527 43.7319 19.9698 43.7019 19.8922C43.672 19.8146 43.6267 19.7438 43.5687 19.6843C43.5107 19.6247 43.4411 19.5775 43.3644 19.5455C43.2876 19.5135 43.2051 19.4975 43.1219 19.4983L37.0376 20.1581C36.8639 20.2003 36.7093 20.299 36.5979 20.4388C36.4865 20.5785 36.4248 20.7512 36.4224 20.9299L36.3665 33.0763Z" fill="#263238"/>
<path opacity="0.3" d="M37.0879 20.7736L37.0264 33.043C37.0156 33.1174 37.023 33.1932 37.0479 33.264C37.0729 33.3349 37.1146 33.3986 37.1696 33.4497C37.2246 33.5009 37.2912 33.5379 37.3637 33.5577C37.4361 33.5774 37.5123 33.5793 37.5856 33.5631L42.7417 33.0039C43.0884 32.9647 43.7036 32.7075 43.7036 32.3608L43.7651 20.0578C43.7651 19.7111 43.1443 19.4986 42.7976 19.5377L37.6415 20.097C37.4804 20.1179 37.3334 20.1997 37.2305 20.3254C37.1276 20.4512 37.0766 20.6115 37.0879 20.7736Z" fill="white"/>
<path d="M28.7778 43.159L34.3701 37.8967C34.3701 37.8967 34.1464 30.6268 34.4092 29.7824C34.672 28.9379 40.5607 28.4626 41.1814 28.3284C41.8022 28.1942 42.6578 35.3914 42.1489 36.2246C41.64 37.0579 39.3528 37.9918 39.3528 37.9918L33.6598 45.821L28.7778 43.159Z" fill="#E4897B"/>
<path d="M1.68887 34.5136C4.97152 31.807 17.9064 46.1511 19.4275 47.0291C20.9486 47.9071 31.5292 39.7592 31.5292 39.7592L35.4997 43.7912C35.4997 43.7912 26.3172 53.3931 20.6802 55.6636C15.0432 57.934 4.79817 47.9518 3.15963 45.2899C-1.11845 38.3499 1.68887 34.5136 1.68887 34.5136Z" fill="#407BFF"/>
<path d="M8.10878 31.8123C8.10878 31.8123 12.9237 37.3598 19.2933 37.3598L24.1194 42.4879L24.6171 36.5042C24.6171 36.5042 28.213 32.0304 24.1194 30.7274C17.0564 28.4961 8.10878 31.8123 8.10878 31.8123Z" fill="#407BFF"/>
<path d="M23.3142 33.1434C21.6365 32.271 20.9486 31.0854 20.7864 29.788C20.7039 28.8444 20.8104 27.8939 21.0996 26.9919C21.2451 26.4819 21.4168 25.9798 21.6141 25.4876L14.7021 17.8206C14.9649 22.0148 14.7859 29.5644 11.576 31.9355C17.2018 37.0915 23.3142 33.1434 23.3142 33.1434Z" fill="#E4897B"/>
<path opacity="0.2" d="M15.8093 22.0039C15.1439 26.9475 18.8795 29.1061 20.7865 29.7715C20.7039 28.828 20.8104 27.8774 21.0996 26.9754L15.8093 22.0039Z" fill="black"/>
<path d="M30.7071 7.20106C30.7071 7.20106 32.0549 14.924 28.0061 17.9885C23.9573 21.0531 23.6497 6.64184 23.6497 6.64184L30.7071 7.20106Z" fill="#263238"/>
<path opacity="0.3" d="M30.7071 7.20106C30.7071 7.20106 32.0549 14.924 28.0061 17.9885C23.9573 21.0531 23.6497 6.64184 23.6497 6.64184L30.7071 7.20106Z" fill="white"/>
<path d="M16.212 24.4082C17.1015 25.6628 18.378 26.5911 19.8457 27.0507C21.3134 27.5103 22.8913 27.4759 24.3375 26.9527C26.2227 26.3111 27.7925 24.9752 28.7275 23.2171C28.8617 22.9766 28.9735 22.7249 29.0854 22.4677C31.0035 17.6863 31.4677 9.39298 26.3955 6.40112C25.2785 5.73317 24.009 5.36237 22.7081 5.32404C21.4072 5.28572 20.1181 5.58114 18.9637 6.18218C17.8093 6.78321 16.828 7.66982 16.1133 8.75755C15.3987 9.84528 14.9744 11.0979 14.881 12.396C14.3889 17.9436 13.8353 21.1815 16.212 24.4082Z" fill="#E4897B"/>
<path d="M23.0122 15.1755C22.9171 15.6173 23.124 16.0255 23.426 16.0647C23.728 16.1038 23.9852 15.7795 24.0747 15.3321C24.1642 14.8847 23.9573 14.4876 23.6665 14.4429C23.3757 14.3982 23.0849 14.7225 23.0122 15.1755Z" fill="#263238"/>
<path d="M28.0844 15.9193C27.9837 16.3611 28.2018 16.7637 28.4926 16.8084C28.7834 16.8532 29.0518 16.5176 29.1469 16.0703C29.2419 15.6229 29.0239 15.2258 28.7331 15.1811C28.4423 15.1364 28.1459 15.5055 28.0844 15.9193Z" fill="#263238"/>
<path d="M26.4402 15.9195C26.7696 17.3704 27.2984 18.7687 28.0116 20.0745C27.6677 20.2518 27.2887 20.3507 26.902 20.3643C26.5152 20.3778 26.1303 20.3056 25.7747 20.1528L26.4402 15.9195Z" fill="#DE5753"/>
<path d="M21.6812 13.3021C21.7283 13.3163 21.7783 13.3181 21.8263 13.3074C21.8743 13.2966 21.9187 13.2736 21.9552 13.2405C22.1865 13.0005 22.471 12.8182 22.7858 12.7084C23.1005 12.5986 23.4367 12.5644 23.7671 12.6086C23.8359 12.6222 23.9073 12.6089 23.9666 12.5715C24.0259 12.534 24.0686 12.4753 24.0859 12.4073C24.0941 12.3731 24.0954 12.3376 24.0897 12.303C24.084 12.2683 24.0713 12.2351 24.0526 12.2054C24.0338 12.1756 24.0093 12.15 23.9804 12.1299C23.9515 12.1099 23.919 12.0958 23.8846 12.0885C23.4681 12.0234 23.0421 12.059 22.6423 12.1923C22.2424 12.3256 21.8802 12.5527 21.5861 12.8547C21.5613 12.8791 21.5415 12.9083 21.5281 12.9405C21.5146 12.9726 21.5076 13.0071 21.5076 13.042C21.5076 13.0769 21.5146 13.1114 21.5281 13.1436C21.5415 13.1757 21.5613 13.2049 21.5861 13.2294C21.6142 13.2579 21.6462 13.2824 21.6812 13.3021Z" fill="#263238"/>
<path d="M30.517 14.5043C30.5643 14.5318 30.6191 14.5436 30.6736 14.5378C30.7406 14.5171 30.7969 14.471 30.8303 14.4093C30.8637 14.3477 30.8717 14.2754 30.8525 14.2079C30.7351 13.801 30.5213 13.4285 30.2292 13.1218C29.9372 12.8152 29.5755 12.5835 29.1748 12.4463C29.1066 12.4273 29.0337 12.4361 28.9719 12.4707C28.9101 12.5052 28.8644 12.5628 28.8449 12.6309C28.8288 12.699 28.8388 12.7707 28.873 12.8317C28.9071 12.8928 28.963 12.9389 29.0294 12.9608C29.3432 13.0776 29.625 13.2665 29.8523 13.5123C30.0797 13.758 30.246 14.0538 30.338 14.3756C30.3578 14.4079 30.3839 14.4359 30.4146 14.4579C30.4453 14.48 30.4801 14.4958 30.517 14.5043Z" fill="#263238"/>
<path d="M19.942 6.12715L19.9979 8.59893C19.5658 8.75437 19.2079 9.06673 18.9955 9.47392C18.7831 9.88111 18.7317 10.3533 18.8515 10.7967C19.4108 12.9329 17.9512 16.0031 16.2455 17.116C16.2455 17.116 16.2903 16.2212 15.5185 16.3554C14.7468 16.4896 14.4896 21.148 15.731 23.5023C15.731 23.5023 13.7178 21.2654 12.9349 16.2939C12.2303 11.6803 12.4596 7.90549 13.5557 6.26695L19.942 6.12715Z" fill="#263238"/>
<path opacity="0.3" d="M19.942 6.12715L19.9979 8.59893C19.5658 8.75437 19.2079 9.06673 18.9955 9.47392C18.7831 9.88111 18.7317 10.3533 18.8515 10.7967C19.4108 12.9329 17.9512 16.0031 16.2455 17.116C16.2455 17.116 16.2903 16.2212 15.5185 16.3554C14.7468 16.4896 14.4896 21.148 15.731 23.5023C15.731 23.5023 13.7178 21.2654 12.9349 16.2939C12.2303 11.6803 12.4596 7.90549 13.5557 6.26695L19.942 6.12715Z" fill="white"/>
<path d="M11.8053 16.5566C12.0157 17.2186 12.3547 17.8325 12.8029 18.3631C13.251 18.8938 13.7995 19.3308 14.4169 19.6492C16.0945 20.4936 17.2633 19.0899 17.1123 17.3451C16.9669 15.7849 15.9435 13.4305 14.1317 13.3243C12.3198 13.218 11.302 14.9069 11.8053 16.5566Z" fill="#E4897B"/>
<path d="M19.9979 8.599C19.9979 8.599 29.1245 11.9544 31.5236 8.03978C33.9227 4.12519 28.0173 0.328043 26.9044 0.635617C25.7915 0.943192 26.9044 2.20145 26.9044 2.20145C26.9044 2.20145 21.1835 -0.594677 19.9979 0.115541C18.8124 0.825758 21.1164 1.57512 21.1164 1.57512C21.1164 1.57512 10.8882 1.23958 12.9237 7.92234C15.2863 7.28754 17.7986 7.52785 19.9979 8.599Z" fill="#263238"/>
<path d="M25.2994 21.3213C25.1784 21.7503 24.96 22.1455 24.6612 22.4763C24.3625 22.807 23.9914 23.0644 23.577 23.2283C23.253 23.3492 22.9106 23.4135 22.5648 23.4184C20.7249 23.4688 20.1154 21.7911 20.9318 20.9075C21.122 20.7051 21.3637 20.5582 21.6309 20.4825C21.6586 20.4674 21.689 20.4579 21.7203 20.4545C23.2079 20.0687 24.7234 20.9411 25.1708 21.2319L25.2994 21.3213Z" fill="#263238"/>
<path d="M23.577 23.2285C23.253 23.3494 22.9106 23.4137 22.5648 23.4187C20.7249 23.469 20.1154 21.7913 20.9318 20.9077C21.9161 21.2712 23.3477 21.9926 23.577 23.2285Z" fill="#DE5753"/>
<path d="M25.1708 21.232L24.7458 21.6458L21.6309 20.4826C21.6586 20.4675 21.689 20.458 21.7204 20.4547C23.2079 20.0688 24.7234 20.9524 25.1708 21.232Z" fill="white"/>
<path d="M1.88459 33.8595C3.9761 31.8798 16.2735 43.2265 16.2735 43.2265L7.62226 53.6282C7.62226 53.6282 -4.56888 39.9662 1.88459 33.8595Z" fill="#407BFF"/>
<path opacity="0.6" d="M1.88459 33.8595C3.9761 31.8798 16.2735 43.2265 16.2735 43.2265L7.62226 53.6282C7.62226 53.6282 -4.56888 39.9662 1.88459 33.8595Z" fill="white"/>
<path d="M8.10878 31.8126L9.57955 29.9727C9.57955 29.9727 12.4875 33.5965 16.2903 34.5808L19.2821 37.3769L15.7478 37.0917L14.9146 38.5513C14.9146 38.5513 9.52921 35.7999 8.10878 31.8126Z" fill="#407BFF"/>
<path d="M24.5892 36.5045V34.1726C24.5892 34.1726 24.8968 30.6998 21.0996 29.078C21.0996 29.078 25.4504 28.983 27.7209 34.5808H26.5465L24.5892 36.5045Z" fill="#407BFF"/>
<path opacity="0.6" d="M8.10878 31.8126L9.57955 29.9727C9.57955 29.9727 12.4875 33.5965 16.2903 34.5808L19.2821 37.3769L15.7478 37.0917L14.9146 38.5513C14.9146 38.5513 9.52921 35.7999 8.10878 31.8126Z" fill="white"/>
<path opacity="0.6" d="M24.5892 36.5045V34.1726C24.5892 34.1726 24.8968 30.6998 21.0996 29.078C21.0996 29.078 25.4504 28.983 27.7209 34.5808H26.5465L24.5892 36.5045Z" fill="white"/>
</svg>
