<svg width="41" height="105" viewBox="0 0 41 105" fill="none" xmlns="http://www.w3.org/2000/svg">
<path d="M18.4145 23.139H14.184V105H18.4145V23.139Z" fill="#263238"/>
<path d="M29.0132 5.39745H7.01905C5.15845 5.39745 3.37398 6.13619 2.05781 7.4513C0.741647 8.76642 0.00148729 10.5503 0 12.4109V26.0618H14.0269V25.9777H21.9661V26.0618H35.993V12.4109C35.9915 10.5571 35.2567 8.77912 33.949 7.46513C32.6414 6.15114 30.867 5.40782 29.0132 5.39745Z" fill="#407BFF"/>
<path opacity="0.2" d="M36.0154 26.0618H21.9885V12.4109C21.9893 11.4891 22.1715 10.5766 22.525 9.72525C22.8784 8.87394 23.396 8.10058 24.0483 7.44932C24.7006 6.79806 25.4748 6.28166 26.3267 5.9296C27.1786 5.57754 28.0914 5.39672 29.0132 5.39745C30.8738 5.39745 32.6582 6.13619 33.9744 7.45131C35.2906 8.76642 36.0307 10.5503 36.0322 12.4109L36.0154 26.0618Z" fill="black"/>
<path d="M18.3808 0H16.9557V1.12215L18.3808 1.85155V12.6803C18.0518 12.6808 17.7302 12.7776 17.4557 12.9589C17.1811 13.1402 16.9658 13.398 16.8361 13.7003C16.7065 14.0027 16.6683 14.3364 16.7264 14.6603C16.7844 14.9841 16.936 15.2838 17.1625 15.5224C17.389 15.761 17.6805 15.928 18.0008 16.0027C18.3212 16.0775 18.6565 16.0567 18.9652 15.9429C19.2739 15.8292 19.5425 15.6275 19.7378 15.3627C19.9331 15.098 20.0465 14.7818 20.064 14.4533V0H18.3808Z" fill="#407BFF"/>
<path opacity="0.6" d="M18.3808 0H16.9557V1.12215L18.3808 1.85155V12.6803C18.0518 12.6808 17.7302 12.7776 17.4557 12.9589C17.1811 13.1402 16.9658 13.398 16.8361 13.7003C16.7065 14.0027 16.6683 14.3364 16.7264 14.6603C16.7844 14.9841 16.936 15.2838 17.1625 15.5224C17.389 15.761 17.6805 15.928 18.0008 16.0027C18.3212 16.0775 18.6565 16.0567 18.9652 15.9429C19.2739 15.8292 19.5425 15.6275 19.7378 15.3627C19.9331 15.098 20.0465 14.7818 20.064 14.4533V0H18.3808Z" fill="white"/>
<path d="M40.2796 34.1639L36.7785 25.1306L36.0154 26.062L39.5109 35.0953C40.2515 36.9974 40.1505 38.7142 39.3987 39.9767C40.7957 38.7255 41.2166 36.5878 40.2796 34.1639Z" fill="#407BFF"/>
<path d="M26.2415 34.1638L23.1051 26.0619H21.9829L25.484 35.0952C26.9765 38.9498 31.3304 42.075 35.2074 42.075C37.1712 42.075 38.63 41.267 39.4043 39.9765C38.4437 40.7773 37.2201 41.1932 35.9705 41.1436C32.0879 41.1436 27.7395 38.0184 26.2415 34.1638Z" fill="#407BFF"/>
<path d="M39.5109 35.0952L36.0154 26.0619H23.1107L26.2415 34.1638C27.7395 38.0184 32.0879 41.1436 35.9649 41.1436C37.2145 41.1932 38.4381 40.7773 39.3987 39.9765C40.1505 38.7141 40.2347 36.9973 39.5109 35.0952Z" fill="#407BFF"/>
<path d="M22.746 25.1306L21.9773 26.062L23.8064 27.8631L22.746 25.1306Z" fill="#407BFF"/>
<path opacity="0.1" d="M39.5109 35.0952L36.0154 26.0619H23.1107L26.2415 34.1638C27.7395 38.0184 32.0879 41.1436 35.9649 41.1436C37.2145 41.1932 38.4381 40.7773 39.3987 39.9765C40.1505 38.7141 40.2347 36.9973 39.5109 35.0952Z" fill="black"/>
</svg>
