<svg width="161" height="11" viewBox="0 0 161 11" fill="none" xmlns="http://www.w3.org/2000/svg">
<path d="M24.1428 9.38479L0.26933 4.37287C-0.0703672 4.30605 -0.0926391 4.16683 0.224782 4.06102L12.7323 0.0960411C13.1226 -0.00921862 13.5312 -0.0282249 13.9296 0.0403498L37.803 5.05227C38.1427 5.12466 38.165 5.26388 37.8476 5.36412L25.3401 9.33468C24.9493 9.43808 24.5408 9.45518 24.1428 9.38479Z" fill="#263238"/>
<path opacity="0.9" d="M24.1428 9.38479L0.26933 4.37287C-0.0703672 4.30605 -0.0926391 4.16683 0.224782 4.06102L12.7323 0.0960411C13.1226 -0.00921862 13.5312 -0.0282249 13.9296 0.0403498L37.803 5.05227C38.1427 5.12466 38.165 5.26388 37.8476 5.36412L25.3401 9.33468C24.9493 9.43808 24.5408 9.45518 24.1428 9.38479Z" fill="white"/>
<path opacity="0.2" d="M21.5477 5.62587L21.247 5.31402H22.4888C24.0982 5.31402 25.7076 5.35301 27.3226 5.35858L32.1674 5.38642H37.0234C35.4307 5.34744 33.8269 5.3196 32.2231 5.28618L27.4172 5.20265C25.8134 5.17481 24.204 5.15811 22.6002 5.13583H21.0744H20.1889H18.9805C18.6741 5.14307 18.3679 5.11692 18.0672 5.05786C17.8875 5.0401 17.7179 4.96604 17.5827 4.84624L17.2764 4.54552L17.2263 4.50655L17.0481 4.32277L16.6583 3.9441C16.2406 3.54315 15.8453 3.1422 15.3998 2.74681C14.5477 1.9449 13.6734 1.14857 12.7323 0.363367C13.395 1.17641 14.1301 1.98945 14.8763 2.79693C15.2383 3.20345 15.6448 3.6044 16.029 4.00535L16.3297 4.31722H15.0935C13.4785 4.31722 11.8747 4.27823 10.2598 4.27266H5.4149H0.558912L5.35922 4.37847L10.1707 4.45644C11.7689 4.48428 13.3783 4.50098 14.9877 4.52326H16.5079L16.6193 4.6402L16.9089 4.94092C17.0999 5.10724 17.3367 5.21204 17.5883 5.24162C18.0107 5.31927 18.4397 5.35471 18.8691 5.34743H20.072H20.5342L20.9296 5.72612C21.3472 6.12708 21.7371 6.52803 22.177 6.92341C23.0401 7.72532 23.9033 8.52166 24.85 9.31243C24.1873 8.49382 23.4522 7.68077 22.706 6.87329C22.3329 6.45006 21.9375 6.02682 21.5477 5.62587Z" fill="black"/>
<path d="M147.074 10.2756L123.201 5.26371C122.855 5.19688 122.839 5.05767 123.156 4.95743L135.664 0.986875C136.052 0.884649 136.459 0.86567 136.855 0.931184L160.729 5.9431C161.074 6.0155 161.091 6.15472 160.773 6.25495L148.266 10.2255C147.877 10.3281 147.47 10.3452 147.074 10.2756Z" fill="#263238"/>
<path opacity="0.9" d="M147.074 10.2756L123.201 5.26371C122.855 5.19688 122.839 5.05767 123.156 4.95743L135.664 0.986875C136.052 0.884649 136.459 0.86567 136.855 0.931184L160.729 5.9431C161.074 6.0155 161.091 6.15472 160.773 6.25495L148.266 10.2255C147.877 10.3281 147.47 10.3452 147.074 10.2756Z" fill="white"/>
<path opacity="0.2" d="M144.451 6.51691L144.145 6.21063H145.387C146.996 6.21063 148.611 6.24404 150.22 6.24961H155.065C156.686 6.24961 158.301 6.24961 159.921 6.24961C158.329 6.21063 156.725 6.18278 155.126 6.14936L150.315 6.06583C148.717 6.06583 147.102 6.02129 145.498 5.99901H143.978H143.087H141.884C141.576 6.0049 141.268 5.98065 140.965 5.92661C140.786 5.9038 140.617 5.82822 140.481 5.70944L140.174 5.40872L140.13 5.36973L139.951 5.18597L139.556 4.80728C139.138 4.40633 138.749 4.00538 138.298 3.60999C137.451 2.80809 136.577 2.01732 135.636 1.22655C136.298 2.04516 137.033 2.85263 137.78 3.66011C138.142 4.06663 138.543 4.46759 138.932 4.86855L139.228 5.1804H137.991C136.382 5.1804 134.773 5.14142 133.163 5.13585L128.318 5.108C126.698 5.108 125.083 5.108 123.462 5.108C125.055 5.14698 126.659 5.17482 128.257 5.20823L133.068 5.28621C134.667 5.31405 136.276 5.33075 137.885 5.35303H139.406L139.517 5.46997L139.812 5.77069C140 5.93841 140.236 6.04351 140.486 6.07141C140.909 6.14884 141.338 6.18428 141.767 6.17722H142.975H143.432L143.827 6.55589C144.245 6.95684 144.635 7.3578 145.08 7.75875C145.938 8.55509 146.807 9.35143 147.748 10.1422C147.085 9.32359 146.35 8.51611 145.604 7.70306C145.242 7.31881 144.846 6.91786 144.451 6.51691Z" fill="black"/>
<path d="M80.9723 10.2757L104.846 5.2638C105.185 5.19697 105.208 5.05776 104.89 4.95752L92.3828 0.986963C91.9921 0.884612 91.5841 0.865635 91.1855 0.931272L67.3177 5.94319C66.9724 6.01558 66.9557 6.1548 67.2675 6.25504L79.7806 10.2256C80.1696 10.3282 80.5762 10.3453 80.9723 10.2757Z" fill="#263238"/>
<path opacity="0.9" d="M80.9723 10.2757L104.846 5.2638C105.185 5.19697 105.208 5.05776 104.89 4.95752L92.3828 0.986963C91.9921 0.884612 91.5841 0.865635 91.1855 0.931272L67.3177 5.94319C66.9724 6.01558 66.9557 6.1548 67.2675 6.25504L79.7806 10.2256C80.1696 10.3282 80.5762 10.3453 80.9723 10.2757Z" fill="white"/>
<path opacity="0.2" d="M83.5897 6.51691L83.896 6.21063H82.6541C81.0448 6.21063 79.4298 6.24405 77.8149 6.24961H72.97C71.355 6.24961 69.7401 6.24961 68.114 6.24961C69.7123 6.21063 71.3105 6.18278 72.9143 6.14936L77.7202 6.06583C79.324 6.06583 80.9334 6.02129 82.5428 5.99901H84.063H84.9485H86.1569C86.463 6.00518 86.7689 5.98093 87.0702 5.92661C87.2512 5.90357 87.4216 5.82808 87.5602 5.70944L87.8665 5.40872L87.9111 5.36974L88.0893 5.18597L88.4847 4.80728C88.9023 4.40633 89.2921 4.00538 89.7432 3.60999C90.5897 2.80809 91.464 2.01732 92.4051 1.22655C91.7424 2.04516 91.0073 2.85263 90.2611 3.66011C89.8991 4.06663 89.4982 4.46759 89.1084 4.86855L88.8132 5.1804H90.0495C91.6589 5.1804 93.2627 5.14142 94.8776 5.13585L99.7225 5.108C101.343 5.108 102.958 5.108 104.578 5.108C102.986 5.14698 101.382 5.17482 99.7782 5.20823L94.9667 5.28621C93.3685 5.31405 91.7591 5.33075 90.1553 5.35303L88.6016 5.33632L88.4847 5.45326L88.1951 5.75398C88.0056 5.91929 87.7709 6.02404 87.5213 6.0547C87.0989 6.13213 86.6698 6.16758 86.2404 6.16051H85.032H84.5754L84.18 6.53919C83.7623 6.94014 83.3669 7.3411 82.927 7.74205C82.0694 8.53839 81.2007 9.33472 80.2595 10.1255C80.9167 9.30688 81.6517 8.4994 82.398 7.68636C82.7711 7.31882 83.1832 6.91786 83.5897 6.51691Z" fill="black"/>
</svg>
