<svg width="25" height="25" viewBox="0 0 25 25" fill="none" xmlns="http://www.w3.org/2000/svg">
<g clip-path="url(#clip0_742_3917)">
<path d="M21.875 5.46875H12.5V7.8125H23.2422C22.8906 6.99219 22.4219 6.17188 21.875 5.46875Z" fill="#ED4C5C"/>
<path d="M23.9844 14.8438C24.1406 14.1016 24.2188 13.3203 24.2188 12.5H0.78125C0.78125 13.3203 0.859375 14.1016 1.01562 14.8438H23.9844Z" fill="#F9F9F9"/>
<path d="M12.5 0.78125V3.125H19.5312C17.5781 1.64062 15.1562 0.78125 12.5 0.78125Z" fill="#ED4C5C"/>
<path d="M12.5 5.46875H21.875C21.2109 4.57031 20.4297 3.78906 19.5312 3.125H12.5V5.46875ZM23.2422 7.8125H12.5V10.1562H23.9844C23.8281 9.33594 23.5547 8.55469 23.2422 7.8125Z" fill="#F9F9F9"/>
<path d="M12.5 10.1562V12.5H24.2188C24.2188 11.6797 24.1406 10.8984 23.9844 10.1562H12.5ZM1.75781 17.1875H23.2422C23.5547 16.4453 23.8281 15.6641 23.9844 14.8438H1.01562C1.17188 15.6641 1.44531 16.4453 1.75781 17.1875Z" fill="#ED4C5C"/>
<path d="M3.125 19.5312H21.875C22.4219 18.8281 22.8906 18.0078 23.2422 17.1875H1.75781C2.10938 18.0078 2.57812 18.8281 3.125 19.5312Z" fill="#F9F9F9"/>
<path d="M3.125 19.5312C3.78906 20.4297 4.57031 21.2109 5.46875 21.875H19.5312C20.4297 21.2109 21.2109 20.4297 21.875 19.5312H3.125Z" fill="#ED4C5C"/>
<path d="M5.46875 21.875C7.42188 23.3594 9.84375 24.2188 12.5 24.2188C15.1562 24.2188 17.5781 23.3594 19.5312 21.875H5.46875Z" fill="#F9F9F9"/>
<path d="M12.5 0.78125C6.01562 0.78125 0.78125 6.01562 0.78125 12.5H12.5V0.78125Z" fill="#2A5F9E"/>
<path d="M7.77344 10C6.60156 10 5.625 9.02344 5.625 7.8125C5.625 6.60156 6.60156 5.625 7.77344 5.625C8.24219 5.625 8.63281 5.78125 8.98438 6.01562C8.47656 5.42969 7.77344 5.07812 6.95312 5.07812C5.46875 5.07812 4.29688 6.28906 4.29688 7.8125C4.29688 9.33594 5.50781 10.5469 6.95312 10.5469C7.77344 10.5469 8.47656 10.1953 8.98438 9.60938C8.63281 9.84375 8.20312 10 7.77344 10ZM10.1562 7.34375L10.4297 6.64062L10.3516 7.38281L10.8984 6.875L10.5078 7.53906L11.2109 7.30469L10.5859 7.69531L11.3281 7.8125L10.5859 7.92969L11.2109 8.32031L10.5078 8.08594L10.8984 8.75L10.3516 8.24219L10.4297 8.98438L10.1562 8.28125L9.88281 8.98438L9.96094 8.24219L9.41406 8.75L9.80469 8.08594L9.10156 8.32031L9.72656 7.92969L8.98438 7.8125L9.72656 7.69531L9.10156 7.30469L9.80469 7.53906L9.41406 6.875L9.96094 7.38281L9.88281 6.64062L10.1562 7.34375Z" fill="#FFE62E"/>
</g>
<defs>
<clipPath id="clip0_742_3917">
<rect width="25" height="25" fill="white"/>
</clipPath>
</defs>
</svg>
