<svg width="18" height="19" viewBox="0 0 18 19" fill="none" xmlns="http://www.w3.org/2000/svg">
<path d="M6.28557 17.7853V14.8885C6.28557 14.149 6.88942 13.5495 7.6343 13.5495H10.3572C10.7149 13.5495 11.058 13.6906 11.3109 13.9417C11.5638 14.1928 11.7059 14.5334 11.7059 14.8885V17.7853C11.7037 18.0927 11.8251 18.3883 12.0433 18.6065C12.2615 18.8247 12.5584 18.9474 12.868 18.9473H14.7257C15.5933 18.9496 16.4262 18.609 17.0405 18.0008C17.6548 17.3925 18 16.5666 18 15.7053V7.45281C18 6.75706 17.6893 6.09711 17.1517 5.65073L10.8322 0.640296C9.73293 -0.238205 8.15789 -0.20984 7.09142 0.707664L0.916116 5.65073C0.353122 6.08395 0.0166285 6.74586 0 7.45281V15.6969C0 17.4921 1.46594 18.9473 3.27427 18.9473H5.08953C5.73274 18.9474 6.25547 18.4322 6.26013 17.7937L6.28557 17.7853Z" fill="#A8A8AA"/>
</svg>
