<svg width="40" height="40" viewBox="0 0 40 40" fill="none" xmlns="http://www.w3.org/2000/svg">
<path d="M15 30V8.33333L35 5V26.6667" stroke="#6A6A6A" stroke-width="3.33333" stroke-linecap="round" stroke-linejoin="round"/>
<path d="M10 35C12.7614 35 15 32.7614 15 30C15 27.2386 12.7614 25 10 25C7.23858 25 5 27.2386 5 30C5 32.7614 7.23858 35 10 35Z" stroke="#6A6A6A" stroke-width="3.33333" stroke-linecap="round" stroke-linejoin="round"/>
<path d="M30 31.6665C32.7614 31.6665 35 29.4279 35 26.6665C35 23.9051 32.7614 21.6665 30 21.6665C27.2386 21.6665 25 23.9051 25 26.6665C25 29.4279 27.2386 31.6665 30 31.6665Z" stroke="#6A6A6A" stroke-width="3.33333" stroke-linecap="round" stroke-linejoin="round"/>
</svg>
