<svg width="19" height="19" viewBox="0 0 19 19" fill="none" xmlns="http://www.w3.org/2000/svg">
<path fill-rule="evenodd" clip-rule="evenodd" d="M0 9.51438C0 4.50982 3.89145 0 9.26184 0C14.5121 0 18.4867 4.42419 18.4867 9.48584C18.4867 15.3562 13.8281 19.0002 9.24335 19.0002C7.72744 19.0002 6.04515 18.5816 4.69562 17.7633C4.22421 17.4684 3.82675 17.2496 3.31836 17.4208L1.45121 17.9917C0.979795 18.1439 0.554601 17.7633 0.693251 17.2496L1.31256 15.1184C1.41423 14.8234 1.39575 14.5094 1.24785 14.2621C0.452924 12.7588 0 11.1128 0 9.51438ZM4.9637 10.7416C4.31666 10.7416 3.78055 10.1898 3.78055 9.52377C3.78055 8.84825 4.30742 8.30593 4.9637 8.30593C5.61997 8.30593 6.14685 8.84825 6.14685 9.52377C6.14685 10.1898 5.61997 10.7321 4.9637 10.7416ZM12.3029 9.52377C12.3029 10.1898 12.8297 10.7416 13.486 10.7416C14.1423 10.7416 14.6692 10.1898 14.6692 9.52377C14.6692 8.84825 14.1423 8.30593 13.486 8.30593C12.8297 8.30593 12.3029 8.84825 12.3029 9.52377ZM8.04172 9.51444C8.04172 10.19 8.56859 10.7323 9.22487 10.7418C9.88115 10.7418 10.408 10.19 10.408 9.52395C10.408 8.84843 9.88115 8.30611 9.22487 8.30611C8.57783 8.2966 8.04172 8.84843 8.04172 9.51444Z" fill="#A8A8AA"/>
</svg>
