<svg width="38" height="38" viewBox="0 0 38 38" fill="none" xmlns="http://www.w3.org/2000/svg">
<path d="M32.0625 9.5H26.125C26.125 7.61033 25.3743 5.79806 24.0381 4.46186C22.7019 3.12567 20.8897 2.375 19 2.375C17.1103 2.375 15.2981 3.12567 13.9619 4.46186C12.6257 5.79806 11.875 7.61033 11.875 9.5H5.9375C5.30761 9.5 4.70352 9.75022 4.25812 10.1956C3.81272 10.641 3.5625 11.2451 3.5625 11.875V29.6875C3.5625 30.3174 3.81272 30.9215 4.25812 31.3669C4.70352 31.8123 5.30761 32.0625 5.9375 32.0625H32.0625C32.6924 32.0625 33.2965 31.8123 33.7419 31.3669C34.1873 30.9215 34.4375 30.3174 34.4375 29.6875V11.875C34.4375 11.2451 34.1873 10.641 33.7419 10.1956C33.2965 9.75022 32.6924 9.5 32.0625 9.5ZM14.25 15.4375C14.25 15.7524 14.1249 16.0545 13.9022 16.2772C13.6795 16.4999 13.3774 16.625 13.0625 16.625C12.7476 16.625 12.4455 16.4999 12.2228 16.2772C12.0001 16.0545 11.875 15.7524 11.875 15.4375V13.0625C11.875 12.7476 12.0001 12.4455 12.2228 12.2228C12.4455 12.0001 12.7476 11.875 13.0625 11.875C13.3774 11.875 13.6795 12.0001 13.9022 12.2228C14.1249 12.4455 14.25 12.7476 14.25 13.0625V15.4375ZM19 4.75C20.2598 4.75 21.468 5.25044 22.3588 6.14124C23.2496 7.03204 23.75 8.24022 23.75 9.5H14.25C14.25 8.24022 14.7504 7.03204 15.6412 6.14124C16.532 5.25044 17.7402 4.75 19 4.75ZM26.125 15.4375C26.125 15.7524 25.9999 16.0545 25.7772 16.2772C25.5545 16.4999 25.2524 16.625 24.9375 16.625C24.6226 16.625 24.3205 16.4999 24.0978 16.2772C23.8751 16.0545 23.75 15.7524 23.75 15.4375V13.0625C23.75 12.7476 23.8751 12.4455 24.0978 12.2228C24.3205 12.0001 24.6226 11.875 24.9375 11.875C25.2524 11.875 25.5545 12.0001 25.7772 12.2228C25.9999 12.4455 26.125 12.7476 26.125 13.0625V15.4375Z" fill="#007BFF"/>
</svg>
