<svg width="39" height="66" viewBox="0 0 39 66" fill="none" xmlns="http://www.w3.org/2000/svg">
<path d="M17.8132 44.8024C17.8132 44.5738 17.0383 21.832 13.353 18.2359C9.75687 14.7346 5.61438 18.1021 5.43597 18.2359L5.07914 17.8066C5.12932 17.7676 9.77916 13.9763 13.7432 17.8066C17.6014 21.5588 18.3596 43.81 18.3875 44.7578L17.8132 44.8024Z" fill="#407BFF"/>
<path d="M18.131 49.2741C18.131 49.0009 15.6054 21.9549 25.4738 10.6592L25.8919 11.0216C16.1852 22.1723 18.644 48.934 18.6886 49.2183L18.131 49.2741Z" fill="#407BFF"/>
<path d="M17.7352 46.4137L17.1776 46.3747C17.1776 46.0681 19.1123 15.649 11.8699 8.98646L12.2435 8.57389C19.6921 15.4204 17.83 45.1481 17.7352 46.4137Z" fill="#407BFF"/>
<path d="M18.6885 46.3972H18.131C18.131 45.5609 18.3708 25.8576 23.9628 22.6518C24.4934 22.3094 25.0981 22.0988 25.7266 22.0377C26.3551 21.9766 26.9891 22.0667 27.5756 22.3006C30.9543 23.7 32.6325 29.7214 32.6994 29.9722L32.1419 30.1228C32.1419 30.0614 30.4693 24.107 27.3415 22.8191C26.8336 22.6183 26.285 22.5424 25.7417 22.5977C25.1984 22.653 24.6763 22.8379 24.2193 23.1369C18.9227 26.181 18.6885 46.1965 18.6885 46.3972Z" fill="#407BFF"/>
<path d="M16.5086 46.4083L15.9511 46.3804C15.9511 46.2243 16.7985 30.8029 12.6338 25.367C11.6023 24.0456 10.5207 23.4156 9.37218 23.4881C6.64026 23.6776 4.35437 27.6752 4.3265 27.7142L3.84143 27.441C3.94178 27.2626 6.30016 23.1424 9.33315 22.9305C10.688 22.8413 11.948 23.5383 13.0798 25.0157C17.3672 30.6245 16.5476 45.7894 16.5086 46.4083Z" fill="#407BFF"/>
<path d="M17.4397 48.5103C17.3282 47.0105 14.7245 11.8134 19.3074 5.61359L19.7535 5.94254C15.2932 11.9751 17.9694 48.1033 17.9972 48.4657L17.4397 48.5103Z" fill="#407BFF"/>
<path d="M28.8246 25.8517C28.8246 25.8517 26.0759 26.8665 26.8955 29.2639C27.7151 31.6613 36.4126 35.5975 36.4126 35.5975C36.4126 35.5975 40.0533 32.2522 36.7081 26.8274C33.3629 21.4026 28.8859 24.1401 28.8246 25.8517Z" fill="#407BFF"/>
<path opacity="0.2" d="M28.8246 25.8517C28.8246 25.8517 26.0759 26.8665 26.8955 29.2639C27.7151 31.6613 36.4126 35.5975 36.4126 35.5975C36.4126 35.5975 40.0533 32.2522 36.7081 26.8274C33.3629 21.4026 28.8859 24.1401 28.8246 25.8517Z" fill="white"/>
<path d="M16.8654 21.2971C16.8654 21.2971 19.7925 21.1744 19.9598 23.7C20.127 26.2257 13.615 33.2116 13.615 33.2116C13.615 33.2116 8.96518 31.539 9.96316 25.2277C10.9611 18.9164 16.1351 19.7415 16.8654 21.2971Z" fill="#407BFF"/>
<path opacity="0.2" d="M16.8654 21.2971C16.8654 21.2971 19.7925 21.1744 19.9598 23.7C20.127 26.2257 13.615 33.2116 13.615 33.2116C13.615 33.2116 8.96518 31.539 9.96316 25.2277C10.9611 18.9164 16.1351 19.7415 16.8654 21.2971Z" fill="white"/>
<path d="M14.39 9.20944C14.39 9.20944 16.3413 8.99757 16.1852 7.81002C16.0291 6.62248 8.59163 3.55604 4.20383 8.50694C4.20383 8.50694 6.99149 13.3352 11.0726 13.3965C15.1538 13.4578 14.39 9.20944 14.39 9.20944Z" fill="#407BFF"/>
<path opacity="0.2" d="M14.39 9.20944C14.39 9.20944 16.3413 8.99757 16.1852 7.81002C16.0291 6.62248 8.59163 3.55604 4.20383 8.50694C4.20383 8.50694 6.99149 13.3352 11.0726 13.3965C15.1538 13.4578 14.39 9.20944 14.39 9.20944Z" fill="white"/>
<path d="M18.0251 6.31589C18.0251 6.31589 16.2577 7.17448 15.7615 6.08172C15.2653 4.98895 19.9542 -1.54535 26.2989 0.339118C26.2989 0.339118 26.4662 5.91446 23.0541 8.1446C19.642 10.3747 18.0251 6.31589 18.0251 6.31589Z" fill="#407BFF"/>
<path opacity="0.2" d="M18.0251 6.31589C18.0251 6.31589 16.2577 7.17448 15.7615 6.08172C15.2653 4.98895 19.9542 -1.54535 26.2989 0.339118C26.2989 0.339118 26.4662 5.91446 23.0541 8.1446C19.642 10.3747 18.0251 6.31589 18.0251 6.31589Z" fill="white"/>
<path d="M8.77559 24.893C8.77559 24.893 10.1248 23.7779 8.66965 23.2705C7.21449 22.7632 0.0724795 22.8914 0 29.961C0 29.961 8.31284 31.3437 9.34428 28.6508C10.3757 25.9579 8.77559 24.893 8.77559 24.893Z" fill="#407BFF"/>
<path opacity="0.2" d="M8.77559 24.893C8.77559 24.893 10.1248 23.7779 8.66965 23.2705C7.21449 22.7632 0.0724795 22.8914 0 29.961C0 29.961 8.31284 31.3437 9.34428 28.6508C10.3757 25.9579 8.77559 24.893 8.77559 24.893Z" fill="white"/>
<path d="M25.7302 9.03093C25.7302 9.03093 24.381 7.94374 25.8362 7.40851C27.2913 6.87327 34.4333 7.02938 34.5058 14.0989C34.5058 14.0989 26.193 15.4816 25.1616 12.7887C24.1301 10.0958 25.7302 9.03093 25.7302 9.03093Z" fill="#407BFF"/>
<path opacity="0.2" d="M25.7302 9.03093C25.7302 9.03093 24.381 7.94374 25.8362 7.40851C27.2913 6.87327 34.4333 7.02938 34.5058 14.0989C34.5058 14.0989 26.193 15.4816 25.1616 12.7887C24.1301 10.0958 25.7302 9.03093 25.7302 9.03093Z" fill="white"/>
<path d="M21.3369 14.7293C21.3369 14.7293 21.2142 13.4024 22.2847 13.9209C23.3551 14.4394 27.0739 18.4536 23.2157 22.2839C23.2157 22.2839 18.0251 18.4369 18.9618 16.4354C19.8984 14.4338 21.3369 14.7293 21.3369 14.7293Z" fill="#407BFF"/>
<path opacity="0.2" d="M21.3369 14.7293C21.3369 14.7293 21.2142 13.4024 22.2847 13.9209C23.3551 14.4394 27.0739 18.4536 23.2157 22.2839C23.2157 22.2839 18.0251 18.4369 18.9618 16.4354C19.8984 14.4338 21.3369 14.7293 21.3369 14.7293Z" fill="white"/>
<path d="M7.57133 16.6133C7.57133 16.6133 8.37419 15.554 7.19779 15.4258C6.02139 15.2975 0.724818 16.7081 1.95697 21.9879C1.95697 21.9879 8.40206 21.5029 8.67525 19.3062C8.94844 17.1095 7.57133 16.6133 7.57133 16.6133Z" fill="#407BFF"/>
<path opacity="0.2" d="M7.57133 16.6133C7.57133 16.6133 8.37419 15.554 7.19779 15.4258C6.02139 15.2975 0.724818 16.7081 1.95697 21.9879C1.95697 21.9879 8.40206 21.5029 8.67525 19.3062C8.94844 17.1095 7.57133 16.6133 7.57133 16.6133Z" fill="white"/>
<path d="M29.3431 65.9999H7.23124L4.84499 41.7918H31.7293L29.3431 65.9999Z" fill="#263238"/>
<path d="M32.9057 39.1213H3.66301V44.4625H32.9057V39.1213Z" fill="#263238"/>
<path opacity="0.2" d="M32.9057 39.1213H3.66301V44.4625H32.9057V39.1213Z" fill="white"/>
</svg>
