<svg width="40" height="40" viewBox="0 0 40 40" fill="none" xmlns="http://www.w3.org/2000/svg">
<path d="M27.5 6.66683C27.5 6.66683 29.375 10.4168 27.5 15.0002M33.3333 3.3335C33.3333 3.3335 37.0833 10.0835 33.3333 18.3335M15.8333 16.6668C16.5994 16.6668 17.3579 16.5159 18.0656 16.2228C18.7734 15.9296 19.4164 15.5 19.9581 14.9583C20.4998 14.4166 20.9295 13.7735 21.2226 13.0658C21.5158 12.3581 21.6667 11.5995 21.6667 10.8335C21.6667 10.0675 21.5158 9.30891 21.2226 8.60118C20.9295 7.89344 20.4998 7.25038 19.9581 6.70871C19.4164 6.16703 18.7734 5.73735 18.0656 5.4442C17.3579 5.15105 16.5994 5.00016 15.8333 5.00016C14.2862 5.00016 12.8025 5.61474 11.7085 6.70871C10.6146 7.80267 9.99999 9.2864 9.99999 10.8335C9.99999 12.3806 10.6146 13.8643 11.7085 14.9583C12.8025 16.0522 14.2862 16.6668 15.8333 16.6668ZM3.33333 34.0002V35.0002H28.3333V34.0002C28.3333 30.2668 28.3333 28.4002 27.6067 26.9735C26.9675 25.7191 25.9477 24.6993 24.6933 24.0602C23.2667 23.3335 21.4 23.3335 17.6667 23.3335H14C10.2667 23.3335 8.39999 23.3335 6.97333 24.0602C5.71897 24.6993 4.69914 25.7191 4.06 26.9735C3.33333 28.4002 3.33333 30.2668 3.33333 34.0002Z" stroke="#6A6A6A" stroke-width="3.33333" stroke-linecap="round" stroke-linejoin="round"/>
</svg>
