<svg width="13" height="13" viewBox="0 0 13 13" fill="none" xmlns="http://www.w3.org/2000/svg">
<g clip-path="url(#clip0_882_3871)">
<path d="M6.50002 0.519531C3.20044 0.519531 0.52002 3.19995 0.52002 6.49953C0.52002 9.79911 3.20044 12.4795 6.50002 12.4795C9.7996 12.4795 12.48 9.79911 12.48 6.49953C12.48 3.19995 9.7996 0.519531 6.50002 0.519531ZM6.50002 1.03953C9.51857 1.03953 11.96 3.48098 11.96 6.49953C11.96 9.51809 9.51857 11.9595 6.50002 11.9595C3.48147 11.9595 1.04002 9.51809 1.04002 6.49953C1.04002 3.48098 3.48147 1.03953 6.50002 1.03953ZM6.50002 2.85953C6.29315 2.85953 6.09475 2.94171 5.94848 3.08799C5.8022 3.23427 5.72002 3.43266 5.72002 3.63953C5.72002 3.8464 5.8022 4.0448 5.94848 4.19107C6.09475 4.33735 6.29315 4.41953 6.50002 4.41953C6.70689 4.41953 6.90528 4.33735 7.05156 4.19107C7.19784 4.0448 7.28002 3.8464 7.28002 3.63953C7.28002 3.43266 7.19784 3.23427 7.05156 3.08799C6.90528 2.94171 6.70689 2.85953 6.50002 2.85953ZM5.46002 5.45953V5.97953H5.72002H5.98002V9.35953H5.72002H5.46002V9.87953H5.72002H5.98002H7.02002H7.28002H7.54002V9.35953H7.28002H7.02002V5.45953H6.76002H5.72002H5.46002Z" fill="#007BFF"/>
</g>
<defs>
<clipPath id="clip0_882_3871">
<rect width="13" height="13" fill="white"/>
</clipPath>
</defs>
</svg>
