<svg width="20" height="20" viewBox="0 0 20 20" fill="none" xmlns="http://www.w3.org/2000/svg">
<g clip-path="url(#clip0_696_3298)">
<path d="M10.8917 2.13204L17.975 6.09037C18.1829 6.19418 18.3578 6.3539 18.48 6.5516C18.6022 6.74929 18.6668 6.97714 18.6667 7.20954V8.40954C18.6667 8.98454 18.2 9.45121 17.625 9.45121H17V16.1179H17.8333C18.0543 16.1179 18.2663 16.2057 18.4226 16.3619C18.5789 16.5182 18.6667 16.7302 18.6667 16.9512C18.6667 17.1722 18.5789 17.3842 18.4226 17.5405C18.2663 17.6967 18.0543 17.7845 17.8333 17.7845H2.83333C2.61232 17.7845 2.40036 17.6967 2.24408 17.5405C2.0878 17.3842 2 17.1722 2 16.9512C2 16.7302 2.0878 16.5182 2.24408 16.3619C2.40036 16.2057 2.61232 16.1179 2.83333 16.1179H3.66667V9.45121H3.04167C2.46667 9.45121 2 8.98454 2 8.40954V7.20954C2 6.77454 2.225 6.37454 2.58833 6.14787L9.77417 2.13204C9.94777 2.04521 10.1392 2 10.3333 2C10.5274 2 10.7181 2.04521 10.8917 2.13204ZM15.3333 9.45121H5.33333V16.1179H7.83333V11.1179H9.5V16.1179H11.1667V11.1179H12.8333V16.1179H15.3333V9.45121ZM10.3333 3.71621L3.66667 7.46621V7.78454H17V7.46621L10.3333 3.71621ZM10.3333 5.28454C10.5543 5.28454 10.7663 5.37234 10.9226 5.52862C11.0789 5.6849 11.1667 5.89686 11.1667 6.11787C11.1667 6.33889 11.0789 6.55085 10.9226 6.70713C10.7663 6.86341 10.5543 6.95121 10.3333 6.95121C10.1123 6.95121 9.90036 6.86341 9.74408 6.70713C9.5878 6.55085 9.5 6.33889 9.5 6.11787C9.5 5.89686 9.5878 5.6849 9.74408 5.52862C9.90036 5.37234 10.1123 5.28454 10.3333 5.28454Z" fill="#007BFF"/>
</g>
<defs>
<clipPath id="clip0_696_3298">
<rect width="20" height="20" fill="white"/>
</clipPath>
</defs>
</svg>
