<svg width="25" height="25" viewBox="0 0 25 25" fill="none" xmlns="http://www.w3.org/2000/svg">
<path d="M21.0938 6.25H17.1875C17.1875 5.0068 16.6936 3.81451 15.8146 2.93544C14.9355 2.05636 13.7432 1.5625 12.5 1.5625C11.2568 1.5625 10.0645 2.05636 9.18544 2.93544C8.30636 3.81451 7.8125 5.0068 7.8125 6.25H3.90625C3.49185 6.25 3.09442 6.41462 2.8014 6.70765C2.50837 7.00067 2.34375 7.3981 2.34375 7.8125V19.5312C2.34375 19.9457 2.50837 20.3431 2.8014 20.6361C3.09442 20.9291 3.49185 21.0938 3.90625 21.0938H21.0938C21.5082 21.0938 21.9056 20.9291 22.1986 20.6361C22.4916 20.3431 22.6562 19.9457 22.6562 19.5312V7.8125C22.6562 7.3981 22.4916 7.00067 22.1986 6.70765C21.9056 6.41462 21.5082 6.25 21.0938 6.25ZM9.375 10.1562C9.375 10.3635 9.29269 10.5622 9.14618 10.7087C8.99966 10.8552 8.80095 10.9375 8.59375 10.9375C8.38655 10.9375 8.18784 10.8552 8.04132 10.7087C7.89481 10.5622 7.8125 10.3635 7.8125 10.1562V8.59375C7.8125 8.38655 7.89481 8.18784 8.04132 8.04132C8.18784 7.89481 8.38655 7.8125 8.59375 7.8125C8.80095 7.8125 8.99966 7.89481 9.14618 8.04132C9.29269 8.18784 9.375 8.38655 9.375 8.59375V10.1562ZM12.5 3.125C13.3288 3.125 14.1237 3.45424 14.7097 4.04029C15.2958 4.62634 15.625 5.4212 15.625 6.25H9.375C9.375 5.4212 9.70424 4.62634 10.2903 4.04029C10.8763 3.45424 11.6712 3.125 12.5 3.125ZM17.1875 10.1562C17.1875 10.3635 17.1052 10.5622 16.9587 10.7087C16.8122 10.8552 16.6135 10.9375 16.4062 10.9375C16.199 10.9375 16.0003 10.8552 15.8538 10.7087C15.7073 10.5622 15.625 10.3635 15.625 10.1562V8.59375C15.625 8.38655 15.7073 8.18784 15.8538 8.04132C16.0003 7.89481 16.199 7.8125 16.4062 7.8125C16.6135 7.8125 16.8122 7.89481 16.9587 8.04132C17.1052 8.18784 17.1875 8.38655 17.1875 8.59375V10.1562Z" fill="#007BFF"/>
</svg>
