<svg width="103" height="103" viewBox="0 0 103 103" fill="none" xmlns="http://www.w3.org/2000/svg">
<path d="M51.4999 0C23.0844 0 0 23.0844 0 51.4999C0 79.9155 23.0844 103 51.4999 103C79.9155 103 103 79.9155 103 51.4999C103 23.0844 79.9155 0 51.4999 0ZM51.4999 4.47826C77.4952 4.47826 98.5216 25.5047 98.5216 51.4999C98.5216 77.4952 77.4952 98.5216 51.4999 98.5216C25.5047 98.5216 4.47826 77.4952 4.47826 51.4999C4.47826 25.5047 25.5047 4.47826 51.4999 4.47826ZM73.865 29.0824C73.5011 29.0896 73.1445 29.1853 72.826 29.3614C72.5074 29.5374 72.2366 29.7884 72.0369 30.0927L49.1952 63.7627L32.8697 48.6136C32.6552 48.4072 32.4018 48.2457 32.1242 48.1384C31.8466 48.0311 31.5504 47.9803 31.2529 47.9888C30.9554 47.9973 30.6626 48.065 30.3916 48.188C30.1206 48.311 29.8768 48.4867 29.6745 48.705C29.4722 48.9233 29.3155 49.1797 29.2134 49.4593C29.1114 49.7389 29.0661 50.036 29.0802 50.3332C29.0942 50.6305 29.1675 50.922 29.2955 51.1906C29.4235 51.4593 29.6038 51.6997 29.8259 51.8979L49.9693 70.5894L75.7455 32.6029C75.9819 32.2641 76.12 31.8666 76.1445 31.4542C76.169 31.0418 76.079 30.6306 75.8844 30.2663C75.6897 29.9019 75.3981 29.5984 75.0417 29.3895C74.6853 29.1805 74.278 29.0743 73.865 29.0824Z" fill="#1ED760"/>
</svg>
