<svg width="25" height="25" viewBox="0 0 25 25" fill="none" xmlns="http://www.w3.org/2000/svg">
<g clip-path="url(#clip0_696_3417)">
<path d="M12.5 2.0835C10.5661 2.0835 8.71144 2.85172 7.34399 4.21918C5.97654 5.58663 5.20831 7.44129 5.20831 9.37516V13.0502C5.20846 13.2118 5.17102 13.3712 5.09894 13.5158L3.3104 17.0918C3.22303 17.2665 3.18177 17.4607 3.19055 17.6558C3.19933 17.851 3.25785 18.0406 3.36055 18.2068C3.46325 18.3729 3.60672 18.5101 3.77734 18.6052C3.94796 18.7003 4.14006 18.7502 4.3354 18.7502H20.6646C20.8599 18.7502 21.052 18.7003 21.2226 18.6052C21.3932 18.5101 21.5367 18.3729 21.6394 18.2068C21.7421 18.0406 21.8006 17.851 21.8094 17.6558C21.8182 17.4607 21.7769 17.2665 21.6896 17.0918L19.9021 13.5158C19.8296 13.3713 19.7918 13.2118 19.7916 13.0502V9.37516C19.7916 7.44129 19.0234 5.58663 17.656 4.21918C16.2885 2.85172 14.4338 2.0835 12.5 2.0835ZM12.5 21.8752C11.8535 21.8753 11.2229 21.6751 10.6949 21.302C10.167 20.9289 9.7677 20.4013 9.55206 19.7918H15.4479C15.2323 20.4013 14.833 20.9289 14.305 21.302C13.7771 21.6751 13.1465 21.8753 12.5 21.8752Z" fill="#A8A8AA"/>
</g>
<defs>
<clipPath id="clip0_696_3417">
<rect width="25" height="25" fill="white"/>
</clipPath>
</defs>
</svg>
