<svg width="20" height="20" viewBox="0 0 20 20" fill="none" xmlns="http://www.w3.org/2000/svg">
<path d="M15.8334 5H13.3334V4.16667C13.3334 3.72464 13.1578 3.30072 12.8453 2.98816C12.5327 2.67559 12.1088 2.5 11.6667 2.5H8.33341C7.89139 2.5 7.46746 2.67559 7.1549 2.98816C6.84234 3.30072 6.66675 3.72464 6.66675 4.16667V5H4.16675C3.50371 5 2.86782 5.26339 2.39898 5.73223C1.93014 6.20107 1.66675 6.83696 1.66675 7.5V15C1.66675 15.663 1.93014 16.2989 2.39898 16.7678C2.86782 17.2366 3.50371 17.5 4.16675 17.5H15.8334C16.4965 17.5 17.1323 17.2366 17.6012 16.7678C18.07 16.2989 18.3334 15.663 18.3334 15V7.5C18.3334 6.83696 18.07 6.20107 17.6012 5.73223C17.1323 5.26339 16.4965 5 15.8334 5ZM8.33341 4.16667H11.6667V5H8.33341V4.16667ZM16.6667 15C16.6667 15.221 16.579 15.433 16.4227 15.5893C16.2664 15.7455 16.0544 15.8333 15.8334 15.8333H4.16675C3.94573 15.8333 3.73377 15.7455 3.57749 15.5893C3.42121 15.433 3.33341 15.221 3.33341 15V10.325L7.23341 11.6667C7.3219 11.6787 7.4116 11.6787 7.50008 11.6667H12.5001C12.5905 11.665 12.6802 11.651 12.7667 11.625L16.6667 10.325V15ZM16.6667 8.56667L12.3667 10H7.63341L3.33341 8.56667V7.5C3.33341 7.27899 3.42121 7.06702 3.57749 6.91074C3.73377 6.75446 3.94573 6.66667 4.16675 6.66667H15.8334C16.0544 6.66667 16.2664 6.75446 16.4227 6.91074C16.579 7.06702 16.6667 7.27899 16.6667 7.5V8.56667Z" fill="#007BFF"/>
</svg>
