<svg width="278" height="256" viewBox="0 0 278 256" fill="none" xmlns="http://www.w3.org/2000/svg">
<path d="M95.8985 20.8097C124.622 2.95503 164.986 6.59439 190.379 33.0965C204.262 47.5917 209.902 67.5305 224.313 81.7147C240.538 97.6719 259.928 113.194 267.282 134.968C275.098 158.11 268.239 184.643 250.761 202.343C229.49 223.868 198.228 217.398 168.68 217.056C47.6854 215.625 -42.2441 139.447 72.1877 45.5387C81.7511 37.6379 86.401 26.6887 95.8985 20.8097Z" fill="#CCE9FF"/>
<path d="M203.141 87.407H164.558C162.381 87.407 160.6 85.7273 160.6 83.6743V60.034C160.6 57.981 162.381 56.3013 164.558 56.3013H203.141C205.318 56.3013 207.098 57.981 207.098 60.034V83.6743C207.098 85.7273 205.318 87.407 203.141 87.407Z" fill="white"/>
<path d="M158.49 60.6872V84.0476C158.49 87.2826 161.26 89.8955 164.689 89.8955H201.822C205.252 89.8955 208.022 87.2826 208.022 84.0476V60.6872C208.022 57.4522 205.252 54.8394 201.822 54.8394H164.689C161.26 54.8394 158.49 57.4522 158.49 60.6872ZM161.721 84.6386C161.688 84.452 161.59 84.2654 161.59 84.0787V60.7183C161.59 60.4073 161.688 60.1273 161.787 59.8785L174.879 70.4855L161.721 84.6386ZM201.822 57.7633C202.02 57.7633 202.218 57.8255 202.416 57.8877L183.256 73.3784L164.096 57.8877C164.294 57.8566 164.459 57.7633 164.689 57.7633H201.822ZM191.632 70.4233L204.724 59.8163C204.823 60.0962 204.922 60.3762 204.922 60.6561V84.0165C204.922 84.2343 204.856 84.3898 204.79 84.5764L191.632 70.4233ZM164.689 86.9716C164.36 86.9716 164.096 86.8782 163.799 86.816L177.221 72.3519L182.233 76.4267C182.53 76.6756 182.893 76.7689 183.256 76.7689C183.619 76.7689 183.981 76.6445 184.278 76.4267L189.291 72.3519L202.712 86.816C202.416 86.9093 202.152 86.9716 201.822 86.9716H164.689Z" fill="#FFBE55"/>
<path d="M221.938 154.284H192.918C190.742 154.284 188.961 152.605 188.961 150.552V133.319C188.961 131.266 190.742 129.586 192.918 129.586H221.938C224.115 129.586 225.896 131.266 225.896 133.319V150.552C225.896 152.605 224.115 154.284 221.938 154.284Z" fill="white"/>
<path d="M187.906 132.915V151.391C187.906 153.942 190.082 156.026 192.819 156.026H222.202C224.906 156.026 227.116 153.973 227.116 151.391V132.915C227.116 130.364 224.939 128.28 222.202 128.28H192.819C190.115 128.311 187.906 130.364 187.906 132.915ZM190.445 151.858C190.412 151.702 190.346 151.578 190.346 151.391V132.915C190.346 132.666 190.412 132.448 190.478 132.23L200.833 140.598L190.445 151.858ZM222.202 130.613C222.367 130.613 222.499 130.675 222.664 130.706L207.527 142.962L192.391 130.706C192.555 130.675 192.687 130.613 192.852 130.613H222.202ZM214.123 140.629L224.478 132.261C224.544 132.479 224.609 132.697 224.609 132.946V151.422C224.609 151.578 224.544 151.733 224.511 151.889L214.123 140.629ZM192.819 153.693C192.555 153.693 192.358 153.631 192.127 153.569L202.745 142.122L206.736 145.326C206.967 145.512 207.263 145.606 207.527 145.606C207.824 145.606 208.088 145.512 208.319 145.326L212.309 142.122L222.928 153.569C222.697 153.631 222.466 153.693 222.235 153.693H192.819Z" fill="#2A94F4"/>
<path d="M236.251 56.7369V69.2414C236.251 70.9833 237.735 72.3831 239.581 72.3831H259.467C261.313 72.3831 262.797 70.9833 262.797 69.2414V56.7369C262.797 54.995 261.313 53.5952 259.467 53.5952H239.581C237.735 53.5952 236.251 54.995 236.251 56.7369ZM237.998 69.5524C237.965 69.4591 237.932 69.3658 237.932 69.2414V56.7369C237.932 56.5814 237.965 56.4258 238.031 56.2703L245.056 61.9315L237.998 69.5524ZM259.467 55.1816C259.566 55.1816 259.665 55.2127 259.763 55.2438L249.507 63.549L239.251 55.2438C239.35 55.2127 239.449 55.1816 239.548 55.1816H259.467ZM254.025 61.9626L261.05 56.3014C261.083 56.4569 261.149 56.5814 261.149 56.768V69.2725C261.149 69.3658 261.116 69.4902 261.083 69.5835L254.025 61.9626ZM239.581 70.7967C239.416 70.7967 239.251 70.7656 239.12 70.7034L246.309 62.958L249.013 65.1354C249.178 65.2599 249.376 65.3221 249.54 65.3221C249.738 65.3221 249.936 65.2599 250.068 65.1354L252.772 62.958L259.961 70.7034C259.796 70.7345 259.665 70.7967 259.5 70.7967H239.581Z" fill="#CCE9FF"/>
<path d="M241.725 121.312H229.853C227.676 121.312 225.896 119.633 225.896 117.58V110.923C225.896 108.87 227.676 107.19 229.853 107.19H241.725C243.901 107.19 245.682 108.87 245.682 110.923V117.58C245.682 119.633 243.901 121.312 241.725 121.312Z" fill="white"/>
<path d="M225.401 109.368V119.073C225.401 120.41 226.555 121.499 227.973 121.499H243.407C244.825 121.499 245.979 120.41 245.979 119.073V109.368C245.979 108.03 244.825 106.941 243.407 106.941H227.973C226.555 106.973 225.401 108.03 225.401 109.368ZM226.753 119.321C226.72 119.228 226.687 119.166 226.687 119.073V109.368C226.687 109.243 226.72 109.119 226.753 109.025L232.194 113.411L226.753 119.321ZM243.407 108.186C243.506 108.186 243.572 108.217 243.637 108.217L235.69 114.656L227.742 108.217C227.808 108.217 227.907 108.186 227.973 108.186H243.407ZM239.153 113.411L244.594 109.025C244.627 109.15 244.66 109.243 244.66 109.368V119.073C244.66 119.166 244.627 119.228 244.594 119.321L239.153 113.411ZM227.973 120.286C227.841 120.286 227.709 120.255 227.61 120.224L233.184 114.22L235.261 115.9C235.393 115.993 235.525 116.055 235.69 116.055C235.855 116.055 235.987 115.993 236.119 115.9L238.196 114.22L243.769 120.224C243.637 120.255 243.539 120.286 243.407 120.286H227.973Z" fill="#FFBE55"/>
<path d="M201.954 29.4258V39.5041C201.954 40.9038 203.141 42.0236 204.625 42.0236H220.619C222.103 42.0236 223.29 40.9038 223.29 39.5041V29.4258C223.29 28.0261 222.103 26.9062 220.619 26.9062H204.625C203.174 26.9062 201.954 28.0261 201.954 29.4258ZM203.372 39.7529C203.339 39.6596 203.306 39.5974 203.306 39.5041V29.4258C203.306 29.3014 203.339 29.177 203.372 29.0525L209.011 33.6251L203.372 39.7529ZM220.652 28.1816C220.751 28.1816 220.817 28.2127 220.916 28.2438L212.672 34.9315L204.427 28.2438C204.526 28.2127 204.592 28.1816 204.691 28.1816H220.652ZM216.266 33.6251L221.905 29.0525C221.938 29.177 221.971 29.3014 221.971 29.4258V39.5041C221.971 39.5974 221.938 39.6596 221.905 39.7529L216.266 33.6251ZM204.625 40.7483C204.493 40.7483 204.361 40.7172 204.229 40.6861L210 34.4649L212.177 36.2069C212.309 36.3002 212.441 36.3624 212.606 36.3624C212.771 36.3624 212.902 36.3002 213.034 36.2069L215.211 34.4649L220.982 40.6861C220.85 40.7172 220.751 40.7483 220.586 40.7483H204.625Z" fill="#2A94F4"/>
<path d="M175.176 92.7882C175.723 92.7882 176.166 92.3704 176.166 91.855C176.166 91.3397 175.723 90.9219 175.176 90.9219C174.63 90.9219 174.187 91.3397 174.187 91.855C174.187 92.3704 174.63 92.7882 175.176 92.7882Z" fill="#6B6B6B"/>
<path d="M172.043 94.3746C172.59 94.3746 173.033 93.9568 173.033 93.4415C173.033 92.9261 172.59 92.5083 172.043 92.5083C171.497 92.5083 171.054 92.9261 171.054 93.4415C171.054 93.9568 171.497 94.3746 172.043 94.3746Z" fill="#6B6B6B"/>
<path d="M168.977 96.0543C169.523 96.0543 169.966 95.6365 169.966 95.1212C169.966 94.6058 169.523 94.188 168.977 94.188C168.43 94.188 167.987 94.6058 167.987 95.1212C167.987 95.6365 168.43 96.0543 168.977 96.0543Z" fill="#6B6B6B"/>
<path d="M166.503 98.4494C167.05 98.4494 167.493 98.0316 167.493 97.5162C167.493 97.0008 167.05 96.583 166.503 96.583C165.957 96.583 165.514 97.0008 165.514 97.5162C165.514 98.0316 165.957 98.4494 166.503 98.4494Z" fill="#6B6B6B"/>
<path d="M164.393 101.125C164.939 101.125 165.382 100.707 165.382 100.191C165.382 99.6761 164.939 99.2583 164.393 99.2583C163.846 99.2583 163.403 99.6761 163.403 100.191C163.403 100.707 163.846 101.125 164.393 101.125Z" fill="#6B6B6B"/>
<path d="M162.777 104.111C163.323 104.111 163.766 103.693 163.766 103.178C163.766 102.662 163.323 102.245 162.777 102.245C162.23 102.245 161.787 102.662 161.787 103.178C161.787 103.693 162.23 104.111 162.777 104.111Z" fill="#6B6B6B"/>
<path d="M161.754 107.315C162.301 107.315 162.744 106.897 162.744 106.381C162.744 105.866 162.301 105.448 161.754 105.448C161.208 105.448 160.765 105.866 160.765 106.381C160.765 106.897 161.208 107.315 161.754 107.315Z" fill="#6B6B6B"/>
<path d="M180.618 120.535C181.164 120.535 181.607 120.117 181.607 119.602C181.607 119.086 181.164 118.668 180.618 118.668C180.071 118.668 179.628 119.086 179.628 119.602C179.628 120.117 180.071 120.535 180.618 120.535Z" fill="#6B6B6B"/>
<path d="M177.056 120.535C177.602 120.535 178.045 120.117 178.045 119.602C178.045 119.086 177.602 118.668 177.056 118.668C176.51 118.668 176.067 119.086 176.067 119.602C176.067 120.117 176.51 120.535 177.056 120.535Z" fill="#6B6B6B"/>
<path d="M173.494 120.535C174.041 120.535 174.484 120.117 174.484 119.602C174.484 119.086 174.041 118.668 173.494 118.668C172.948 118.668 172.505 119.086 172.505 119.602C172.505 120.117 172.948 120.535 173.494 120.535Z" fill="#6B6B6B"/>
<path d="M169.933 120.535C170.479 120.535 170.922 120.117 170.922 119.602C170.922 119.086 170.479 118.668 169.933 118.668C169.386 118.668 168.944 119.086 168.944 119.602C168.944 120.117 169.386 120.535 169.933 120.535Z" fill="#6B6B6B"/>
<path d="M166.371 120.535C166.918 120.535 167.361 120.117 167.361 119.602C167.361 119.086 166.918 118.668 166.371 118.668C165.825 118.668 165.382 119.086 165.382 119.602C165.382 120.117 165.825 120.535 166.371 120.535Z" fill="#6B6B6B"/>
<path d="M221.839 115.122C222.386 115.122 222.829 114.704 222.829 114.189C222.829 113.674 222.386 113.256 221.839 113.256C221.293 113.256 220.85 113.674 220.85 114.189C220.85 114.704 221.293 115.122 221.839 115.122Z" fill="#6B6B6B"/>
<path d="M218.278 115.029C218.824 115.029 219.267 114.611 219.267 114.096C219.267 113.58 218.824 113.163 218.278 113.163C217.731 113.163 217.289 113.58 217.289 114.096C217.289 114.611 217.731 115.029 218.278 115.029Z" fill="#6B6B6B"/>
<path d="M214.716 114.936C215.263 114.936 215.706 114.518 215.706 114.003C215.706 113.487 215.263 113.069 214.716 113.069C214.17 113.069 213.727 113.487 213.727 114.003C213.727 114.518 214.17 114.936 214.716 114.936Z" fill="#6B6B6B"/>
<path d="M211.254 115.744C211.8 115.744 212.243 115.326 212.243 114.811C212.243 114.296 211.8 113.878 211.254 113.878C210.707 113.878 210.264 114.296 210.264 114.811C210.264 115.326 210.707 115.744 211.254 115.744Z" fill="#6B6B6B"/>
<path d="M207.824 116.647C208.37 116.647 208.813 116.229 208.813 115.713C208.813 115.198 208.37 114.78 207.824 114.78C207.278 114.78 206.835 115.198 206.835 115.713C206.835 116.229 207.278 116.647 207.824 116.647Z" fill="#6B6B6B"/>
<path d="M204.889 118.513C205.435 118.513 205.878 118.095 205.878 117.58C205.878 117.064 205.435 116.646 204.889 116.646C204.343 116.646 203.9 117.064 203.9 117.58C203.9 118.095 204.343 118.513 204.889 118.513Z" fill="#6B6B6B"/>
<path d="M202.218 120.69C202.764 120.69 203.207 120.272 203.207 119.757C203.207 119.242 202.764 118.824 202.218 118.824C201.671 118.824 201.228 119.242 201.228 119.757C201.228 120.272 201.671 120.69 202.218 120.69Z" fill="#6B6B6B"/>
<path d="M200.074 123.365C200.621 123.365 201.064 122.948 201.064 122.432C201.064 121.917 200.621 121.499 200.074 121.499C199.528 121.499 199.085 121.917 199.085 122.432C199.085 122.948 199.528 123.365 200.074 123.365Z" fill="#6B6B6B"/>
<path d="M198.557 126.382C199.104 126.382 199.547 125.965 199.547 125.449C199.547 124.934 199.104 124.516 198.557 124.516C198.011 124.516 197.568 124.934 197.568 125.449C197.568 125.965 198.011 126.382 198.557 126.382Z" fill="#6B6B6B"/>
<path d="M238.427 76.2399C238.973 76.2399 239.416 75.8221 239.416 75.3067C239.416 74.7913 238.973 74.3735 238.427 74.3735C237.881 74.3735 237.438 74.7913 237.438 75.3067C237.438 75.8221 237.881 76.2399 238.427 76.2399Z" fill="#6B6B6B"/>
<path d="M235.492 78.1686C236.038 78.1686 236.481 77.7508 236.481 77.2354C236.481 76.72 236.038 76.3022 235.492 76.3022C234.946 76.3022 234.503 76.72 234.503 77.2354C234.503 77.7508 234.946 78.1686 235.492 78.1686Z" fill="#6B6B6B"/>
<path d="M232.227 79.444C232.774 79.444 233.217 79.0262 233.217 78.5108C233.217 77.9954 232.774 77.5776 232.227 77.5776C231.681 77.5776 231.238 77.9954 231.238 78.5108C231.238 79.0262 231.681 79.444 232.227 79.444Z" fill="#6B6B6B"/>
<path d="M228.897 80.6569C229.443 80.6569 229.886 80.2391 229.886 79.7237C229.886 79.2083 229.443 78.7905 228.897 78.7905C228.35 78.7905 227.907 79.2083 227.907 79.7237C227.907 80.2391 228.35 80.6569 228.897 80.6569Z" fill="#6B6B6B"/>
<path d="M225.434 81.3727C225.98 81.3727 226.423 80.9549 226.423 80.4395C226.423 79.9241 225.98 79.5063 225.434 79.5063C224.888 79.5063 224.445 79.9241 224.445 80.4395C224.445 80.9549 224.888 81.3727 225.434 81.3727Z" fill="#6B6B6B"/>
<path d="M221.938 82.0255C222.485 82.0255 222.928 81.6077 222.928 81.0924C222.928 80.577 222.485 80.1592 221.938 80.1592C221.392 80.1592 220.949 80.577 220.949 81.0924C220.949 81.6077 221.392 82.0255 221.938 82.0255Z" fill="#6B6B6B"/>
<path d="M218.377 82.3058C218.923 82.3058 219.366 81.888 219.366 81.3726C219.366 80.8572 218.923 80.4395 218.377 80.4395C217.83 80.4395 217.387 80.8572 217.387 81.3726C217.387 81.888 217.83 82.3058 218.377 82.3058Z" fill="#6B6B6B"/>
<path d="M214.815 82.4303C215.362 82.4303 215.805 82.0125 215.805 81.4971C215.805 80.9818 215.362 80.564 214.815 80.564C214.269 80.564 213.826 80.9818 213.826 81.4971C213.826 82.0125 214.269 82.4303 214.815 82.4303Z" fill="#6B6B6B"/>
<path d="M211.254 82.337C211.8 82.337 212.243 81.9193 212.243 81.4039C212.243 80.8885 211.8 80.4707 211.254 80.4707C210.707 80.4707 210.264 80.8885 210.264 81.4039C210.264 81.9193 210.707 82.337 211.254 82.337Z" fill="#6B6B6B"/>
<path d="M197.799 36.8605C198.345 36.8605 198.788 36.4427 198.788 35.9273C198.788 35.4119 198.345 34.9941 197.799 34.9941C197.252 34.9941 196.809 35.4119 196.809 35.9273C196.809 36.4427 197.252 36.8605 197.799 36.8605Z" fill="#6B6B6B"/>
<path d="M194.369 37.7311C194.916 37.7311 195.358 37.3133 195.358 36.7979C195.358 36.2825 194.916 35.8647 194.369 35.8647C193.823 35.8647 193.38 36.2825 193.38 36.7979C193.38 37.3133 193.823 37.7311 194.369 37.7311Z" fill="#6B6B6B"/>
<path d="M191.533 39.691C192.079 39.691 192.522 39.2733 192.522 38.7579C192.522 38.2425 192.079 37.8247 191.533 37.8247C190.987 37.8247 190.544 38.2425 190.544 38.7579C190.544 39.2733 190.987 39.691 191.533 39.691Z" fill="#6B6B6B"/>
<path d="M189.423 42.2726C189.969 42.2726 190.412 41.8548 190.412 41.3394C190.412 40.824 189.969 40.4062 189.423 40.4062C188.876 40.4062 188.433 40.824 188.433 41.3394C188.433 41.8548 188.876 42.2726 189.423 42.2726Z" fill="#6B6B6B"/>
<path d="M188.169 45.4142C188.716 45.4142 189.159 44.9964 189.159 44.481C189.159 43.9656 188.716 43.5479 188.169 43.5479C187.623 43.5479 187.18 43.9656 187.18 44.481C187.18 44.9964 187.623 45.4142 188.169 45.4142Z" fill="#6B6B6B"/>
<path d="M187.774 48.7428C188.32 48.7428 188.763 48.325 188.763 47.8096C188.763 47.2943 188.32 46.8765 187.774 46.8765C187.227 46.8765 186.784 47.2943 186.784 47.8096C186.784 48.325 187.227 48.7428 187.774 48.7428Z" fill="#6B6B6B"/>
<path d="M188.037 52.1022C188.584 52.1022 189.027 51.6844 189.027 51.169C189.027 50.6536 188.584 50.2358 188.037 50.2358C187.491 50.2358 187.048 50.6536 187.048 51.169C187.048 51.6844 187.491 52.1022 188.037 52.1022Z" fill="#6B6B6B"/>
<path d="M130.525 218.362C130.789 218.269 131.019 218.207 131.283 218.113C131.283 218.113 131.184 217.927 131.019 217.553C128.315 212.265 105.825 170.459 62.4593 162.434C62.1295 162.372 61.7668 162.31 61.437 162.247C55.9298 161.314 50.1257 160.91 43.9919 161.19C43.9919 161.19 35.3848 161.345 24.799 168.375C24.5682 168.531 24.3374 168.686 24.0735 168.842C19.3248 172.108 14.2133 176.805 9.29964 183.461L9.00284 183.835C9.00284 183.835 9.06879 184.021 9.23368 184.364C10.7506 187.661 19.5886 205.236 40.4963 216.776C40.7601 216.931 41.0569 217.087 41.3208 217.211C60.2828 227.445 88.8743 232.609 130.525 218.362Z" fill="#0B4870"/>
<path d="M131.184 218.548L131.283 218.113L131.382 217.678L131.019 217.584L9.29964 183.523L9.00284 183.897C9.00284 183.897 9.06879 184.083 9.23368 184.426L130.525 218.362L131.184 218.548Z" fill="white"/>
<path d="M41.3537 217.304L59.5243 198.081L58.9307 197.397L40.5293 216.869C40.7931 217.024 41.0569 217.149 41.3537 217.304ZM81.7511 204.271L82.7734 204.395L62.4593 162.465C62.1295 162.403 61.7668 162.341 61.437 162.278L81.7511 204.271ZM36.1763 191.829L36.9018 191.393L24.7661 168.406C24.5352 168.562 24.3044 168.717 24.0406 168.873L36.1763 191.829Z" fill="white"/>
<path d="M128.81 216.527L129.206 216.807C129.206 216.807 129.272 216.682 129.437 216.496C131.547 213.354 147.706 187.785 137.582 163.118C137.516 162.932 137.417 162.714 137.351 162.527C136.032 159.417 134.284 156.337 132.042 153.32C132.042 153.32 129.041 149.027 121.456 146.041C121.291 145.979 121.126 145.917 120.928 145.855C117.466 144.548 113.047 143.553 107.605 143.335H107.276C107.276 143.335 107.21 143.428 107.045 143.646C105.693 145.512 98.6686 155.933 99.1962 170.459C99.1962 170.646 99.1962 170.832 99.2292 171.019C99.8558 184.052 106.616 200.258 128.81 216.527Z" fill="#2A94F4"/>
<path d="M128.942 216.931L129.239 216.838L129.535 216.745L129.47 216.527L107.605 143.397H107.276C107.276 143.397 107.21 143.491 107.045 143.709L128.81 216.589L128.942 216.931Z" fill="white"/>
<path d="M99.2292 171.019L116.312 173.725L116.476 173.197L99.1632 170.459C99.1962 170.646 99.1962 170.833 99.2292 171.019ZM120.335 187.07L120.599 187.63L137.582 163.149C137.516 162.963 137.417 162.745 137.351 162.558L120.335 187.07ZM111.958 159.79L112.453 160.008L121.423 146.072C121.258 146.01 121.093 145.948 120.895 145.886L111.958 159.79Z" fill="white"/>
<path d="M129.074 218.207C129.305 218.238 129.535 218.238 129.733 218.269V217.802C129.733 213.199 128.711 176.463 98.7675 156.804C98.5367 156.649 98.3058 156.493 98.042 156.337C94.2166 153.911 89.9295 151.734 85.1478 149.961C85.1478 149.961 78.5193 147.286 67.7687 148.841C67.5378 148.872 67.274 148.903 67.0432 148.934C62.1625 149.712 56.4574 151.361 50.1587 154.471C50.0268 154.533 49.9279 154.596 49.796 154.658C49.796 154.658 49.796 154.813 49.763 155.124C49.6311 157.924 49.5981 173.166 61.1072 188.065C61.2721 188.252 61.404 188.439 61.5689 188.656C72.0558 201.907 91.8752 214.785 129.074 218.207Z" fill="#FFBE55"/>
<path d="M129.502 218.549L129.733 218.269L129.964 217.989L129.733 217.802L50.1587 154.471C50.0268 154.533 49.9279 154.596 49.796 154.658C49.796 154.658 49.796 154.813 49.763 155.124L129.041 218.207L129.502 218.549Z" fill="white"/>
<path d="M61.5689 188.625L82.8064 180.942L82.6085 180.257L61.1072 188.034C61.2721 188.252 61.404 188.438 61.5689 188.625ZM97.3824 192.482L98.1079 192.917L98.8005 156.773C98.5696 156.617 98.3388 156.462 98.075 156.306L97.3824 192.482ZM67.4389 168.997L68.1644 168.935L67.7687 148.81C67.5378 148.841 67.274 148.872 67.0432 148.903L67.4389 168.997Z" fill="white"/>
<path d="M148.3 220.011L147.079 229.031L142.957 230.431L144.046 219.606L148.3 220.011ZM129.502 220.011L128.282 229.031L124.16 230.431L125.248 219.606L129.502 220.011Z" fill="#DBA17B"/>
<path d="M134.845 108.403L128.348 116.211L134.548 119.384L141.506 111.265L134.845 108.403Z" fill="#CC9271"/>
<path d="M151.498 108.963C151.301 107.781 151.169 106.568 151.07 105.355C151.004 104.391 151.037 103.427 151.07 102.462C151.169 101.498 151.169 100.534 151.103 99.6317C151.103 99.6628 151.07 99.6939 151.07 99.725C151.004 98.9162 150.872 98.1075 150.641 97.3298C149.981 95.3702 148.629 93.5349 146.519 92.8506C142.298 91.5131 137.153 95.2458 135.01 101.218C132.866 107.19 134.548 113.132 138.769 114.469C141.77 115.433 145.233 113.816 147.739 110.674C148.728 110.643 149.718 110.581 150.674 110.332C151.004 110.239 151.334 110.114 151.498 109.834C151.597 109.554 151.564 109.243 151.498 108.963Z" fill="#DBA17B"/>
<path d="M154.994 99.1337C156.346 98.6982 157.5 97.6095 157.764 96.3031C158.028 94.9655 157.237 93.4724 155.884 93.037C154.862 92.6948 153.642 92.9747 152.719 92.4771C152.158 92.166 151.795 91.6372 151.4 91.1706C149.223 88.5577 145.628 87.0647 142.133 87.3135C138.637 87.5624 135.307 89.522 133.559 92.3837C132.075 94.81 131.712 97.7028 131.976 100.471C132.24 103.24 133.13 105.946 133.987 108.59C135.438 105.884 136.889 103.177 138.34 100.502C138.67 99.9113 139 99.2892 139.594 98.947C140.187 98.6049 141.111 98.636 141.44 99.1959C141.671 99.5692 141.605 100.036 141.605 100.44C141.605 100.876 141.671 101.373 142.067 101.56C142.496 101.778 143.056 101.529 143.452 101.249C144.309 100.658 145.068 99.9424 145.76 99.1648C146.189 98.6671 146.618 98.045 147.244 97.7961C147.937 97.5162 148.53 97.8272 149.157 98.1694C150.014 98.636 150.905 99.0715 151.894 99.2581C152.916 99.4447 154.005 99.4447 154.994 99.1337ZM150.641 155.715C151.927 163.491 153.147 177.022 154.433 184.799C156.313 196.215 150.344 213.292 148.135 224.645C146.519 224.459 145.101 223.992 143.485 223.805C144.013 204.551 143.089 180.009 141.77 160.785C144.639 161.127 147.772 155.373 150.641 155.715Z" fill="#0B4870"/>
<path d="M130.624 161.128C132.306 161.221 133.954 159.79 135.636 159.915C137.681 160.039 139.89 160.412 141.836 160.972C143.782 161.532 146.057 159.821 147.97 159.199C148.366 162.31 147.673 167.847 147.046 170.926C145.595 178.143 143.914 185.297 141.968 192.389C140.913 196.308 137.78 200.072 136.131 203.805C135.438 205.391 134.779 207.04 134.152 208.657C132.833 212.017 130.558 221.473 129.239 224.832C127.623 224.708 125.974 224.677 124.358 224.552C124.523 221.162 125.941 211.395 126.073 208.004C126.337 202.343 129.338 196.402 131.712 191.176C130.525 185.763 130.492 179.885 130.525 174.348C130.558 169.464 130.591 165.98 130.624 161.128Z" fill="#0E538C"/>
<path d="M153.411 140.224C154.005 140.318 154.697 140.287 155.159 139.913C155.39 139.727 155.555 139.447 155.72 139.229C156.28 138.607 157.237 138.296 158.061 138.483C159.776 138.887 160.6 140.94 162.315 141.282C162.579 141.344 162.843 141.344 163.107 141.438C163.37 141.531 163.601 141.686 163.634 141.935C163.7 142.246 163.469 142.495 163.238 142.744C162.942 143.055 162.612 143.366 162.315 143.677C162.183 143.802 162.018 143.957 161.853 144.019C161.491 144.175 161.029 144.019 160.732 144.237C160.468 144.424 160.402 144.797 160.106 144.984C159.677 145.232 159.083 144.859 158.589 145.046C158.325 145.139 158.16 145.357 157.962 145.481C157.599 145.699 157.105 145.668 156.676 145.543C156.247 145.388 155.884 145.139 155.522 144.952C155.027 144.704 154.499 144.517 153.972 144.361C152.521 144.019 150.971 144.113 149.454 144.237C149.388 143.117 149.355 141.997 149.289 140.878C149.289 140.691 149.289 140.473 149.388 140.287C149.586 139.944 150.113 139.944 150.542 140.038C151.07 140.162 151.334 140.131 151.828 140.038C152.323 139.944 152.916 140.162 153.411 140.224Z" fill="#DBA17B"/>
<path d="M157.302 144.517C157.138 144.268 157.204 143.926 157.467 143.771L166.965 137.861C167.229 137.705 167.591 137.767 167.756 138.016C167.921 138.265 167.855 138.607 167.591 138.763L158.094 144.673C157.83 144.828 157.467 144.766 157.302 144.517Z" fill="#0B4870"/>
<path d="M149.718 224.366C149.85 224.086 150.212 223.992 150.443 224.179C151.465 224.988 154.203 226.823 159.644 228.005C159.644 228.005 160.963 228.254 161.919 229.716H141.737V226.357C141.737 225.983 142.199 225.797 142.496 226.014L143.287 226.636C143.65 226.948 144.144 227.103 144.606 227.103L147.508 227.134C148.135 227.134 148.695 226.792 148.926 226.232L149.718 224.366Z" fill="#CCE9FF"/>
<path d="M161.942 231.684H141.76V229.724H161.942V231.684Z" fill="#0E538C"/>
<path d="M129.997 225.423C130.195 225.205 130.591 225.236 130.756 225.485C131.415 226.574 133.361 229.156 138.011 232.049C138.011 232.049 139.165 232.733 139.561 234.381L120.566 227.943L121.786 224.77C121.918 224.428 122.412 224.365 122.61 224.708L123.105 225.547C123.336 225.952 123.731 226.263 124.193 226.418L126.897 227.352C127.491 227.569 128.15 227.383 128.546 226.947L129.997 225.423Z" fill="#CCE9FF"/>
<path d="M138.82 236.236L119.831 229.788L120.534 227.944L139.524 234.392L138.82 236.236Z" fill="#0E538C"/>
<path d="M150.014 138.638C151.465 143.211 152.554 150.396 153.246 155.124C153.411 156.244 153.312 160.474 152.488 161.283C151.993 161.781 139.231 163.118 133.921 164.767C133.196 164.985 129.733 166.26 129.041 165.98C128.051 165.576 127.524 161.47 127.755 160.505C130.822 148.032 130.822 157.208 126.337 132.666C125.446 127.751 123.731 123.21 125.512 118.513C126.106 116.957 130.591 112.416 130.591 112.416C130.591 112.416 132.108 113.94 133.658 114.811C134.944 115.527 136.626 116.802 137.714 117.051C142.693 118.139 148.267 133.132 150.014 138.638Z" fill="#2A94F4"/>
<path d="M143.848 171.921C144.276 172.792 144.474 173.757 144.573 174.69C144.705 176.338 144.507 177.987 144.013 179.542C143.287 179.387 142.693 178.765 142.595 178.049C142.924 178.547 142.628 179.293 142.034 179.449C141.44 179.605 140.781 179.076 140.814 178.485C140.649 178.982 140.055 179.356 139.528 179.262C138.967 179.169 138.538 178.671 138.571 178.143C138.802 178.298 138.736 178.671 138.538 178.827C138.307 178.982 137.978 178.951 137.747 178.827C137.516 178.702 137.351 178.454 137.252 178.205C137.087 177.769 137.021 177.303 136.988 176.836C136.823 174.845 136.692 172.823 136.527 170.833C136.494 170.553 136.494 170.273 136.626 170.024C136.889 169.557 137.582 169.495 138.176 169.526L140.451 169.62C140.946 169.651 141.473 169.62 141.935 169.775C142.759 170.148 143.452 171.175 143.848 171.921Z" fill="#DBA17B"/>
<path d="M135.603 125.201C135.34 129.4 135.076 133.63 134.779 137.83C134.614 140.163 134.482 142.527 134.845 144.828C135.142 146.757 135.768 148.623 136.395 150.458C138.67 157.115 140.946 163.772 143.254 170.428C140.814 170.273 138.34 170.117 135.9 169.962C133.954 162.839 130.195 150.116 129.865 148.965C127.161 140.971 126.205 132.479 127.062 124.143L135.603 125.201Z" fill="#2A94F4"/>
<path d="M124.325 84.2965C124.325 76.0535 114.729 69.3657 102.89 69.3657C91.0508 69.3657 81.4543 76.0535 81.4543 84.2965C81.4543 92.5395 91.0508 99.2272 102.89 99.2272C105.132 99.2272 107.309 98.9784 109.32 98.5429L117.07 104.515V95.4945C121.522 92.7572 124.325 88.7446 124.325 84.2965Z" fill="#FFBE55"/>
<path d="M111.958 69.8324C111.958 63.1447 104.176 57.7012 94.5464 57.7012C84.917 57.7012 77.1343 63.1136 77.1343 69.8324C77.1343 76.5201 84.917 81.9636 94.5464 81.9636C96.3601 81.9636 98.1409 81.777 99.7898 81.4037L106.056 86.2562V78.9464C109.683 76.6757 111.958 73.4407 111.958 69.8324Z" fill="white"/>
<path d="M103.549 65.4776H84.7521C84.4883 65.4776 84.2574 65.2599 84.2574 65.011C84.2574 64.7622 84.4883 64.5444 84.7521 64.5444H103.549C103.813 64.5444 104.044 64.7622 104.044 65.011C104.044 65.2599 103.813 65.4776 103.549 65.4776ZM103.549 68.837H84.7521C84.4883 68.837 84.2574 68.6193 84.2574 68.3704C84.2574 68.1216 84.4883 67.9039 84.7521 67.9039H103.549C103.813 67.9039 104.044 68.1216 104.044 68.3704C104.044 68.6193 103.813 68.837 103.549 68.837ZM103.549 72.2275H84.7521C84.4883 72.2275 84.2574 72.0098 84.2574 71.761C84.2574 71.5121 84.4883 71.2944 84.7521 71.2944H103.549C103.813 71.2944 104.044 71.5121 104.044 71.761C104.044 72.0098 103.813 72.2275 103.549 72.2275ZM103.549 75.587H84.7521C84.4883 75.587 84.2574 75.3692 84.2574 75.1204C84.2574 74.8715 84.4883 74.6538 84.7521 74.6538H103.549C103.813 74.6538 104.044 74.8715 104.044 75.1204C104.044 75.3692 103.813 75.587 103.549 75.587Z" fill="#FFBE55"/>
</svg>
