<svg width="20" height="20" viewBox="0 0 20 20" fill="none" xmlns="http://www.w3.org/2000/svg">
<path d="M9.16667 13.3332C8.94565 13.3332 8.73369 13.421 8.57741 13.5772C8.42113 13.7335 8.33333 13.9455 8.33333 14.1665C8.33333 14.3875 8.42113 14.5995 8.57741 14.7558C8.73369 14.912 8.94565 14.9998 9.16667 14.9998H10.8333C11.0543 14.9998 11.2663 14.912 11.4226 14.7558C11.5789 14.5995 11.6667 14.3875 11.6667 14.1665C11.6667 13.9455 11.5789 13.7335 11.4226 13.5772C11.2663 13.421 11.0543 13.3332 10.8333 13.3332H9.16667ZM7.5 1.6665C6.83696 1.6665 6.20107 1.9299 5.73223 2.39874C5.26339 2.86758 5 3.50346 5 4.1665V15.8332C5 16.4962 5.26339 17.1321 5.73223 17.6009C6.20107 18.0698 6.83696 18.3332 7.5 18.3332H12.5C13.163 18.3332 13.7989 18.0698 14.2678 17.6009C14.7366 17.1321 15 16.4962 15 15.8332V4.1665C15 3.50346 14.7366 2.86758 14.2678 2.39874C13.7989 1.9299 13.163 1.6665 12.5 1.6665H7.5ZM6.66667 4.1665C6.66667 3.94549 6.75446 3.73353 6.91074 3.57725C7.06702 3.42097 7.27899 3.33317 7.5 3.33317H12.5C12.721 3.33317 12.933 3.42097 13.0893 3.57725C13.2455 3.73353 13.3333 3.94549 13.3333 4.1665V15.8332C13.3333 16.0542 13.2455 16.2661 13.0893 16.4224C12.933 16.5787 12.721 16.6665 12.5 16.6665H7.5C7.27899 16.6665 7.06702 16.5787 6.91074 16.4224C6.75446 16.2661 6.66667 16.0542 6.66667 15.8332V4.1665Z" fill="#007BFF"/>
</svg>
